G04 #@! TF.GenerationSoftware,KiCad,Pcbnew,8.0.3*
G04 #@! TF.CreationDate,2024-07-19T17:25:19+03:00*
G04 #@! TF.ProjectId,B-GP-02-Brk-01Mbr-R01,422d4750-2d30-4322-9d42-726b2d30314d,rev?*
G04 #@! TF.SameCoordinates,Original*
G04 #@! TF.FileFunction,Copper,L1,Top*
G04 #@! TF.FilePolarity,Positive*
%FSLAX46Y46*%
G04 Gerber Fmt 4.6, Leading zero omitted, Abs format (unit mm)*
G04 Created by KiCad (PCBNEW 8.0.3) date 2024-07-19 17:25:19*
%MOMM*%
%LPD*%
G01*
G04 APERTURE LIST*
G04 Aperture macros list*
%AMRoundRect*
0 Rectangle with rounded corners*
0 $1 Rounding radius*
0 $2 $3 $4 $5 $6 $7 $8 $9 X,Y pos of 4 corners*
0 Add a 4 corners polygon primitive as box body*
4,1,4,$2,$3,$4,$5,$6,$7,$8,$9,$2,$3,0*
0 Add four circle primitives for the rounded corners*
1,1,$1+$1,$2,$3*
1,1,$1+$1,$4,$5*
1,1,$1+$1,$6,$7*
1,1,$1+$1,$8,$9*
0 Add four rect primitives between the rounded corners*
20,1,$1+$1,$2,$3,$4,$5,0*
20,1,$1+$1,$4,$5,$6,$7,0*
20,1,$1+$1,$6,$7,$8,$9,0*
20,1,$1+$1,$8,$9,$2,$3,0*%
G04 Aperture macros list end*
G04 #@! TA.AperFunction,SMDPad,CuDef*
%ADD10C,0.500000*%
G04 #@! TD*
G04 #@! TA.AperFunction,SMDPad,CuDef*
%ADD11R,1.300000X0.600000*%
G04 #@! TD*
G04 #@! TA.AperFunction,SMDPad,CuDef*
%ADD12RoundRect,0.225000X-0.225000X-0.250000X0.225000X-0.250000X0.225000X0.250000X-0.225000X0.250000X0*%
G04 #@! TD*
G04 #@! TA.AperFunction,SMDPad,CuDef*
%ADD13R,1.590000X0.770000*%
G04 #@! TD*
G04 #@! TA.AperFunction,SMDPad,CuDef*
%ADD14RoundRect,0.200000X-0.200000X-0.275000X0.200000X-0.275000X0.200000X0.275000X-0.200000X0.275000X0*%
G04 #@! TD*
G04 #@! TA.AperFunction,SMDPad,CuDef*
%ADD15RoundRect,0.218750X0.256250X-0.218750X0.256250X0.218750X-0.256250X0.218750X-0.256250X-0.218750X0*%
G04 #@! TD*
G04 #@! TA.AperFunction,SMDPad,CuDef*
%ADD16RoundRect,0.200000X-0.275000X0.200000X-0.275000X-0.200000X0.275000X-0.200000X0.275000X0.200000X0*%
G04 #@! TD*
G04 #@! TA.AperFunction,ComponentPad*
%ADD17O,1.950000X1.700000*%
G04 #@! TD*
G04 #@! TA.AperFunction,ComponentPad*
%ADD18RoundRect,0.250000X0.725000X-0.600000X0.725000X0.600000X-0.725000X0.600000X-0.725000X-0.600000X0*%
G04 #@! TD*
G04 #@! TA.AperFunction,ComponentPad*
%ADD19C,1.879600*%
G04 #@! TD*
G04 #@! TA.AperFunction,SMDPad,CuDef*
%ADD20RoundRect,0.225000X0.225000X0.250000X-0.225000X0.250000X-0.225000X-0.250000X0.225000X-0.250000X0*%
G04 #@! TD*
G04 #@! TA.AperFunction,SMDPad,CuDef*
%ADD21RoundRect,0.200000X0.275000X-0.200000X0.275000X0.200000X-0.275000X0.200000X-0.275000X-0.200000X0*%
G04 #@! TD*
G04 #@! TA.AperFunction,SMDPad,CuDef*
%ADD22RoundRect,0.225000X0.250000X-0.225000X0.250000X0.225000X-0.250000X0.225000X-0.250000X-0.225000X0*%
G04 #@! TD*
G04 #@! TA.AperFunction,SMDPad,CuDef*
%ADD23RoundRect,0.200000X0.200000X0.275000X-0.200000X0.275000X-0.200000X-0.275000X0.200000X-0.275000X0*%
G04 #@! TD*
G04 #@! TA.AperFunction,SMDPad,CuDef*
%ADD24RoundRect,0.225000X-0.250000X0.225000X-0.250000X-0.225000X0.250000X-0.225000X0.250000X0.225000X0*%
G04 #@! TD*
G04 #@! TA.AperFunction,SMDPad,CuDef*
%ADD25RoundRect,0.150000X-0.512500X-0.150000X0.512500X-0.150000X0.512500X0.150000X-0.512500X0.150000X0*%
G04 #@! TD*
G04 #@! TA.AperFunction,SMDPad,CuDef*
%ADD26R,1.050000X1.000000*%
G04 #@! TD*
G04 #@! TA.AperFunction,SMDPad,CuDef*
%ADD27R,2.200000X1.050000*%
G04 #@! TD*
G04 #@! TA.AperFunction,SMDPad,CuDef*
%ADD28RoundRect,0.062500X0.062500X-0.117500X0.062500X0.117500X-0.062500X0.117500X-0.062500X-0.117500X0*%
G04 #@! TD*
G04 #@! TA.AperFunction,ViaPad*
%ADD29C,0.800000*%
G04 #@! TD*
G04 #@! TA.AperFunction,Conductor*
%ADD30C,0.400000*%
G04 #@! TD*
G04 #@! TA.AperFunction,Conductor*
%ADD31C,0.250000*%
G04 #@! TD*
G04 #@! TA.AperFunction,Conductor*
%ADD32C,1.080000*%
G04 #@! TD*
G04 #@! TA.AperFunction,Conductor*
%ADD33C,0.849000*%
G04 #@! TD*
G04 APERTURE END LIST*
D10*
X172360000Y-68080000D03*
X143230000Y-85100000D03*
D11*
X154750000Y-77510000D03*
X154750000Y-79410000D03*
X156850000Y-78460000D03*
D12*
X159800000Y-77628750D03*
X161350000Y-77628750D03*
D13*
X163210000Y-71950000D03*
X163210000Y-73066250D03*
X163210000Y-74182500D03*
X163210000Y-75298750D03*
X163210000Y-76415000D03*
X163210000Y-77531250D03*
X163210000Y-78647500D03*
X163210000Y-79763750D03*
X163210000Y-80880000D03*
X172530000Y-80880000D03*
X172530000Y-79763750D03*
X172530000Y-78647500D03*
X172530000Y-77531250D03*
X172530000Y-76415000D03*
X172530000Y-75298750D03*
X172530000Y-74182500D03*
X172530000Y-73066250D03*
X172530000Y-71950000D03*
D14*
X145815000Y-84620000D03*
X147465000Y-84620000D03*
D15*
X150220000Y-84967500D03*
X150220000Y-83392500D03*
D12*
X159800000Y-80708750D03*
X161350000Y-80708750D03*
D16*
X152938000Y-73785000D03*
X152938000Y-75435000D03*
D17*
X144100000Y-80570000D03*
X144100000Y-78070000D03*
X144100000Y-75570000D03*
D18*
X144100000Y-73070000D03*
D19*
X158130000Y-68660000D03*
X155590000Y-68660000D03*
X153050000Y-68660000D03*
D11*
X156850000Y-75440000D03*
X156850000Y-73540000D03*
X154750000Y-74490000D03*
D20*
X161350000Y-76088750D03*
X159800000Y-76088750D03*
D21*
X152958000Y-79285000D03*
X152958000Y-77635000D03*
D22*
X144355000Y-69125000D03*
X144355000Y-67575000D03*
D23*
X168205000Y-68780000D03*
X166555000Y-68780000D03*
D12*
X159800000Y-79168750D03*
X161350000Y-79168750D03*
D24*
X150827500Y-67595000D03*
X150827500Y-69145000D03*
D19*
X153020000Y-84610000D03*
X155560000Y-84610000D03*
X158100000Y-84610000D03*
D25*
X146842500Y-67470000D03*
X146842500Y-68420000D03*
X146842500Y-69370000D03*
X149117500Y-69370000D03*
X149117500Y-67470000D03*
D26*
X175995000Y-79760000D03*
D27*
X177520000Y-81235000D03*
X177520000Y-78285000D03*
D23*
X161400000Y-72728750D03*
X159750000Y-72728750D03*
D28*
X174270000Y-78680000D03*
X174270000Y-79520000D03*
D14*
X159750000Y-74268750D03*
X161400000Y-74268750D03*
D29*
X145820000Y-82450000D03*
X170890000Y-71380000D03*
X179370000Y-81286000D03*
X179370000Y-79178000D03*
X168920000Y-78210000D03*
X167619166Y-73920000D03*
X166645000Y-78210000D03*
X164757500Y-71380000D03*
X167639166Y-71380000D03*
X170855000Y-75510000D03*
X165507500Y-76850000D03*
X164737500Y-73920000D03*
X145640000Y-79330000D03*
X142720000Y-81990000D03*
X149840000Y-70540000D03*
X146160000Y-74370000D03*
X171110000Y-80690000D03*
X169070000Y-72620000D03*
X167812500Y-79510000D03*
X151990000Y-72010000D03*
X145550000Y-68210000D03*
X166188333Y-72620000D03*
X179370000Y-80232000D03*
X175680000Y-81930000D03*
X143760000Y-71180000D03*
X177510000Y-77080000D03*
X160040000Y-82260000D03*
X170087500Y-79510000D03*
X174130000Y-80990000D03*
X142405000Y-69035000D03*
X178460000Y-82390000D03*
X179370000Y-82340000D03*
X176550000Y-77080000D03*
X179370000Y-78124000D03*
X175230000Y-81050000D03*
X167782500Y-76850000D03*
X166677500Y-80700000D03*
X178450000Y-77080000D03*
X177500000Y-82390000D03*
X179370000Y-77070000D03*
X175760000Y-77570000D03*
X168952500Y-80700000D03*
X169105000Y-75500000D03*
X171120000Y-78210000D03*
X165537500Y-79510000D03*
X170870000Y-73885000D03*
X166936666Y-75500000D03*
X175330000Y-78560000D03*
X142920000Y-83750000D03*
X176550000Y-82400000D03*
X164848750Y-75298750D03*
D30*
X161350000Y-76088750D02*
X160570000Y-75308750D01*
X149117500Y-67470000D02*
X150795000Y-67470000D01*
X154640000Y-71740000D02*
X154500000Y-71740000D01*
X154970000Y-72070000D02*
X154970000Y-71830000D01*
X153060000Y-68490000D02*
X153060000Y-71170000D01*
X163112500Y-77628750D02*
X163210000Y-77531250D01*
X154500000Y-71740000D02*
X156010000Y-71740000D01*
X161350000Y-77628750D02*
X163112500Y-77628750D01*
X154970000Y-72070000D02*
X155210000Y-71830000D01*
X156240000Y-77510000D02*
X156850000Y-76900000D01*
X153060000Y-71170000D02*
X153630000Y-71740000D01*
X161350000Y-77628750D02*
X161350000Y-79168750D01*
X156850000Y-75440000D02*
X156850000Y-75070000D01*
D31*
X145820000Y-83830000D02*
X145815000Y-83835000D01*
X145820000Y-82450000D02*
X145820000Y-83830000D01*
D30*
X153630000Y-71740000D02*
X154500000Y-71740000D01*
X160570000Y-75308750D02*
X160570000Y-72180000D01*
X161945000Y-79763750D02*
X163210000Y-79763750D01*
X152045000Y-67475000D02*
X153060000Y-68490000D01*
X161350000Y-79168750D02*
X161945000Y-79763750D01*
X156850000Y-75070000D02*
X154970000Y-73190000D01*
X154970000Y-72070000D02*
X154640000Y-71740000D01*
X156850000Y-76900000D02*
X156850000Y-75440000D01*
X150795000Y-67470000D02*
X150830000Y-67505000D01*
X154750000Y-77510000D02*
X156240000Y-77510000D01*
X161350000Y-76088750D02*
X161350000Y-77628750D01*
D31*
X145815000Y-83835000D02*
X145815000Y-84620000D01*
D30*
X160570000Y-72180000D02*
X160130000Y-71740000D01*
X160130000Y-71740000D02*
X156010000Y-71740000D01*
X150992500Y-67475000D02*
X152045000Y-67475000D01*
X154970000Y-73190000D02*
X154970000Y-72070000D01*
X161350000Y-79168750D02*
X161350000Y-80708750D01*
X145765000Y-69125000D02*
X144355000Y-69125000D01*
X146010000Y-69370000D02*
X146842500Y-69370000D01*
X148027500Y-67830000D02*
X147667500Y-67470000D01*
X151740000Y-80570000D02*
X153025000Y-79285000D01*
X153025000Y-79285000D02*
X153090000Y-79285000D01*
X147557500Y-69370000D02*
X148027500Y-68900000D01*
X146010000Y-69370000D02*
X145765000Y-69125000D01*
X147005000Y-70835000D02*
X149955000Y-73785000D01*
X144355000Y-69125000D02*
X143655000Y-69125000D01*
X147005000Y-69340000D02*
X147005000Y-70835000D01*
X149955000Y-73785000D02*
X153070000Y-73785000D01*
X144100000Y-80570000D02*
X143190000Y-80570000D01*
X147667500Y-67470000D02*
X146842500Y-67470000D01*
X148027500Y-68900000D02*
X148027500Y-67830000D01*
X143190000Y-80570000D02*
X142230000Y-79610000D01*
X144100000Y-80570000D02*
X151740000Y-80570000D01*
X142230000Y-70550000D02*
X142230000Y-79610000D01*
X146842500Y-69370000D02*
X147557500Y-69370000D01*
X143655000Y-69125000D02*
X142230000Y-70550000D01*
D31*
X144100000Y-75570000D02*
X146780000Y-75570000D01*
X146780000Y-75570000D02*
X152220000Y-75570000D01*
X152355000Y-75435000D02*
X153070000Y-75435000D01*
X154750000Y-74490000D02*
X154750000Y-75140000D01*
X152220000Y-75570000D02*
X152355000Y-75435000D01*
X153095000Y-75410000D02*
X153070000Y-75435000D01*
X154480000Y-75410000D02*
X153095000Y-75410000D01*
X154750000Y-75140000D02*
X154480000Y-75410000D01*
X152523000Y-78070000D02*
X152958000Y-77635000D01*
X153030000Y-77635000D02*
X153855000Y-78460000D01*
X152958000Y-77635000D02*
X153030000Y-77635000D01*
X153855000Y-78460000D02*
X156850000Y-78460000D01*
X144100000Y-78070000D02*
X152523000Y-78070000D01*
X163210000Y-75298750D02*
X164848750Y-75298750D01*
X163210000Y-75298750D02*
X163200000Y-75288750D01*
X161760000Y-83330000D02*
X162830000Y-83330000D01*
X164335000Y-76415000D02*
X163210000Y-76415000D01*
X156780000Y-85980000D02*
X159110000Y-85980000D01*
X164760000Y-81400000D02*
X164760000Y-76840000D01*
X155410000Y-84610000D02*
X156780000Y-85980000D01*
X159110000Y-85980000D02*
X161760000Y-83330000D01*
X162830000Y-83330000D02*
X164760000Y-81400000D01*
X164760000Y-76840000D02*
X164335000Y-76415000D01*
X162520000Y-82880000D02*
X161433604Y-82880000D01*
X159490000Y-84600000D02*
X159480000Y-84610000D01*
X159713604Y-84600000D02*
X159490000Y-84600000D01*
X163210000Y-82190000D02*
X162520000Y-82880000D01*
X161433604Y-82880000D02*
X159713604Y-84600000D01*
X159490000Y-84600000D02*
X158300000Y-84600000D01*
X163210000Y-80880000D02*
X163210000Y-82190000D01*
X159480000Y-84610000D02*
X157950000Y-84610000D01*
X156060000Y-70300000D02*
X155590000Y-69830000D01*
X155590000Y-69830000D02*
X155590000Y-68660000D01*
X166555000Y-68780000D02*
X163560000Y-68780000D01*
X161690000Y-70650000D02*
X156410000Y-70650000D01*
X156060000Y-70300000D02*
X155760000Y-70000000D01*
X156410000Y-70650000D02*
X156060000Y-70300000D01*
X163560000Y-68780000D02*
X161690000Y-70650000D01*
X161400000Y-74268750D02*
X163123750Y-74268750D01*
X163123750Y-74268750D02*
X163210000Y-74182500D01*
X163210000Y-73066250D02*
X162170000Y-73066250D01*
X161832500Y-72728750D02*
X162170000Y-73066250D01*
X161400000Y-72728750D02*
X161832500Y-72728750D01*
X170000000Y-76046250D02*
X170000000Y-69370000D01*
X170000000Y-69370000D02*
X169410000Y-68780000D01*
X172530000Y-77531250D02*
X171485000Y-77531250D01*
X169410000Y-68780000D02*
X168205000Y-68780000D01*
X171485000Y-77531250D02*
X170000000Y-76046250D01*
X159091250Y-72728750D02*
X158280000Y-73540000D01*
X159750000Y-72728750D02*
X159091250Y-72728750D01*
X158280000Y-73540000D02*
X156850000Y-73540000D01*
X159750000Y-72728750D02*
X159576250Y-72555000D01*
X158060000Y-78850000D02*
X157500000Y-79410000D01*
X158821250Y-74268750D02*
X158060000Y-75030000D01*
X158060000Y-75030000D02*
X158060000Y-78850000D01*
X157500000Y-79410000D02*
X154750000Y-79410000D01*
X159750000Y-74268750D02*
X158821250Y-74268750D01*
X159750000Y-74268750D02*
X159750000Y-74330000D01*
D32*
X172530000Y-79763750D02*
X175991250Y-79763750D01*
D33*
X175991250Y-79763750D02*
X175995000Y-79760000D01*
D31*
X147465000Y-84620000D02*
X147930000Y-84620000D01*
X149157500Y-83392500D02*
X150220000Y-83392500D01*
X147930000Y-84620000D02*
X149157500Y-83392500D01*
G04 #@! TA.AperFunction,Conductor*
G36*
X156275721Y-84255111D02*
G01*
X156282047Y-84261449D01*
X156282299Y-84262118D01*
X156825095Y-85843781D01*
X156824540Y-85852719D01*
X156822302Y-85855852D01*
X156655852Y-86022302D01*
X156647579Y-86025729D01*
X156643781Y-86025095D01*
X155062118Y-85482299D01*
X155055405Y-85476373D01*
X155054850Y-85467435D01*
X155055096Y-85466781D01*
X155407438Y-84613782D01*
X155413761Y-84607447D01*
X156266767Y-84255102D01*
X156275721Y-84255111D01*
G37*
G04 #@! TD.AperFunction*
G04 #@! TA.AperFunction,Conductor*
G36*
X144560074Y-77289405D02*
G01*
X145918366Y-77941814D01*
X145924339Y-77948484D01*
X145925000Y-77952360D01*
X145925000Y-78187639D01*
X145921573Y-78195912D01*
X145918366Y-78198186D01*
X144560076Y-78850593D01*
X144551134Y-78851085D01*
X144544867Y-78845876D01*
X144102349Y-78075829D01*
X144101199Y-78066949D01*
X144102350Y-78064170D01*
X144166603Y-77952360D01*
X144544867Y-77294121D01*
X144551959Y-77288658D01*
X144560074Y-77289405D01*
G37*
G04 #@! TD.AperFunction*
G04 #@! TA.AperFunction,Conductor*
G36*
X146179109Y-82598719D02*
G01*
X146185427Y-82605066D01*
X146185551Y-82613655D01*
X145947859Y-83242437D01*
X145941728Y-83248964D01*
X145936915Y-83250000D01*
X145703085Y-83250000D01*
X145694812Y-83246573D01*
X145692141Y-83242437D01*
X145454448Y-82613655D01*
X145454728Y-82604705D01*
X145460889Y-82598719D01*
X145815500Y-82450875D01*
X145824449Y-82450855D01*
X146179109Y-82598719D01*
G37*
G04 #@! TD.AperFunction*
G04 #@! TA.AperFunction,Conductor*
G36*
X143972891Y-79723515D02*
G01*
X143976538Y-79730411D01*
X144099742Y-80564179D01*
X144097562Y-80572864D01*
X144095619Y-80574909D01*
X143382703Y-81163817D01*
X143374143Y-81166444D01*
X143366467Y-81162524D01*
X142400568Y-80064403D01*
X142397678Y-80055930D01*
X142401080Y-80048406D01*
X142672936Y-79776550D01*
X142680726Y-79773134D01*
X143964485Y-79720431D01*
X143972891Y-79723515D01*
G37*
G04 #@! TD.AperFunction*
G04 #@! TA.AperFunction,Conductor*
G36*
X164694044Y-74933478D02*
G01*
X164700030Y-74939640D01*
X164847873Y-75294248D01*
X164847894Y-75303202D01*
X164847873Y-75303252D01*
X164700030Y-75657859D01*
X164693683Y-75664177D01*
X164685094Y-75664301D01*
X164056313Y-75426608D01*
X164049786Y-75420477D01*
X164048750Y-75415664D01*
X164048750Y-75181835D01*
X164052177Y-75173562D01*
X164056313Y-75170891D01*
X164685095Y-74933198D01*
X164694044Y-74933478D01*
G37*
G04 #@! TD.AperFunction*
G04 #@! TA.AperFunction,Conductor*
G36*
X158622611Y-83951268D02*
G01*
X159400842Y-84511058D01*
X159402283Y-84512283D01*
X159567969Y-84677969D01*
X159571396Y-84686242D01*
X159567969Y-84694515D01*
X159565880Y-84696174D01*
X158321347Y-85470976D01*
X158312512Y-85472440D01*
X158305231Y-85467228D01*
X158304358Y-85465532D01*
X157952293Y-84617931D01*
X157952285Y-84608979D01*
X157954823Y-84605176D01*
X158607507Y-83952492D01*
X158615779Y-83949066D01*
X158622611Y-83951268D01*
G37*
G04 #@! TD.AperFunction*
G04 #@! TA.AperFunction,Conductor*
G36*
X144559833Y-79788768D02*
G01*
X145917884Y-80366970D01*
X145924153Y-80373363D01*
X145925000Y-80377734D01*
X145925000Y-80762265D01*
X145921573Y-80770538D01*
X145917883Y-80773030D01*
X144559834Y-81351230D01*
X144550880Y-81351318D01*
X144545107Y-81346295D01*
X144215673Y-80773030D01*
X144102349Y-80575829D01*
X144101199Y-80566949D01*
X144102350Y-80564170D01*
X144209488Y-80377734D01*
X144545108Y-79793702D01*
X144552200Y-79788239D01*
X144559833Y-79788768D01*
G37*
G04 #@! TD.AperFunction*
G04 #@! TA.AperFunction,Conductor*
G36*
X144560074Y-74789405D02*
G01*
X145918366Y-75441814D01*
X145924339Y-75448484D01*
X145925000Y-75452360D01*
X145925000Y-75687639D01*
X145921573Y-75695912D01*
X145918366Y-75698186D01*
X144560076Y-76350593D01*
X144551134Y-76351085D01*
X144544867Y-76345876D01*
X144102349Y-75575829D01*
X144101199Y-75566949D01*
X144102350Y-75564170D01*
X144166603Y-75452360D01*
X144544867Y-74794121D01*
X144551959Y-74788658D01*
X144560074Y-74789405D01*
G37*
G04 #@! TD.AperFunction*
G04 #@! TA.AperFunction,Conductor*
G36*
X158320039Y-83747216D02*
G01*
X158320953Y-83747643D01*
X159707321Y-84471718D01*
X159713067Y-84478585D01*
X159713604Y-84482088D01*
X159713604Y-84717999D01*
X159710177Y-84726272D01*
X159707436Y-84728309D01*
X158321028Y-85472155D01*
X158312117Y-85473047D01*
X158305186Y-85467377D01*
X158304691Y-85466333D01*
X157950864Y-84614488D01*
X157950855Y-84605533D01*
X157950864Y-84605512D01*
X158006438Y-84471717D01*
X158304747Y-83753531D01*
X158311084Y-83747207D01*
X158320039Y-83747216D01*
G37*
G04 #@! TD.AperFunction*
G04 #@! TA.AperFunction,Conductor*
G36*
X146081534Y-66860146D02*
G01*
X146127289Y-66912950D01*
X146137233Y-66982108D01*
X146108208Y-67045664D01*
X146102176Y-67052142D01*
X146040803Y-67113514D01*
X145989426Y-67218608D01*
X145979500Y-67286739D01*
X145979500Y-67653260D01*
X145989426Y-67721391D01*
X146040803Y-67826485D01*
X146123514Y-67909196D01*
X146123515Y-67909196D01*
X146123517Y-67909198D01*
X146228607Y-67960573D01*
X146254345Y-67964323D01*
X146296739Y-67970500D01*
X146296740Y-67970500D01*
X147388255Y-67970500D01*
X147388260Y-67970500D01*
X147456393Y-67960573D01*
X147456396Y-67960571D01*
X147456399Y-67960571D01*
X147465596Y-67957730D01*
X147466704Y-67961317D01*
X147517366Y-67952648D01*
X147581674Y-67979967D01*
X147621003Y-68037717D01*
X147627000Y-68075813D01*
X147627000Y-68682743D01*
X147607315Y-68749782D01*
X147590681Y-68770424D01*
X147522456Y-68838649D01*
X147461133Y-68872134D01*
X147416900Y-68873672D01*
X147388260Y-68869500D01*
X146296740Y-68869500D01*
X146296739Y-68869500D01*
X146228611Y-68879425D01*
X146228602Y-68879428D01*
X146212236Y-68887429D01*
X146143362Y-68899185D01*
X146079066Y-68871838D01*
X146070100Y-68863707D01*
X146010915Y-68804522D01*
X146010913Y-68804520D01*
X145945709Y-68766874D01*
X145919589Y-68751793D01*
X145868657Y-68738146D01*
X145817727Y-68724500D01*
X145817726Y-68724500D01*
X145069115Y-68724500D01*
X145002076Y-68704815D01*
X144958630Y-68656794D01*
X144953528Y-68646780D01*
X144953523Y-68646774D01*
X144858225Y-68551476D01*
X144858221Y-68551473D01*
X144858220Y-68551472D01*
X144738126Y-68490281D01*
X144738124Y-68490280D01*
X144738121Y-68490279D01*
X144638493Y-68474500D01*
X144638488Y-68474500D01*
X144071512Y-68474500D01*
X144071507Y-68474500D01*
X143971878Y-68490279D01*
X143851778Y-68551473D01*
X143851774Y-68551476D01*
X143756476Y-68646774D01*
X143756471Y-68646780D01*
X143751370Y-68656794D01*
X143703396Y-68707590D01*
X143640885Y-68724500D01*
X143602273Y-68724500D01*
X143500413Y-68751793D01*
X143500410Y-68751794D01*
X143474292Y-68766874D01*
X143474291Y-68766874D01*
X143409093Y-68804515D01*
X143409085Y-68804521D01*
X141909522Y-70304084D01*
X141909518Y-70304090D01*
X141856792Y-70395412D01*
X141856793Y-70395413D01*
X141829500Y-70497273D01*
X141829500Y-79557273D01*
X141829500Y-79662727D01*
X141831977Y-79671970D01*
X141856793Y-79764589D01*
X141870442Y-79788229D01*
X141909520Y-79855913D01*
X141909522Y-79855915D01*
X142224501Y-80170894D01*
X142244115Y-80196415D01*
X142246265Y-80200127D01*
X142246270Y-80200134D01*
X143148524Y-81225897D01*
X143158512Y-81238892D01*
X143159015Y-81239645D01*
X143159025Y-81239657D01*
X143169525Y-81250157D01*
X143174951Y-81255941D01*
X143212163Y-81298247D01*
X143212169Y-81298253D01*
X143230538Y-81312531D01*
X143242112Y-81322744D01*
X143305345Y-81385977D01*
X143477402Y-81500941D01*
X143668580Y-81580130D01*
X143804405Y-81607147D01*
X143871530Y-81620499D01*
X143871534Y-81620500D01*
X143871535Y-81620500D01*
X144328466Y-81620500D01*
X144328467Y-81620499D01*
X144531420Y-81580130D01*
X144603823Y-81550139D01*
X144625889Y-81543326D01*
X144640335Y-81540306D01*
X145955393Y-80980410D01*
X146003968Y-80970500D01*
X151792725Y-80970500D01*
X151792727Y-80970500D01*
X151894588Y-80943207D01*
X151985913Y-80890480D01*
X152954574Y-79921817D01*
X153015897Y-79888333D01*
X153042255Y-79885499D01*
X153264517Y-79885499D01*
X153264518Y-79885499D01*
X153358304Y-79870646D01*
X153471342Y-79813050D01*
X153561050Y-79723342D01*
X153618646Y-79610304D01*
X153618646Y-79610302D01*
X153618647Y-79610301D01*
X153629282Y-79543147D01*
X153633500Y-79516519D01*
X153633499Y-79053482D01*
X153618646Y-78959696D01*
X153611698Y-78946061D01*
X153598803Y-78877393D01*
X153625080Y-78812653D01*
X153682187Y-78772396D01*
X153751992Y-78769404D01*
X153754146Y-78769959D01*
X153812147Y-78785500D01*
X153843697Y-78785500D01*
X153910736Y-78805185D01*
X153956491Y-78857989D01*
X153966435Y-78927147D01*
X153946799Y-78978391D01*
X153911132Y-79031769D01*
X153911131Y-79031770D01*
X153899500Y-79090247D01*
X153899500Y-79729752D01*
X153911131Y-79788229D01*
X153911132Y-79788230D01*
X153955447Y-79854552D01*
X154021769Y-79898867D01*
X154021770Y-79898868D01*
X154080247Y-79910499D01*
X154080250Y-79910500D01*
X154080252Y-79910500D01*
X155419750Y-79910500D01*
X155419751Y-79910499D01*
X155434568Y-79907552D01*
X155478229Y-79898868D01*
X155478229Y-79898867D01*
X155478231Y-79898867D01*
X155544552Y-79854552D01*
X155587278Y-79790608D01*
X155640890Y-79745804D01*
X155690380Y-79735500D01*
X157542851Y-79735500D01*
X157542853Y-79735500D01*
X157625639Y-79713318D01*
X157699862Y-79670465D01*
X158249655Y-79120669D01*
X158249660Y-79120666D01*
X158259860Y-79110465D01*
X158259862Y-79110465D01*
X158320465Y-79049862D01*
X158363318Y-78975638D01*
X158385501Y-78892853D01*
X158385501Y-78807147D01*
X158385501Y-78799552D01*
X158385500Y-78799534D01*
X158385500Y-75216189D01*
X158405185Y-75149150D01*
X158421819Y-75128508D01*
X158919758Y-74630569D01*
X158981081Y-74597084D01*
X159007439Y-74594250D01*
X159050253Y-74594250D01*
X159117292Y-74613935D01*
X159160738Y-74661955D01*
X159164353Y-74669050D01*
X159164354Y-74669054D01*
X159217936Y-74774214D01*
X159221951Y-74782093D01*
X159221954Y-74782097D01*
X159311652Y-74871795D01*
X159311654Y-74871796D01*
X159311658Y-74871800D01*
X159424694Y-74929395D01*
X159424698Y-74929397D01*
X159512116Y-74943241D01*
X159516921Y-74944003D01*
X159518475Y-74944249D01*
X159518481Y-74944250D01*
X159981518Y-74944249D01*
X159981521Y-74944249D01*
X160007587Y-74940120D01*
X160026102Y-74937188D01*
X160095395Y-74946142D01*
X160148847Y-74991138D01*
X160169487Y-75057890D01*
X160169500Y-75059661D01*
X160169500Y-75361476D01*
X160196793Y-75463339D01*
X160212315Y-75490223D01*
X160249520Y-75554663D01*
X160457693Y-75762836D01*
X160663181Y-75968323D01*
X160696666Y-76029646D01*
X160699500Y-76056004D01*
X160699500Y-76372243D01*
X160715279Y-76471871D01*
X160715280Y-76471874D01*
X160715281Y-76471876D01*
X160770440Y-76580131D01*
X160776473Y-76591971D01*
X160776476Y-76591975D01*
X160871774Y-76687273D01*
X160871780Y-76687278D01*
X160881794Y-76692380D01*
X160932590Y-76740354D01*
X160949500Y-76802865D01*
X160949500Y-76914634D01*
X160929815Y-76981673D01*
X160881796Y-77025118D01*
X160871778Y-77030222D01*
X160776476Y-77125524D01*
X160776473Y-77125528D01*
X160715279Y-77245628D01*
X160699500Y-77345256D01*
X160699500Y-77912243D01*
X160715279Y-78011871D01*
X160715280Y-78011874D01*
X160715281Y-78011876D01*
X160776471Y-78131968D01*
X160776473Y-78131971D01*
X160776476Y-78131975D01*
X160871774Y-78227273D01*
X160871780Y-78227278D01*
X160881794Y-78232380D01*
X160932590Y-78280354D01*
X160949500Y-78342865D01*
X160949500Y-78454634D01*
X160929815Y-78521673D01*
X160881796Y-78565118D01*
X160871778Y-78570222D01*
X160776476Y-78665524D01*
X160776473Y-78665528D01*
X160776472Y-78665530D01*
X160726647Y-78763318D01*
X160715279Y-78785628D01*
X160699500Y-78885256D01*
X160699500Y-79452243D01*
X160715279Y-79551871D01*
X160715280Y-79551874D01*
X160715281Y-79551876D01*
X160776472Y-79671970D01*
X160776473Y-79671971D01*
X160776476Y-79671975D01*
X160871774Y-79767273D01*
X160871780Y-79767278D01*
X160881794Y-79772380D01*
X160932590Y-79820354D01*
X160949500Y-79882865D01*
X160949500Y-79994634D01*
X160929815Y-80061673D01*
X160881796Y-80105118D01*
X160871778Y-80110222D01*
X160776476Y-80205524D01*
X160776473Y-80205528D01*
X160715279Y-80325628D01*
X160699500Y-80425256D01*
X160699500Y-80992243D01*
X160715279Y-81091871D01*
X160715280Y-81091874D01*
X160715281Y-81091876D01*
X160748668Y-81157401D01*
X160776473Y-81211971D01*
X160776476Y-81211975D01*
X160871774Y-81307273D01*
X160871778Y-81307276D01*
X160871780Y-81307278D01*
X160991874Y-81368469D01*
X160991876Y-81368469D01*
X160991878Y-81368470D01*
X161091507Y-81384250D01*
X161091512Y-81384250D01*
X161608493Y-81384250D01*
X161708121Y-81368470D01*
X161708121Y-81368469D01*
X161708126Y-81368469D01*
X161828220Y-81307278D01*
X161923528Y-81211970D01*
X161980017Y-81101103D01*
X162027989Y-81050310D01*
X162095810Y-81033515D01*
X162161945Y-81056052D01*
X162205397Y-81110767D01*
X162214500Y-81157401D01*
X162214500Y-81284752D01*
X162226131Y-81343229D01*
X162226132Y-81343230D01*
X162270447Y-81409552D01*
X162336769Y-81453867D01*
X162336770Y-81453868D01*
X162395247Y-81465499D01*
X162395250Y-81465500D01*
X162395252Y-81465500D01*
X162760500Y-81465500D01*
X162827539Y-81485185D01*
X162873294Y-81537989D01*
X162884500Y-81589500D01*
X162884500Y-82003811D01*
X162864815Y-82070850D01*
X162848181Y-82091492D01*
X162421492Y-82518181D01*
X162360169Y-82551666D01*
X162333811Y-82554500D01*
X161390751Y-82554500D01*
X161307966Y-82576682D01*
X161307963Y-82576683D01*
X161255867Y-82606761D01*
X161255866Y-82606762D01*
X161233743Y-82619534D01*
X161233740Y-82619536D01*
X159710004Y-84143271D01*
X159648681Y-84176756D01*
X159578989Y-84171772D01*
X159564918Y-84165502D01*
X159024909Y-83883466D01*
X158970613Y-83855108D01*
X158944481Y-83836834D01*
X158853966Y-83754319D01*
X158790128Y-83696123D01*
X158610453Y-83584872D01*
X158610452Y-83584871D01*
X158466365Y-83529052D01*
X158413395Y-83508532D01*
X158205664Y-83469700D01*
X157994336Y-83469700D01*
X157786605Y-83508532D01*
X157786602Y-83508532D01*
X157786602Y-83508533D01*
X157589547Y-83584871D01*
X157589546Y-83584872D01*
X157409870Y-83696124D01*
X157253699Y-83838491D01*
X157126344Y-84007137D01*
X157032147Y-84196309D01*
X157032144Y-84196315D01*
X156974314Y-84399570D01*
X156974313Y-84399573D01*
X156954815Y-84609999D01*
X156954815Y-84610000D01*
X156974313Y-84820426D01*
X156974314Y-84820429D01*
X157032144Y-85023684D01*
X157032147Y-85023690D01*
X157126344Y-85212862D01*
X157253699Y-85381508D01*
X157316615Y-85438863D01*
X157352897Y-85498574D01*
X157351136Y-85568422D01*
X157311893Y-85626229D01*
X157247626Y-85653644D01*
X157233077Y-85654500D01*
X157065947Y-85654500D01*
X156998908Y-85634815D01*
X156953153Y-85582011D01*
X156948661Y-85570750D01*
X156798552Y-85133347D01*
X156695490Y-84833034D01*
X156689306Y-84781348D01*
X156705185Y-84610000D01*
X156685686Y-84399573D01*
X156661189Y-84313475D01*
X156627855Y-84196315D01*
X156627852Y-84196309D01*
X156583211Y-84106658D01*
X156533656Y-84007138D01*
X156432249Y-83872853D01*
X156406300Y-83838491D01*
X156250129Y-83696124D01*
X156250128Y-83696123D01*
X156070453Y-83584872D01*
X156070452Y-83584871D01*
X155926365Y-83529052D01*
X155873395Y-83508532D01*
X155665664Y-83469700D01*
X155454336Y-83469700D01*
X155246605Y-83508532D01*
X155246602Y-83508532D01*
X155246602Y-83508533D01*
X155049547Y-83584871D01*
X155049546Y-83584872D01*
X154869870Y-83696124D01*
X154713699Y-83838491D01*
X154586344Y-84007137D01*
X154492147Y-84196309D01*
X154492144Y-84196315D01*
X154434314Y-84399570D01*
X154434313Y-84399573D01*
X154414815Y-84609999D01*
X154414815Y-84610000D01*
X154434313Y-84820426D01*
X154434314Y-84820429D01*
X154492144Y-85023684D01*
X154492147Y-85023689D01*
X154586344Y-85212862D01*
X154713698Y-85381506D01*
X154826943Y-85484741D01*
X154863223Y-85544452D01*
X154864127Y-85548058D01*
X154866029Y-85556168D01*
X154919405Y-85630432D01*
X154924724Y-85635128D01*
X154926119Y-85636359D01*
X154995413Y-85676672D01*
X155819405Y-85959450D01*
X156515030Y-86198175D01*
X156572050Y-86238555D01*
X156598187Y-86303352D01*
X156585144Y-86371993D01*
X156537060Y-86422686D01*
X156474780Y-86439461D01*
X142461129Y-86439461D01*
X142394090Y-86419776D01*
X142348335Y-86366972D01*
X142341105Y-86342876D01*
X142340324Y-86343062D01*
X142339196Y-86338320D01*
X142276058Y-86142717D01*
X142276053Y-86142701D01*
X142276052Y-86142699D01*
X142276051Y-86142696D01*
X142182968Y-85959435D01*
X142182962Y-85959424D01*
X142062248Y-85793057D01*
X142062246Y-85793054D01*
X141916890Y-85647707D01*
X141750509Y-85526996D01*
X141750502Y-85526992D01*
X141750497Y-85526989D01*
X141567236Y-85433922D01*
X141567232Y-85433920D01*
X141567231Y-85433920D01*
X141371609Y-85370787D01*
X141371602Y-85370785D01*
X141366859Y-85369658D01*
X141367348Y-85367597D01*
X141312153Y-85341579D01*
X141275094Y-85282347D01*
X141270485Y-85248856D01*
X141270485Y-85100000D01*
X142724353Y-85100000D01*
X142744834Y-85242456D01*
X142804622Y-85373371D01*
X142804623Y-85373373D01*
X142898872Y-85482143D01*
X143019947Y-85559953D01*
X143019950Y-85559954D01*
X143019949Y-85559954D01*
X143158036Y-85600499D01*
X143158038Y-85600500D01*
X143158039Y-85600500D01*
X143301962Y-85600500D01*
X143301962Y-85600499D01*
X143440053Y-85559953D01*
X143561128Y-85482143D01*
X143655377Y-85373373D01*
X143715165Y-85242457D01*
X143735647Y-85100000D01*
X143715165Y-84957543D01*
X143655377Y-84826627D01*
X143561128Y-84717857D01*
X143440053Y-84640047D01*
X143440051Y-84640046D01*
X143440049Y-84640045D01*
X143440050Y-84640045D01*
X143301963Y-84599500D01*
X143301961Y-84599500D01*
X143158039Y-84599500D01*
X143158036Y-84599500D01*
X143019949Y-84640045D01*
X142898873Y-84717856D01*
X142804623Y-84826626D01*
X142804622Y-84826628D01*
X142744834Y-84957543D01*
X142724353Y-85100000D01*
X141270485Y-85100000D01*
X141270485Y-82449998D01*
X145214318Y-82449998D01*
X145214318Y-82450001D01*
X145234956Y-82606761D01*
X145252974Y-82650263D01*
X145260725Y-82677328D01*
X145262223Y-82686316D01*
X145262225Y-82686323D01*
X145486489Y-83279580D01*
X145494500Y-83323426D01*
X145494500Y-83757163D01*
X145490276Y-83789248D01*
X145489500Y-83792147D01*
X145489500Y-83792148D01*
X145489500Y-83883466D01*
X145469815Y-83950505D01*
X145421796Y-83993950D01*
X145376656Y-84016950D01*
X145286954Y-84106652D01*
X145286951Y-84106657D01*
X145229352Y-84219698D01*
X145214500Y-84313475D01*
X145214500Y-84926517D01*
X145225292Y-84994657D01*
X145229354Y-85020304D01*
X145286950Y-85133342D01*
X145286952Y-85133344D01*
X145286954Y-85133347D01*
X145376652Y-85223045D01*
X145376654Y-85223046D01*
X145376658Y-85223050D01*
X145489694Y-85280645D01*
X145489698Y-85280647D01*
X145583475Y-85295499D01*
X145583481Y-85295500D01*
X146046518Y-85295499D01*
X146140304Y-85280646D01*
X146253342Y-85223050D01*
X146343050Y-85133342D01*
X146400646Y-85020304D01*
X146400646Y-85020302D01*
X146400647Y-85020301D01*
X146415499Y-84926524D01*
X146415500Y-84926519D01*
X146415499Y-84313482D01*
X146415498Y-84313475D01*
X146864500Y-84313475D01*
X146864500Y-84926517D01*
X146875292Y-84994657D01*
X146879354Y-85020304D01*
X146936950Y-85133342D01*
X146936952Y-85133344D01*
X146936954Y-85133347D01*
X147026652Y-85223045D01*
X147026654Y-85223046D01*
X147026658Y-85223050D01*
X147139694Y-85280645D01*
X147139698Y-85280647D01*
X147233475Y-85295499D01*
X147233481Y-85295500D01*
X147696518Y-85295499D01*
X147790304Y-85280646D01*
X147903342Y-85223050D01*
X147907181Y-85219211D01*
X149545001Y-85219211D01*
X149560529Y-85317259D01*
X149560529Y-85317260D01*
X149620752Y-85435454D01*
X149620755Y-85435458D01*
X149714541Y-85529244D01*
X149714545Y-85529247D01*
X149832740Y-85589470D01*
X149930788Y-85604999D01*
X149970000Y-85604999D01*
X150470000Y-85604999D01*
X150509211Y-85604999D01*
X150509211Y-85604998D01*
X150607259Y-85589470D01*
X150607260Y-85589470D01*
X150725454Y-85529247D01*
X150725458Y-85529244D01*
X150819244Y-85435458D01*
X150819247Y-85435454D01*
X150879470Y-85317259D01*
X150895000Y-85219207D01*
X150895000Y-85217500D01*
X150470000Y-85217500D01*
X150470000Y-85604999D01*
X149970000Y-85604999D01*
X149970000Y-85217500D01*
X149545001Y-85217500D01*
X149545001Y-85219211D01*
X147907181Y-85219211D01*
X147993050Y-85133342D01*
X148050646Y-85020304D01*
X148057798Y-84975144D01*
X148087725Y-84912012D01*
X148118270Y-84887156D01*
X148129862Y-84880465D01*
X148294535Y-84715792D01*
X149545000Y-84715792D01*
X149545000Y-84717500D01*
X149970000Y-84717500D01*
X150470000Y-84717500D01*
X150894999Y-84717500D01*
X150894999Y-84715788D01*
X150879470Y-84617740D01*
X150879470Y-84617739D01*
X150875526Y-84609999D01*
X151874815Y-84609999D01*
X151874815Y-84610000D01*
X151894313Y-84820426D01*
X151894314Y-84820429D01*
X151952144Y-85023684D01*
X151952147Y-85023690D01*
X152046344Y-85212862D01*
X152173699Y-85381508D01*
X152297840Y-85494676D01*
X152329872Y-85523877D01*
X152509547Y-85635128D01*
X152706605Y-85711468D01*
X152914336Y-85750300D01*
X152914338Y-85750300D01*
X153125662Y-85750300D01*
X153125664Y-85750300D01*
X153333395Y-85711468D01*
X153530453Y-85635128D01*
X153710128Y-85523877D01*
X153866302Y-85381506D01*
X153993656Y-85212862D01*
X154087853Y-85023689D01*
X154087853Y-85023686D01*
X154087855Y-85023684D01*
X154142098Y-84833037D01*
X154145686Y-84820427D01*
X154165185Y-84610000D01*
X154145686Y-84399573D01*
X154121189Y-84313475D01*
X154087855Y-84196315D01*
X154087852Y-84196309D01*
X154043211Y-84106658D01*
X153993656Y-84007138D01*
X153892249Y-83872853D01*
X153866300Y-83838491D01*
X153710129Y-83696124D01*
X153710128Y-83696123D01*
X153530453Y-83584872D01*
X153530452Y-83584871D01*
X153386365Y-83529052D01*
X153333395Y-83508532D01*
X153125664Y-83469700D01*
X152914336Y-83469700D01*
X152706605Y-83508532D01*
X152706602Y-83508532D01*
X152706602Y-83508533D01*
X152509547Y-83584871D01*
X152509546Y-83584872D01*
X152329870Y-83696124D01*
X152173699Y-83838491D01*
X152046344Y-84007137D01*
X151952147Y-84196309D01*
X151952144Y-84196315D01*
X151894314Y-84399570D01*
X151894313Y-84399573D01*
X151874815Y-84609999D01*
X150875526Y-84609999D01*
X150819247Y-84499545D01*
X150819244Y-84499541D01*
X150725458Y-84405755D01*
X150725454Y-84405752D01*
X150607259Y-84345529D01*
X150509207Y-84330000D01*
X150470000Y-84330000D01*
X150470000Y-84717500D01*
X149970000Y-84717500D01*
X149970000Y-84330000D01*
X149930799Y-84330000D01*
X149832737Y-84345531D01*
X149714545Y-84405752D01*
X149714541Y-84405755D01*
X149620755Y-84499541D01*
X149620752Y-84499545D01*
X149560529Y-84617740D01*
X149545000Y-84715792D01*
X148294535Y-84715792D01*
X149256008Y-83754319D01*
X149317331Y-83720834D01*
X149343689Y-83718000D01*
X149471619Y-83718000D01*
X149538658Y-83737685D01*
X149582103Y-83785704D01*
X149620341Y-83860749D01*
X149620346Y-83860756D01*
X149714243Y-83954653D01*
X149714245Y-83954654D01*
X149714249Y-83954658D01*
X149832580Y-84014951D01*
X149832581Y-84014951D01*
X149832583Y-84014952D01*
X149832582Y-84014952D01*
X149930749Y-84030500D01*
X149930754Y-84030500D01*
X150509251Y-84030500D01*
X150607417Y-84014952D01*
X150607418Y-84014951D01*
X150607420Y-84014951D01*
X150725751Y-83954658D01*
X150819658Y-83860751D01*
X150879951Y-83742420D01*
X150879951Y-83742418D01*
X150879952Y-83742417D01*
X150895500Y-83644251D01*
X150895500Y-83140748D01*
X150879952Y-83042582D01*
X150879951Y-83042580D01*
X150819658Y-82924249D01*
X150819654Y-82924245D01*
X150819653Y-82924243D01*
X150725756Y-82830346D01*
X150725753Y-82830344D01*
X150725751Y-82830342D01*
X150607420Y-82770049D01*
X150607419Y-82770048D01*
X150607416Y-82770047D01*
X150607417Y-82770047D01*
X150509251Y-82754500D01*
X150509246Y-82754500D01*
X149930754Y-82754500D01*
X149930749Y-82754500D01*
X149832582Y-82770047D01*
X149753692Y-82810244D01*
X149714249Y-82830342D01*
X149714248Y-82830343D01*
X149714243Y-82830346D01*
X149620346Y-82924243D01*
X149620341Y-82924250D01*
X149582103Y-82999296D01*
X149534129Y-83050091D01*
X149471619Y-83067000D01*
X149114647Y-83067000D01*
X149031859Y-83089182D01*
X148957638Y-83132035D01*
X148957635Y-83132037D01*
X148075713Y-84013958D01*
X148014390Y-84047443D01*
X147944698Y-84042459D01*
X147912098Y-84021508D01*
X147911241Y-84022689D01*
X147903345Y-84016953D01*
X147903342Y-84016950D01*
X147826517Y-83977805D01*
X147790301Y-83959352D01*
X147696524Y-83944500D01*
X147233482Y-83944500D01*
X147152519Y-83957323D01*
X147139696Y-83959354D01*
X147026658Y-84016950D01*
X147026657Y-84016951D01*
X147026652Y-84016954D01*
X146936954Y-84106652D01*
X146936951Y-84106657D01*
X146879352Y-84219698D01*
X146864500Y-84313475D01*
X146415498Y-84313475D01*
X146400646Y-84219696D01*
X146343050Y-84106658D01*
X146343046Y-84106654D01*
X146343045Y-84106652D01*
X146253343Y-84016950D01*
X146212582Y-83996181D01*
X146161787Y-83948207D01*
X146144992Y-83880386D01*
X146145500Y-83874557D01*
X146145500Y-83323426D01*
X146153511Y-83279580D01*
X146287833Y-82924249D01*
X146377775Y-82686320D01*
X146379587Y-82675973D01*
X146387165Y-82649922D01*
X146405044Y-82606762D01*
X146425682Y-82450000D01*
X146405044Y-82293238D01*
X146344536Y-82147159D01*
X146248282Y-82021718D01*
X146122841Y-81925464D01*
X145976762Y-81864956D01*
X145976760Y-81864955D01*
X145820001Y-81844318D01*
X145819999Y-81844318D01*
X145663239Y-81864955D01*
X145663237Y-81864956D01*
X145517160Y-81925463D01*
X145391718Y-82021718D01*
X145295463Y-82147160D01*
X145234956Y-82293237D01*
X145234955Y-82293239D01*
X145214318Y-82449998D01*
X141270485Y-82449998D01*
X141270485Y-68031010D01*
X141290170Y-67963971D01*
X141342974Y-67918216D01*
X141367026Y-67911001D01*
X141366839Y-67910211D01*
X141371576Y-67909084D01*
X141371583Y-67909083D01*
X141567208Y-67845964D01*
X141750487Y-67752896D01*
X141916870Y-67632192D01*
X142062225Y-67486848D01*
X142182943Y-67320475D01*
X142276025Y-67137203D01*
X142339160Y-66941583D01*
X142339161Y-66941570D01*
X142340288Y-66936838D01*
X142342359Y-66937330D01*
X142368327Y-66882175D01*
X142427540Y-66845086D01*
X142461090Y-66840461D01*
X146014495Y-66840461D01*
X146081534Y-66860146D01*
G37*
G04 #@! TD.AperFunction*
G04 #@! TA.AperFunction,Conductor*
G36*
X159745954Y-66860146D02*
G01*
X159791709Y-66912950D01*
X159801427Y-66945306D01*
X159801744Y-66947334D01*
X159870286Y-67153418D01*
X159972063Y-67345284D01*
X159972065Y-67345287D01*
X159972066Y-67345288D01*
X160080646Y-67486838D01*
X160104257Y-67517618D01*
X160104264Y-67517625D01*
X160263190Y-67665629D01*
X160263196Y-67665633D01*
X160263198Y-67665635D01*
X160263200Y-67665636D01*
X160444480Y-67785236D01*
X160444495Y-67785244D01*
X160492823Y-67806627D01*
X160643106Y-67873122D01*
X160853548Y-67926844D01*
X161069985Y-67944918D01*
X161286422Y-67926844D01*
X161496864Y-67873122D01*
X161695481Y-67785241D01*
X161876772Y-67665635D01*
X161876776Y-67665630D01*
X161876779Y-67665629D01*
X162035707Y-67517625D01*
X162035709Y-67517622D01*
X162035714Y-67517618D01*
X162167904Y-67345288D01*
X162269682Y-67153421D01*
X162338227Y-66947330D01*
X162338544Y-66945298D01*
X162338904Y-66944535D01*
X162339439Y-66942333D01*
X162339891Y-66942442D01*
X162368351Y-66882108D01*
X162427591Y-66845062D01*
X162461055Y-66840461D01*
X179678924Y-66840461D01*
X179745963Y-66860146D01*
X179791718Y-66912950D01*
X179798932Y-66937007D01*
X179799723Y-66936820D01*
X179800855Y-66941581D01*
X179863976Y-67137178D01*
X179863984Y-67137198D01*
X179957051Y-67320459D01*
X179975065Y-67345288D01*
X180077761Y-67486841D01*
X180223104Y-67632192D01*
X180389458Y-67752896D01*
X180389478Y-67752910D01*
X180534334Y-67826483D01*
X180572743Y-67845991D01*
X180768357Y-67909130D01*
X180768360Y-67909130D01*
X180773100Y-67910258D01*
X180772609Y-67912320D01*
X180827796Y-67938320D01*
X180864869Y-67997542D01*
X180869485Y-68031061D01*
X180869485Y-85248878D01*
X180849800Y-85315917D01*
X180796996Y-85361672D01*
X180772938Y-85368904D01*
X180773122Y-85369678D01*
X180768365Y-85370809D01*
X180572749Y-85433945D01*
X180572735Y-85433951D01*
X180389486Y-85527019D01*
X180389476Y-85527025D01*
X180223099Y-85647735D01*
X180077760Y-85793071D01*
X180077753Y-85793079D01*
X179957041Y-85959448D01*
X179957036Y-85959456D01*
X179863960Y-86142712D01*
X179863958Y-86142716D01*
X179800818Y-86338329D01*
X179799689Y-86343077D01*
X179797632Y-86342587D01*
X179771611Y-86397790D01*
X179712381Y-86434852D01*
X179678886Y-86439461D01*
X162461056Y-86439461D01*
X162394017Y-86419776D01*
X162348262Y-86366972D01*
X162338545Y-86334619D01*
X162338228Y-86332594D01*
X162338228Y-86332592D01*
X162269683Y-86126501D01*
X162167906Y-85934633D01*
X162142218Y-85901145D01*
X162035721Y-85762310D01*
X162035707Y-85762296D01*
X161876780Y-85614291D01*
X161876776Y-85614288D01*
X161695485Y-85494681D01*
X161695476Y-85494676D01*
X161496867Y-85406800D01*
X161496865Y-85406799D01*
X161286423Y-85353077D01*
X161286422Y-85353076D01*
X161286419Y-85353076D01*
X161094100Y-85337016D01*
X161069986Y-85335003D01*
X161069985Y-85335003D01*
X160853551Y-85353076D01*
X160643105Y-85406799D01*
X160485480Y-85476542D01*
X160472824Y-85482143D01*
X160444487Y-85494681D01*
X160444483Y-85494683D01*
X160321959Y-85575519D01*
X160255161Y-85596006D01*
X160187890Y-85577127D01*
X160141505Y-85524876D01*
X160130732Y-85455842D01*
X160158993Y-85391942D01*
X160165980Y-85384346D01*
X161858508Y-83691819D01*
X161919831Y-83658334D01*
X161946189Y-83655500D01*
X162872851Y-83655500D01*
X162872853Y-83655500D01*
X162955639Y-83633318D01*
X163029862Y-83590465D01*
X164840625Y-81779702D01*
X176220000Y-81779702D01*
X176231602Y-81838033D01*
X176231603Y-81838034D01*
X176275808Y-81904191D01*
X176341965Y-81948396D01*
X176341966Y-81948397D01*
X176400297Y-81959999D01*
X176400301Y-81960000D01*
X177270000Y-81960000D01*
X177770000Y-81960000D01*
X178639699Y-81960000D01*
X178639702Y-81959999D01*
X178698033Y-81948397D01*
X178698034Y-81948396D01*
X178764191Y-81904191D01*
X178808396Y-81838034D01*
X178808397Y-81838033D01*
X178819999Y-81779702D01*
X178820000Y-81779699D01*
X178820000Y-81485000D01*
X177770000Y-81485000D01*
X177770000Y-81960000D01*
X177270000Y-81960000D01*
X177270000Y-81485000D01*
X176220000Y-81485000D01*
X176220000Y-81779702D01*
X164840625Y-81779702D01*
X165020465Y-81599862D01*
X165063318Y-81525639D01*
X165085500Y-81442853D01*
X165085500Y-81357147D01*
X165085500Y-81284702D01*
X171535000Y-81284702D01*
X171546602Y-81343033D01*
X171546603Y-81343034D01*
X171590808Y-81409191D01*
X171656965Y-81453396D01*
X171656966Y-81453397D01*
X171715297Y-81464999D01*
X171715301Y-81465000D01*
X172280000Y-81465000D01*
X172780000Y-81465000D01*
X173344699Y-81465000D01*
X173344702Y-81464999D01*
X173403033Y-81453397D01*
X173403034Y-81453396D01*
X173469191Y-81409191D01*
X173513396Y-81343034D01*
X173513397Y-81343033D01*
X173524999Y-81284702D01*
X173525000Y-81284699D01*
X173525000Y-81130000D01*
X172780000Y-81130000D01*
X172780000Y-81465000D01*
X172280000Y-81465000D01*
X172280000Y-81130000D01*
X171535000Y-81130000D01*
X171535000Y-81284702D01*
X165085500Y-81284702D01*
X165085500Y-79358997D01*
X171534500Y-79358997D01*
X171534500Y-80168502D01*
X171546131Y-80226979D01*
X171546132Y-80226980D01*
X171563808Y-80253434D01*
X171584686Y-80320112D01*
X171566201Y-80387492D01*
X171563809Y-80391214D01*
X171546604Y-80416963D01*
X171546602Y-80416966D01*
X171535000Y-80475297D01*
X171535000Y-80630000D01*
X173525000Y-80630000D01*
X173525000Y-80628250D01*
X173544685Y-80561211D01*
X173597489Y-80515456D01*
X173649000Y-80504250D01*
X176064184Y-80504250D01*
X176070483Y-80502996D01*
X176082934Y-80500520D01*
X176152524Y-80506744D01*
X176207704Y-80549605D01*
X176230951Y-80615494D01*
X176228747Y-80646326D01*
X176220000Y-80690303D01*
X176220000Y-80985000D01*
X178820000Y-80985000D01*
X178820000Y-80690301D01*
X178819999Y-80690297D01*
X178808397Y-80631966D01*
X178808396Y-80631965D01*
X178764191Y-80565808D01*
X178698034Y-80521603D01*
X178696542Y-80520985D01*
X178693791Y-80518768D01*
X178687881Y-80514819D01*
X178688234Y-80514289D01*
X178642141Y-80477141D01*
X178620079Y-80410846D01*
X178620000Y-80406426D01*
X178620000Y-79113573D01*
X178639685Y-79046534D01*
X178692489Y-79000779D01*
X178696550Y-78999011D01*
X178698036Y-78998395D01*
X178764191Y-78954191D01*
X178808396Y-78888034D01*
X178808397Y-78888033D01*
X178819999Y-78829702D01*
X178820000Y-78829699D01*
X178820000Y-78535000D01*
X176220000Y-78535000D01*
X176220000Y-78829696D01*
X176230300Y-78881481D01*
X176224071Y-78951073D01*
X176181208Y-79006249D01*
X176115318Y-79029493D01*
X176084494Y-79027289D01*
X176064185Y-79023250D01*
X176064183Y-79023250D01*
X174706333Y-79023250D01*
X174639294Y-79003565D01*
X174593539Y-78950761D01*
X174583595Y-78881603D01*
X174584716Y-78875059D01*
X174594999Y-78823359D01*
X174595000Y-78823357D01*
X174595000Y-78805000D01*
X173945000Y-78805000D01*
X173945000Y-78823359D01*
X173955284Y-78875059D01*
X173949057Y-78944650D01*
X173906194Y-78999828D01*
X173840304Y-79023072D01*
X173833667Y-79023250D01*
X173609000Y-79023250D01*
X173541961Y-79003565D01*
X173496206Y-78950761D01*
X173485000Y-78899250D01*
X173485000Y-78897500D01*
X171575001Y-78897500D01*
X171575001Y-79048257D01*
X171584283Y-79094928D01*
X171587862Y-79100284D01*
X171608740Y-79166962D01*
X171590256Y-79234342D01*
X171587862Y-79238067D01*
X171546132Y-79300519D01*
X171546131Y-79300520D01*
X171534500Y-79358997D01*
X165085500Y-79358997D01*
X165085500Y-78536639D01*
X173945000Y-78536639D01*
X173945000Y-78555000D01*
X174145000Y-78555000D01*
X174395000Y-78555000D01*
X174595000Y-78555000D01*
X174595000Y-78536643D01*
X174594999Y-78536639D01*
X174579771Y-78460081D01*
X174579769Y-78460077D01*
X174521752Y-78373247D01*
X174434924Y-78315230D01*
X174395000Y-78307288D01*
X174395000Y-78555000D01*
X174145000Y-78555000D01*
X174145000Y-78307288D01*
X174105075Y-78315230D01*
X174018247Y-78373247D01*
X173960230Y-78460077D01*
X173960228Y-78460081D01*
X173945000Y-78536639D01*
X165085500Y-78536639D01*
X165085500Y-76892855D01*
X165085501Y-76892842D01*
X165085501Y-76797148D01*
X165069069Y-76735826D01*
X165063318Y-76714361D01*
X165063317Y-76714360D01*
X165063317Y-76714358D01*
X165063315Y-76714355D01*
X165028520Y-76654089D01*
X165028518Y-76654086D01*
X165020467Y-76640141D01*
X165020466Y-76640140D01*
X165020465Y-76640138D01*
X164959862Y-76579535D01*
X164959861Y-76579534D01*
X164955531Y-76575204D01*
X164955520Y-76575194D01*
X164534864Y-76154537D01*
X164534863Y-76154536D01*
X164534862Y-76154535D01*
X164497750Y-76133108D01*
X164460640Y-76111682D01*
X164419246Y-76100591D01*
X164377853Y-76089500D01*
X164377852Y-76089500D01*
X164323028Y-76089500D01*
X164255989Y-76069815D01*
X164210234Y-76017011D01*
X164201411Y-75989691D01*
X164193868Y-75951770D01*
X164193867Y-75951769D01*
X164182209Y-75934321D01*
X164161331Y-75867643D01*
X164179816Y-75800263D01*
X164231795Y-75753573D01*
X164300765Y-75742397D01*
X164329152Y-75749439D01*
X164612429Y-75856525D01*
X164622777Y-75858338D01*
X164648827Y-75865916D01*
X164663412Y-75871957D01*
X164691988Y-75883794D01*
X164828111Y-75901714D01*
X164848749Y-75904432D01*
X164848750Y-75904432D01*
X164848751Y-75904432D01*
X164914537Y-75895771D01*
X165005512Y-75883794D01*
X165151591Y-75823286D01*
X165277032Y-75727032D01*
X165373286Y-75601591D01*
X165433794Y-75455512D01*
X165454432Y-75298750D01*
X165450072Y-75265635D01*
X165433794Y-75141989D01*
X165433794Y-75141988D01*
X165373286Y-74995909D01*
X165277032Y-74870468D01*
X165151591Y-74774214D01*
X165139481Y-74769198D01*
X165005512Y-74713706D01*
X165005510Y-74713705D01*
X164848751Y-74693068D01*
X164848749Y-74693068D01*
X164691989Y-74713705D01*
X164691984Y-74713707D01*
X164648485Y-74731725D01*
X164621411Y-74739477D01*
X164612430Y-74740974D01*
X164612424Y-74740976D01*
X164612421Y-74740977D01*
X164329158Y-74848056D01*
X164259489Y-74853348D01*
X164198019Y-74820135D01*
X164164263Y-74758960D01*
X164168940Y-74689247D01*
X164182208Y-74663178D01*
X164193867Y-74645731D01*
X164194625Y-74641923D01*
X164205499Y-74587252D01*
X164205500Y-74587250D01*
X164205500Y-73777749D01*
X164205499Y-73777747D01*
X164193868Y-73719270D01*
X164193867Y-73719268D01*
X164176493Y-73693267D01*
X164155614Y-73626590D01*
X164174098Y-73559209D01*
X164176493Y-73555483D01*
X164193867Y-73529481D01*
X164193868Y-73529479D01*
X164205499Y-73471002D01*
X164205500Y-73471000D01*
X164205500Y-72661499D01*
X164205499Y-72661497D01*
X164193868Y-72603020D01*
X164193867Y-72603019D01*
X164176191Y-72576565D01*
X164155313Y-72509888D01*
X164173797Y-72442508D01*
X164176192Y-72438781D01*
X164193397Y-72413032D01*
X164204999Y-72354702D01*
X164205000Y-72354699D01*
X164205000Y-72200000D01*
X162215000Y-72200000D01*
X162215000Y-72262082D01*
X162195315Y-72329121D01*
X162142511Y-72374876D01*
X162073353Y-72384820D01*
X162009797Y-72355795D01*
X161980516Y-72318379D01*
X161928050Y-72215408D01*
X161928046Y-72215404D01*
X161928045Y-72215402D01*
X161838347Y-72125704D01*
X161838344Y-72125702D01*
X161838342Y-72125700D01*
X161740630Y-72075913D01*
X161725301Y-72068102D01*
X161631524Y-72053250D01*
X161168482Y-72053250D01*
X161104581Y-72063371D01*
X161074696Y-72068104D01*
X161074694Y-72068104D01*
X161065058Y-72069631D01*
X161064602Y-72066756D01*
X161010356Y-72068292D01*
X160950533Y-72032195D01*
X160934525Y-72010375D01*
X160920400Y-71985910D01*
X160890480Y-71934087D01*
X160501690Y-71545297D01*
X162215000Y-71545297D01*
X162215000Y-71700000D01*
X162960000Y-71700000D01*
X163460000Y-71700000D01*
X164205000Y-71700000D01*
X164205000Y-71545301D01*
X164204999Y-71545297D01*
X164193397Y-71486966D01*
X164193396Y-71486965D01*
X164149191Y-71420808D01*
X164083034Y-71376603D01*
X164083033Y-71376602D01*
X164024702Y-71365000D01*
X163460000Y-71365000D01*
X163460000Y-71700000D01*
X162960000Y-71700000D01*
X162960000Y-71365000D01*
X162395297Y-71365000D01*
X162336966Y-71376602D01*
X162336965Y-71376603D01*
X162270808Y-71420808D01*
X162226603Y-71486965D01*
X162226602Y-71486966D01*
X162215000Y-71545297D01*
X160501690Y-71545297D01*
X160375913Y-71419520D01*
X160330250Y-71393156D01*
X160284589Y-71366793D01*
X160233657Y-71353146D01*
X160182727Y-71339500D01*
X160182726Y-71339500D01*
X153847254Y-71339500D01*
X153780215Y-71319815D01*
X153759573Y-71303181D01*
X153496819Y-71040426D01*
X153463334Y-70979103D01*
X153460500Y-70952745D01*
X153460500Y-69808791D01*
X153480185Y-69741752D01*
X153532989Y-69695997D01*
X153539690Y-69693171D01*
X153560453Y-69685128D01*
X153740128Y-69573877D01*
X153896302Y-69431506D01*
X154023656Y-69262862D01*
X154117853Y-69073689D01*
X154117853Y-69073686D01*
X154117855Y-69073684D01*
X154150968Y-68957298D01*
X154175686Y-68870427D01*
X154195185Y-68660000D01*
X154195185Y-68659999D01*
X154444815Y-68659999D01*
X154444815Y-68660000D01*
X154464313Y-68870426D01*
X154464314Y-68870429D01*
X154522144Y-69073684D01*
X154522147Y-69073690D01*
X154616344Y-69262862D01*
X154743699Y-69431508D01*
X154851641Y-69529909D01*
X154899872Y-69573877D01*
X155079547Y-69685128D01*
X155185294Y-69726094D01*
X155240695Y-69768665D01*
X155264286Y-69834432D01*
X155264500Y-69841720D01*
X155264500Y-69872852D01*
X155286682Y-69955640D01*
X155290849Y-69962857D01*
X155329535Y-70029862D01*
X155329537Y-70029864D01*
X155799535Y-70499862D01*
X156145194Y-70845520D01*
X156145204Y-70845531D01*
X156210139Y-70910466D01*
X156218515Y-70915301D01*
X156232208Y-70923207D01*
X156284361Y-70953318D01*
X156367147Y-70975501D01*
X156367149Y-70975501D01*
X156460449Y-70975501D01*
X156460465Y-70975500D01*
X161732851Y-70975500D01*
X161732853Y-70975500D01*
X161815639Y-70953318D01*
X161889862Y-70910465D01*
X163658508Y-69141819D01*
X163719831Y-69108334D01*
X163746189Y-69105500D01*
X165855253Y-69105500D01*
X165922292Y-69125185D01*
X165965738Y-69173205D01*
X165969353Y-69180300D01*
X165969354Y-69180304D01*
X166026950Y-69293342D01*
X166026951Y-69293343D01*
X166026954Y-69293347D01*
X166116652Y-69383045D01*
X166116654Y-69383046D01*
X166116658Y-69383050D01*
X166211758Y-69431506D01*
X166229698Y-69440647D01*
X166323475Y-69455499D01*
X166323481Y-69455500D01*
X166786518Y-69455499D01*
X166880304Y-69440646D01*
X166993342Y-69383050D01*
X167083050Y-69293342D01*
X167140646Y-69180304D01*
X167140646Y-69180302D01*
X167140647Y-69180301D01*
X167155499Y-69086524D01*
X167155500Y-69086519D01*
X167155499Y-68473482D01*
X167155498Y-68473475D01*
X167604500Y-68473475D01*
X167604500Y-69086517D01*
X167613259Y-69141819D01*
X167619354Y-69180304D01*
X167676950Y-69293342D01*
X167676952Y-69293344D01*
X167676954Y-69293347D01*
X167766652Y-69383045D01*
X167766654Y-69383046D01*
X167766658Y-69383050D01*
X167861758Y-69431506D01*
X167879698Y-69440647D01*
X167973475Y-69455499D01*
X167973481Y-69455500D01*
X168436518Y-69455499D01*
X168530304Y-69440646D01*
X168643342Y-69383050D01*
X168733050Y-69293342D01*
X168790646Y-69180304D01*
X168790646Y-69180303D01*
X168794263Y-69173205D01*
X168842238Y-69122409D01*
X168904748Y-69105500D01*
X169223811Y-69105500D01*
X169290850Y-69125185D01*
X169311492Y-69141819D01*
X169638181Y-69468508D01*
X169671666Y-69529831D01*
X169674500Y-69556189D01*
X169674500Y-76003397D01*
X169674500Y-76089103D01*
X169680550Y-76111682D01*
X169696682Y-76171890D01*
X169718108Y-76209000D01*
X169739535Y-76246112D01*
X171285138Y-77791715D01*
X171359361Y-77834568D01*
X171442147Y-77856750D01*
X171442149Y-77856750D01*
X171448565Y-77858469D01*
X171508226Y-77894833D01*
X171538090Y-77954051D01*
X171546132Y-77994480D01*
X171587861Y-78056932D01*
X171608739Y-78123610D01*
X171590254Y-78190990D01*
X171587864Y-78194710D01*
X171584282Y-78200070D01*
X171575000Y-78246734D01*
X171575000Y-78397500D01*
X173484999Y-78397500D01*
X173484999Y-78246742D01*
X173475716Y-78200070D01*
X173472138Y-78194716D01*
X173451259Y-78128039D01*
X173469742Y-78060659D01*
X173472107Y-78056977D01*
X173513867Y-77994481D01*
X173525500Y-77935998D01*
X173525500Y-77740297D01*
X176220000Y-77740297D01*
X176220000Y-78035000D01*
X177270000Y-78035000D01*
X177770000Y-78035000D01*
X178820000Y-78035000D01*
X178820000Y-77740301D01*
X178819999Y-77740297D01*
X178808397Y-77681966D01*
X178808396Y-77681965D01*
X178764191Y-77615808D01*
X178698034Y-77571603D01*
X178698033Y-77571602D01*
X178639702Y-77560000D01*
X177770000Y-77560000D01*
X177770000Y-78035000D01*
X177270000Y-78035000D01*
X177270000Y-77560000D01*
X176400297Y-77560000D01*
X176341966Y-77571602D01*
X176341965Y-77571603D01*
X176275808Y-77615808D01*
X176231603Y-77681965D01*
X176231602Y-77681966D01*
X176220000Y-77740297D01*
X173525500Y-77740297D01*
X173525500Y-77126502D01*
X173525500Y-77126499D01*
X173525499Y-77126497D01*
X173513868Y-77068020D01*
X173513867Y-77068018D01*
X173496493Y-77042017D01*
X173475614Y-76975340D01*
X173494098Y-76907959D01*
X173496493Y-76904233D01*
X173513867Y-76878231D01*
X173513868Y-76878229D01*
X173525499Y-76819752D01*
X173525500Y-76819750D01*
X173525500Y-76010249D01*
X173525499Y-76010247D01*
X173513868Y-75951770D01*
X173513867Y-75951768D01*
X173496493Y-75925767D01*
X173475614Y-75859090D01*
X173494098Y-75791709D01*
X173496493Y-75787983D01*
X173513867Y-75761981D01*
X173513868Y-75761979D01*
X173525499Y-75703502D01*
X173525500Y-75703500D01*
X173525500Y-74893999D01*
X173525499Y-74893997D01*
X173513868Y-74835520D01*
X173513867Y-74835518D01*
X173496493Y-74809517D01*
X173475614Y-74742840D01*
X173494098Y-74675459D01*
X173496493Y-74671733D01*
X173513867Y-74645731D01*
X173513868Y-74645729D01*
X173525499Y-74587252D01*
X173525500Y-74587250D01*
X173525500Y-73777749D01*
X173525499Y-73777747D01*
X173513868Y-73719270D01*
X173513867Y-73719268D01*
X173496493Y-73693267D01*
X173475614Y-73626590D01*
X173494098Y-73559209D01*
X173496493Y-73555483D01*
X173513867Y-73529481D01*
X173513868Y-73529479D01*
X173525499Y-73471002D01*
X173525500Y-73471000D01*
X173525500Y-72661499D01*
X173525499Y-72661497D01*
X173513868Y-72603020D01*
X173513867Y-72603018D01*
X173496493Y-72577017D01*
X173475614Y-72510340D01*
X173494098Y-72442959D01*
X173496493Y-72439233D01*
X173513867Y-72413231D01*
X173513868Y-72413229D01*
X173525499Y-72354752D01*
X173525500Y-72354750D01*
X173525500Y-71545249D01*
X173525499Y-71545247D01*
X173513868Y-71486770D01*
X173513867Y-71486769D01*
X173469552Y-71420447D01*
X173403230Y-71376132D01*
X173403229Y-71376131D01*
X173344752Y-71364500D01*
X173344748Y-71364500D01*
X171715252Y-71364500D01*
X171715247Y-71364500D01*
X171656770Y-71376131D01*
X171656769Y-71376132D01*
X171590447Y-71420447D01*
X171546132Y-71486769D01*
X171546131Y-71486770D01*
X171534500Y-71545247D01*
X171534500Y-72354752D01*
X171546131Y-72413229D01*
X171563508Y-72439235D01*
X171584385Y-72505913D01*
X171565900Y-72573293D01*
X171563508Y-72577015D01*
X171546132Y-72603020D01*
X171546131Y-72603020D01*
X171534500Y-72661497D01*
X171534500Y-73471002D01*
X171546131Y-73529479D01*
X171563508Y-73555485D01*
X171584385Y-73622163D01*
X171565900Y-73689543D01*
X171563508Y-73693265D01*
X171546132Y-73719270D01*
X171546131Y-73719270D01*
X171534500Y-73777747D01*
X171534500Y-74587252D01*
X171546131Y-74645729D01*
X171563508Y-74671735D01*
X171584385Y-74738413D01*
X171565900Y-74805793D01*
X171563508Y-74809515D01*
X171546132Y-74835520D01*
X171546131Y-74835520D01*
X171534500Y-74893997D01*
X171534500Y-75703502D01*
X171546131Y-75761979D01*
X171563508Y-75787985D01*
X171584385Y-75854663D01*
X171565900Y-75922043D01*
X171563508Y-75925765D01*
X171546132Y-75951770D01*
X171546131Y-75951770D01*
X171534500Y-76010247D01*
X171534500Y-76821061D01*
X171514815Y-76888100D01*
X171462011Y-76933855D01*
X171392853Y-76943799D01*
X171329297Y-76914774D01*
X171322819Y-76908742D01*
X170361819Y-75947742D01*
X170328334Y-75886419D01*
X170325500Y-75860061D01*
X170325500Y-69327150D01*
X170325499Y-69327143D01*
X170312757Y-69279588D01*
X170303318Y-69244361D01*
X170260465Y-69170138D01*
X169609862Y-68519535D01*
X169559193Y-68490281D01*
X169535640Y-68476682D01*
X169488006Y-68463919D01*
X169452853Y-68454500D01*
X169452852Y-68454500D01*
X168904747Y-68454500D01*
X168837708Y-68434815D01*
X168794262Y-68386795D01*
X168790646Y-68379698D01*
X168790646Y-68379696D01*
X168733050Y-68266658D01*
X168733048Y-68266656D01*
X168733045Y-68266652D01*
X168643347Y-68176954D01*
X168643344Y-68176952D01*
X168643342Y-68176950D01*
X168561951Y-68135479D01*
X168530301Y-68119352D01*
X168436524Y-68104500D01*
X167973482Y-68104500D01*
X167892519Y-68117323D01*
X167879696Y-68119354D01*
X167766658Y-68176950D01*
X167766657Y-68176951D01*
X167766652Y-68176954D01*
X167676954Y-68266652D01*
X167676951Y-68266657D01*
X167619352Y-68379698D01*
X167604500Y-68473475D01*
X167155498Y-68473475D01*
X167140646Y-68379696D01*
X167083050Y-68266658D01*
X167083046Y-68266654D01*
X167083045Y-68266652D01*
X166993347Y-68176954D01*
X166993344Y-68176952D01*
X166993342Y-68176950D01*
X166911951Y-68135479D01*
X166880301Y-68119352D01*
X166786524Y-68104500D01*
X166323482Y-68104500D01*
X166242519Y-68117323D01*
X166229696Y-68119354D01*
X166116658Y-68176950D01*
X166116657Y-68176951D01*
X166116652Y-68176954D01*
X166026954Y-68266652D01*
X166026952Y-68266656D01*
X166026950Y-68266658D01*
X165969354Y-68379696D01*
X165965737Y-68386795D01*
X165917762Y-68437591D01*
X165855252Y-68454500D01*
X163517147Y-68454500D01*
X163434359Y-68476682D01*
X163412740Y-68489165D01*
X163410808Y-68490281D01*
X163395753Y-68498972D01*
X163360138Y-68519534D01*
X163360136Y-68519536D01*
X161591492Y-70288181D01*
X161530169Y-70321666D01*
X161503811Y-70324500D01*
X156596188Y-70324500D01*
X156529149Y-70304815D01*
X156508507Y-70288181D01*
X156259862Y-70039535D01*
X156090718Y-69870391D01*
X156057233Y-69809068D01*
X156062217Y-69739376D01*
X156104089Y-69683443D01*
X156113112Y-69677289D01*
X156280128Y-69573877D01*
X156436302Y-69431506D01*
X156563656Y-69262862D01*
X156657853Y-69073689D01*
X156657853Y-69073686D01*
X156657855Y-69073684D01*
X156690968Y-68957298D01*
X156715686Y-68870427D01*
X156735185Y-68660000D01*
X156735185Y-68659999D01*
X156985317Y-68659999D01*
X156985317Y-68660000D01*
X157004806Y-68870334D01*
X157062614Y-69073504D01*
X157062619Y-69073517D01*
X157156771Y-69262598D01*
X157164118Y-69272327D01*
X157640504Y-68795941D01*
X157656619Y-68856081D01*
X157723498Y-68971920D01*
X157818080Y-69066502D01*
X157933919Y-69133381D01*
X157994057Y-69149494D01*
X157520401Y-69623150D01*
X157619770Y-69684677D01*
X157619771Y-69684678D01*
X157816740Y-69760983D01*
X158024384Y-69799800D01*
X158235616Y-69799800D01*
X158443259Y-69760983D01*
X158640228Y-69684678D01*
X158640232Y-69684676D01*
X158739596Y-69623151D01*
X158739596Y-69623150D01*
X158265942Y-69149494D01*
X158326081Y-69133381D01*
X158441920Y-69066502D01*
X158536502Y-68971920D01*
X158603381Y-68856081D01*
X158619495Y-68795941D01*
X159095880Y-69272326D01*
X159095881Y-69272326D01*
X159103228Y-69262598D01*
X159197380Y-69073517D01*
X159197385Y-69073504D01*
X159255193Y-68870334D01*
X159274683Y-68660000D01*
X159274683Y-68659999D01*
X159255193Y-68449665D01*
X159197385Y-68246495D01*
X159197380Y-68246482D01*
X159114482Y-68080000D01*
X171854353Y-68080000D01*
X171874834Y-68222456D01*
X171895021Y-68266658D01*
X171934623Y-68353373D01*
X172028872Y-68462143D01*
X172149947Y-68539953D01*
X172149950Y-68539954D01*
X172149949Y-68539954D01*
X172288036Y-68580499D01*
X172288038Y-68580500D01*
X172288039Y-68580500D01*
X172431962Y-68580500D01*
X172431962Y-68580499D01*
X172570053Y-68539953D01*
X172691128Y-68462143D01*
X172785377Y-68353373D01*
X172845165Y-68222457D01*
X172865647Y-68080000D01*
X172845165Y-67937543D01*
X172785377Y-67806627D01*
X172691128Y-67697857D01*
X172570053Y-67620047D01*
X172570051Y-67620046D01*
X172570049Y-67620045D01*
X172570050Y-67620045D01*
X172431963Y-67579500D01*
X172431961Y-67579500D01*
X172288039Y-67579500D01*
X172288036Y-67579500D01*
X172149949Y-67620045D01*
X172028873Y-67697856D01*
X171934623Y-67806626D01*
X171934622Y-67806628D01*
X171874834Y-67937543D01*
X171854353Y-68080000D01*
X159114482Y-68080000D01*
X159103232Y-68057407D01*
X159103227Y-68057399D01*
X159095880Y-68047671D01*
X158619494Y-68524057D01*
X158603381Y-68463919D01*
X158536502Y-68348080D01*
X158441920Y-68253498D01*
X158326081Y-68186619D01*
X158265941Y-68170504D01*
X158739597Y-67696848D01*
X158640227Y-67635321D01*
X158640226Y-67635320D01*
X158443259Y-67559016D01*
X158235616Y-67520200D01*
X158024384Y-67520200D01*
X157816740Y-67559016D01*
X157619772Y-67635321D01*
X157619765Y-67635325D01*
X157520402Y-67696847D01*
X157520401Y-67696848D01*
X157994058Y-68170504D01*
X157933919Y-68186619D01*
X157818080Y-68253498D01*
X157723498Y-68348080D01*
X157656619Y-68463919D01*
X157640504Y-68524058D01*
X157164118Y-68047672D01*
X157164117Y-68047672D01*
X157156770Y-68057402D01*
X157062619Y-68246482D01*
X157062614Y-68246495D01*
X157004806Y-68449665D01*
X156985317Y-68659999D01*
X156735185Y-68659999D01*
X156733959Y-68646774D01*
X156715686Y-68449573D01*
X156715685Y-68449570D01*
X156657855Y-68246315D01*
X156657852Y-68246309D01*
X156623315Y-68176950D01*
X156563656Y-68057138D01*
X156502555Y-67976227D01*
X156436300Y-67888491D01*
X156280129Y-67746124D01*
X156280128Y-67746123D01*
X156100453Y-67634872D01*
X156100452Y-67634871D01*
X155904644Y-67559016D01*
X155903395Y-67558532D01*
X155695664Y-67519700D01*
X155484336Y-67519700D01*
X155276605Y-67558532D01*
X155276602Y-67558532D01*
X155276602Y-67558533D01*
X155079547Y-67634871D01*
X155079546Y-67634872D01*
X154899870Y-67746124D01*
X154743699Y-67888491D01*
X154616344Y-68057137D01*
X154522147Y-68246309D01*
X154522144Y-68246315D01*
X154464314Y-68449570D01*
X154464313Y-68449573D01*
X154444815Y-68659999D01*
X154195185Y-68659999D01*
X154193959Y-68646774D01*
X154175686Y-68449573D01*
X154175685Y-68449570D01*
X154117855Y-68246315D01*
X154117852Y-68246309D01*
X154083315Y-68176950D01*
X154023656Y-68057138D01*
X153962555Y-67976227D01*
X153896300Y-67888491D01*
X153740129Y-67746124D01*
X153740128Y-67746123D01*
X153560453Y-67634872D01*
X153560452Y-67634871D01*
X153364644Y-67559016D01*
X153363395Y-67558532D01*
X153155664Y-67519700D01*
X152944336Y-67519700D01*
X152860625Y-67535348D01*
X152765736Y-67553086D01*
X152696221Y-67546055D01*
X152655270Y-67518878D01*
X152481683Y-67345291D01*
X152290913Y-67154520D01*
X152226097Y-67117098D01*
X152199589Y-67101793D01*
X152166973Y-67093054D01*
X152134061Y-67084235D01*
X152074401Y-67047871D01*
X152043872Y-66985024D01*
X152052167Y-66915649D01*
X152096652Y-66861771D01*
X152163204Y-66840496D01*
X152166155Y-66840461D01*
X159678915Y-66840461D01*
X159745954Y-66860146D01*
G37*
G04 #@! TD.AperFunction*
G04 #@! TA.AperFunction,Conductor*
G36*
X150117882Y-67890185D02*
G01*
X150163637Y-67942989D01*
X150166945Y-67951486D01*
X150176653Y-67970539D01*
X150228972Y-68073220D01*
X150228974Y-68073222D01*
X150228976Y-68073225D01*
X150324274Y-68168523D01*
X150324278Y-68168526D01*
X150324280Y-68168528D01*
X150444374Y-68229719D01*
X150444376Y-68229719D01*
X150444378Y-68229720D01*
X150544007Y-68245500D01*
X150544012Y-68245500D01*
X151110993Y-68245500D01*
X151210621Y-68229720D01*
X151210621Y-68229719D01*
X151210626Y-68229719D01*
X151330720Y-68168528D01*
X151426028Y-68073220D01*
X151487219Y-67953126D01*
X151487219Y-67953124D01*
X151491649Y-67944431D01*
X151494920Y-67946097D01*
X151524014Y-67903527D01*
X151588365Y-67876312D01*
X151602532Y-67875500D01*
X151827745Y-67875500D01*
X151894784Y-67895185D01*
X151915426Y-67911819D01*
X152008071Y-68004464D01*
X152041556Y-68065787D01*
X152036572Y-68135479D01*
X152031390Y-68147416D01*
X151982150Y-68246302D01*
X151982142Y-68246322D01*
X151924314Y-68449570D01*
X151924313Y-68449573D01*
X151904815Y-68659999D01*
X151904815Y-68660000D01*
X151924313Y-68870426D01*
X151924314Y-68870429D01*
X151982144Y-69073684D01*
X151982147Y-69073690D01*
X152076344Y-69262862D01*
X152203699Y-69431508D01*
X152311641Y-69529909D01*
X152359872Y-69573877D01*
X152539547Y-69685128D01*
X152580293Y-69700912D01*
X152635694Y-69743483D01*
X152659286Y-69809249D01*
X152659500Y-69816539D01*
X152659500Y-71222726D01*
X152686793Y-71324589D01*
X152709836Y-71364500D01*
X152739520Y-71415913D01*
X153023607Y-71700000D01*
X153305179Y-71981571D01*
X153305189Y-71981582D01*
X153309519Y-71985912D01*
X153309520Y-71985913D01*
X153384087Y-72060480D01*
X153410818Y-72075913D01*
X153475413Y-72113207D01*
X153577273Y-72140501D01*
X153577275Y-72140501D01*
X153690323Y-72140501D01*
X153690339Y-72140500D01*
X154422745Y-72140500D01*
X154489784Y-72160185D01*
X154510426Y-72176819D01*
X154533181Y-72199574D01*
X154566666Y-72260897D01*
X154569500Y-72287255D01*
X154569500Y-73137273D01*
X154569500Y-73242727D01*
X154573311Y-73256950D01*
X154596793Y-73344589D01*
X154606648Y-73361657D01*
X154649520Y-73435913D01*
X154649522Y-73435915D01*
X154991426Y-73777819D01*
X155024911Y-73839142D01*
X155019927Y-73908834D01*
X154978055Y-73964767D01*
X154912591Y-73989184D01*
X154903745Y-73989500D01*
X154080247Y-73989500D01*
X154021770Y-74001131D01*
X154021769Y-74001132D01*
X153955447Y-74045447D01*
X153911132Y-74111769D01*
X153911131Y-74111770D01*
X153899500Y-74170247D01*
X153899500Y-74809752D01*
X153911131Y-74868229D01*
X153911132Y-74868231D01*
X153926753Y-74891608D01*
X153947632Y-74958285D01*
X153929148Y-75025665D01*
X153877170Y-75072356D01*
X153823652Y-75084500D01*
X153661795Y-75084500D01*
X153594756Y-75064815D01*
X153551311Y-75016796D01*
X153549412Y-75013071D01*
X153541050Y-74996658D01*
X153541047Y-74996655D01*
X153541045Y-74996652D01*
X153451347Y-74906954D01*
X153451344Y-74906952D01*
X153451342Y-74906950D01*
X153346143Y-74853348D01*
X153338301Y-74849352D01*
X153244524Y-74834500D01*
X152631482Y-74834500D01*
X152550519Y-74847323D01*
X152537696Y-74849354D01*
X152424658Y-74906950D01*
X152424657Y-74906951D01*
X152424652Y-74906954D01*
X152334954Y-74996652D01*
X152334950Y-74996657D01*
X152296760Y-75071608D01*
X152248785Y-75122403D01*
X152233735Y-75129869D01*
X152229366Y-75131678D01*
X152192250Y-75153107D01*
X152192250Y-75153108D01*
X152155138Y-75174535D01*
X152155135Y-75174537D01*
X152121492Y-75208181D01*
X152060169Y-75241666D01*
X152033811Y-75244500D01*
X146010437Y-75244500D01*
X145956750Y-75232275D01*
X144732797Y-74644390D01*
X144728076Y-74641700D01*
X144727957Y-74641923D01*
X144722601Y-74639060D01*
X144721507Y-74638607D01*
X144719191Y-74637648D01*
X144712967Y-74634866D01*
X144649052Y-74604167D01*
X144649048Y-74604165D01*
X144645007Y-74603047D01*
X144624230Y-74597301D01*
X144609841Y-74592352D01*
X144531420Y-74559870D01*
X144531413Y-74559868D01*
X144531412Y-74559868D01*
X144531412Y-74559867D01*
X144328469Y-74519500D01*
X144328465Y-74519500D01*
X143871535Y-74519500D01*
X143871530Y-74519500D01*
X143668587Y-74559868D01*
X143668579Y-74559870D01*
X143477403Y-74639058D01*
X143305342Y-74754024D01*
X143159024Y-74900342D01*
X143044058Y-75072403D01*
X142964870Y-75263579D01*
X142964868Y-75263587D01*
X142924500Y-75466530D01*
X142924500Y-75673469D01*
X142964868Y-75876412D01*
X142964870Y-75876420D01*
X143039256Y-76056004D01*
X143044059Y-76067598D01*
X143073515Y-76111682D01*
X143159024Y-76239657D01*
X143305342Y-76385975D01*
X143305345Y-76385977D01*
X143477402Y-76500941D01*
X143668580Y-76580130D01*
X143871530Y-76620499D01*
X143871534Y-76620500D01*
X143871535Y-76620500D01*
X144328466Y-76620500D01*
X144328467Y-76620499D01*
X144531420Y-76580130D01*
X144612825Y-76546410D01*
X144629424Y-76540872D01*
X144649050Y-76535833D01*
X144649053Y-76535831D01*
X144649057Y-76535830D01*
X144674046Y-76523826D01*
X144712945Y-76505141D01*
X144719178Y-76502356D01*
X144722598Y-76500941D01*
X144722605Y-76500935D01*
X144727983Y-76498062D01*
X144728109Y-76498298D01*
X144732826Y-76495592D01*
X145956750Y-75907725D01*
X146010437Y-75895500D01*
X152262850Y-75895500D01*
X152262853Y-75895500D01*
X152268036Y-75894111D01*
X152337883Y-75895771D01*
X152387813Y-75926205D01*
X152424653Y-75963046D01*
X152424655Y-75963047D01*
X152424658Y-75963050D01*
X152530562Y-76017011D01*
X152537698Y-76020647D01*
X152631475Y-76035499D01*
X152631481Y-76035500D01*
X153244518Y-76035499D01*
X153338304Y-76020646D01*
X153451342Y-75963050D01*
X153541050Y-75873342D01*
X153576787Y-75803203D01*
X153624761Y-75752409D01*
X153687271Y-75735500D01*
X154522851Y-75735500D01*
X154522853Y-75735500D01*
X154605639Y-75713318D01*
X154679862Y-75670465D01*
X154949860Y-75400466D01*
X154949862Y-75400465D01*
X155010465Y-75339862D01*
X155053318Y-75265638D01*
X155058982Y-75244500D01*
X155075501Y-75182853D01*
X155075501Y-75114500D01*
X155095186Y-75047461D01*
X155147990Y-75001706D01*
X155199501Y-74990500D01*
X155419750Y-74990500D01*
X155419751Y-74990499D01*
X155436605Y-74987147D01*
X155478229Y-74978868D01*
X155478229Y-74978867D01*
X155478231Y-74978867D01*
X155544552Y-74934552D01*
X155588867Y-74868231D01*
X155588867Y-74868229D01*
X155588868Y-74868229D01*
X155600499Y-74809752D01*
X155600500Y-74809750D01*
X155600500Y-74686255D01*
X155620185Y-74619216D01*
X155672989Y-74573461D01*
X155742147Y-74563517D01*
X155805703Y-74592542D01*
X155812181Y-74598574D01*
X156045015Y-74831408D01*
X156078500Y-74892731D01*
X156073516Y-74962423D01*
X156060437Y-74987979D01*
X156011132Y-75061770D01*
X156011131Y-75061770D01*
X155999500Y-75120247D01*
X155999500Y-75759752D01*
X156011131Y-75818229D01*
X156011132Y-75818230D01*
X156055447Y-75884552D01*
X156121769Y-75928867D01*
X156121770Y-75928868D01*
X156180247Y-75940499D01*
X156180250Y-75940500D01*
X156180252Y-75940500D01*
X156325500Y-75940500D01*
X156392539Y-75960185D01*
X156438294Y-76012989D01*
X156449500Y-76064500D01*
X156449500Y-76682745D01*
X156429815Y-76749784D01*
X156413181Y-76770426D01*
X156110426Y-77073181D01*
X156049103Y-77106666D01*
X156022745Y-77109500D01*
X155639967Y-77109500D01*
X155572928Y-77089815D01*
X155552286Y-77073181D01*
X155544553Y-77065448D01*
X155478230Y-77021132D01*
X155478229Y-77021131D01*
X155419752Y-77009500D01*
X155419748Y-77009500D01*
X154080252Y-77009500D01*
X154080247Y-77009500D01*
X154021770Y-77021131D01*
X154021769Y-77021132D01*
X153955447Y-77065447D01*
X153911132Y-77131769D01*
X153911131Y-77131770D01*
X153899500Y-77190247D01*
X153899500Y-77744811D01*
X153879815Y-77811850D01*
X153827011Y-77857605D01*
X153757853Y-77867549D01*
X153694297Y-77838524D01*
X153687819Y-77832492D01*
X153669818Y-77814491D01*
X153636333Y-77753168D01*
X153633499Y-77726810D01*
X153633499Y-77403482D01*
X153633002Y-77400342D01*
X153618646Y-77309696D01*
X153561050Y-77196658D01*
X153561046Y-77196654D01*
X153561045Y-77196652D01*
X153471347Y-77106954D01*
X153471344Y-77106952D01*
X153471342Y-77106950D01*
X153378937Y-77059867D01*
X153358301Y-77049352D01*
X153264524Y-77034500D01*
X152651482Y-77034500D01*
X152570519Y-77047323D01*
X152557696Y-77049354D01*
X152444658Y-77106950D01*
X152444657Y-77106951D01*
X152444652Y-77106954D01*
X152354954Y-77196652D01*
X152354951Y-77196657D01*
X152297352Y-77309698D01*
X152282500Y-77403475D01*
X152282500Y-77403480D01*
X152282500Y-77403481D01*
X152282500Y-77572403D01*
X152282501Y-77620499D01*
X152262817Y-77687539D01*
X152210013Y-77733294D01*
X152158501Y-77744500D01*
X146010437Y-77744500D01*
X145956750Y-77732275D01*
X144732797Y-77144390D01*
X144728076Y-77141700D01*
X144727957Y-77141923D01*
X144722601Y-77139060D01*
X144721507Y-77138607D01*
X144719191Y-77137648D01*
X144712967Y-77134866D01*
X144649052Y-77104167D01*
X144649048Y-77104165D01*
X144645007Y-77103047D01*
X144624230Y-77097301D01*
X144609841Y-77092352D01*
X144531420Y-77059870D01*
X144531413Y-77059868D01*
X144531412Y-77059868D01*
X144531412Y-77059867D01*
X144328469Y-77019500D01*
X144328465Y-77019500D01*
X143871535Y-77019500D01*
X143871530Y-77019500D01*
X143668587Y-77059868D01*
X143668579Y-77059870D01*
X143477403Y-77139058D01*
X143305342Y-77254024D01*
X143159024Y-77400342D01*
X143044058Y-77572403D01*
X142964870Y-77763579D01*
X142964868Y-77763587D01*
X142924500Y-77966530D01*
X142924500Y-78173469D01*
X142964868Y-78376412D01*
X142964870Y-78376420D01*
X143028742Y-78530621D01*
X143044059Y-78567598D01*
X143073996Y-78612402D01*
X143159024Y-78739657D01*
X143305342Y-78885975D01*
X143305345Y-78885977D01*
X143477402Y-79000941D01*
X143668580Y-79080130D01*
X143871530Y-79120499D01*
X143871534Y-79120500D01*
X143871535Y-79120500D01*
X144328466Y-79120500D01*
X144328467Y-79120499D01*
X144531420Y-79080130D01*
X144612825Y-79046410D01*
X144629424Y-79040872D01*
X144649050Y-79035833D01*
X144649053Y-79035831D01*
X144649057Y-79035830D01*
X144675617Y-79023072D01*
X144712945Y-79005141D01*
X144719178Y-79002356D01*
X144722598Y-79000941D01*
X144722605Y-79000935D01*
X144727983Y-78998062D01*
X144728109Y-78998298D01*
X144732826Y-78995592D01*
X145956750Y-78407725D01*
X146010437Y-78395500D01*
X152565851Y-78395500D01*
X152565853Y-78395500D01*
X152648639Y-78373318D01*
X152722862Y-78330465D01*
X152781508Y-78271817D01*
X152842831Y-78238333D01*
X152869190Y-78235499D01*
X153118810Y-78235499D01*
X153185849Y-78255184D01*
X153206491Y-78271818D01*
X153416060Y-78481387D01*
X153449545Y-78542710D01*
X153444561Y-78612402D01*
X153402689Y-78668335D01*
X153337225Y-78692752D01*
X153308982Y-78691541D01*
X153264525Y-78684500D01*
X152651482Y-78684500D01*
X152570519Y-78697323D01*
X152557696Y-78699354D01*
X152444658Y-78756950D01*
X152444657Y-78756951D01*
X152444652Y-78756954D01*
X152354954Y-78846652D01*
X152354951Y-78846657D01*
X152297352Y-78959698D01*
X152282500Y-79053475D01*
X152282500Y-79409744D01*
X152262815Y-79476783D01*
X152246181Y-79497425D01*
X151610426Y-80133181D01*
X151549103Y-80166666D01*
X151522745Y-80169500D01*
X146003969Y-80169500D01*
X145955394Y-80159590D01*
X144640335Y-79599692D01*
X144619375Y-79594655D01*
X144600898Y-79588649D01*
X144531420Y-79559870D01*
X144531412Y-79559868D01*
X144328469Y-79519500D01*
X144328465Y-79519500D01*
X143993785Y-79519500D01*
X143974606Y-79518008D01*
X143956058Y-79515104D01*
X143956056Y-79515104D01*
X143862954Y-79518926D01*
X142805291Y-79562346D01*
X142737501Y-79545427D01*
X142712524Y-79526131D01*
X142666819Y-79480426D01*
X142633334Y-79419103D01*
X142630500Y-79392745D01*
X142630500Y-72415793D01*
X142925000Y-72415793D01*
X142925000Y-72820000D01*
X143695854Y-72820000D01*
X143657370Y-72886657D01*
X143625000Y-73007465D01*
X143625000Y-73132535D01*
X143657370Y-73253343D01*
X143695854Y-73320000D01*
X142925001Y-73320000D01*
X142925001Y-73724196D01*
X142927851Y-73754606D01*
X142972653Y-73882645D01*
X143053207Y-73991792D01*
X143162354Y-74072346D01*
X143290397Y-74117149D01*
X143320792Y-74119999D01*
X143849999Y-74119999D01*
X143850000Y-74119998D01*
X143850000Y-73474145D01*
X143916657Y-73512630D01*
X144037465Y-73545000D01*
X144162535Y-73545000D01*
X144283343Y-73512630D01*
X144350000Y-73474145D01*
X144350000Y-74119999D01*
X144879196Y-74119999D01*
X144909606Y-74117148D01*
X145037645Y-74072346D01*
X145146792Y-73991792D01*
X145227346Y-73882645D01*
X145272149Y-73754604D01*
X145272149Y-73754600D01*
X145275000Y-73724206D01*
X145275000Y-73320000D01*
X144504146Y-73320000D01*
X144542630Y-73253343D01*
X144575000Y-73132535D01*
X144575000Y-73007465D01*
X144542630Y-72886657D01*
X144504146Y-72820000D01*
X145274999Y-72820000D01*
X145274999Y-72415803D01*
X145272148Y-72385393D01*
X145227346Y-72257354D01*
X145146792Y-72148207D01*
X145037645Y-72067653D01*
X144909602Y-72022850D01*
X144879207Y-72020000D01*
X144350000Y-72020000D01*
X144350000Y-72665854D01*
X144283343Y-72627370D01*
X144162535Y-72595000D01*
X144037465Y-72595000D01*
X143916657Y-72627370D01*
X143850000Y-72665854D01*
X143850000Y-72020000D01*
X143320803Y-72020000D01*
X143290393Y-72022851D01*
X143162354Y-72067653D01*
X143053207Y-72148207D01*
X142972653Y-72257354D01*
X142927850Y-72385395D01*
X142927850Y-72385399D01*
X142925000Y-72415793D01*
X142630500Y-72415793D01*
X142630500Y-70767254D01*
X142650185Y-70700215D01*
X142666814Y-70679577D01*
X143662142Y-69684249D01*
X143723463Y-69650766D01*
X143793154Y-69655750D01*
X143837502Y-69684251D01*
X143851774Y-69698523D01*
X143851778Y-69698526D01*
X143851780Y-69698528D01*
X143971874Y-69759719D01*
X143971876Y-69759719D01*
X143971878Y-69759720D01*
X144071507Y-69775500D01*
X144071512Y-69775500D01*
X144638493Y-69775500D01*
X144738121Y-69759720D01*
X144738121Y-69759719D01*
X144738126Y-69759719D01*
X144858220Y-69698528D01*
X144953528Y-69603220D01*
X144958630Y-69593205D01*
X145006604Y-69542410D01*
X145069115Y-69525500D01*
X145547745Y-69525500D01*
X145614784Y-69545185D01*
X145635426Y-69561819D01*
X145689519Y-69615912D01*
X145689520Y-69615913D01*
X145764087Y-69690480D01*
X145855413Y-69743207D01*
X145957273Y-69770500D01*
X146033456Y-69770500D01*
X146100495Y-69790185D01*
X146121137Y-69806819D01*
X146123514Y-69809196D01*
X146123515Y-69809196D01*
X146123517Y-69809198D01*
X146228607Y-69860573D01*
X146262673Y-69865536D01*
X146296739Y-69870500D01*
X146296740Y-69870500D01*
X146480500Y-69870500D01*
X146547539Y-69890185D01*
X146593294Y-69942989D01*
X146604500Y-69994500D01*
X146604500Y-70887726D01*
X146631793Y-70989589D01*
X146658156Y-71035250D01*
X146684520Y-71080913D01*
X149709087Y-74105480D01*
X149800412Y-74158207D01*
X149902273Y-74185500D01*
X152245745Y-74185500D01*
X152312784Y-74205185D01*
X152333426Y-74221819D01*
X152424652Y-74313045D01*
X152424654Y-74313046D01*
X152424658Y-74313050D01*
X152537694Y-74370645D01*
X152537698Y-74370647D01*
X152631475Y-74385499D01*
X152631481Y-74385500D01*
X153244518Y-74385499D01*
X153338304Y-74370646D01*
X153451342Y-74313050D01*
X153541050Y-74223342D01*
X153598646Y-74110304D01*
X153598646Y-74110302D01*
X153598647Y-74110301D01*
X153613499Y-74016524D01*
X153613500Y-74016519D01*
X153613499Y-73553482D01*
X153598646Y-73459696D01*
X153541050Y-73346658D01*
X153541046Y-73346654D01*
X153541045Y-73346652D01*
X153451347Y-73256954D01*
X153451344Y-73256952D01*
X153451342Y-73256950D01*
X153358048Y-73209414D01*
X153338301Y-73199352D01*
X153244524Y-73184500D01*
X152631482Y-73184500D01*
X152550519Y-73197323D01*
X152537696Y-73199354D01*
X152424658Y-73256950D01*
X152424657Y-73256951D01*
X152424652Y-73256954D01*
X152333426Y-73348181D01*
X152272103Y-73381666D01*
X152245745Y-73384500D01*
X150172255Y-73384500D01*
X150105216Y-73364815D01*
X150084574Y-73348181D01*
X147441819Y-70705426D01*
X147408334Y-70644103D01*
X147405500Y-70617745D01*
X147405500Y-69962857D01*
X147425185Y-69895818D01*
X147475039Y-69851457D01*
X147561483Y-69809198D01*
X147573009Y-69797671D01*
X147628596Y-69765578D01*
X147712088Y-69743207D01*
X147803413Y-69690480D01*
X148042819Y-69451074D01*
X148104142Y-69417589D01*
X148173834Y-69422573D01*
X148229767Y-69464445D01*
X148254184Y-69529909D01*
X148254500Y-69538755D01*
X148254500Y-69553260D01*
X148264426Y-69621391D01*
X148315803Y-69726485D01*
X148398514Y-69809196D01*
X148398515Y-69809196D01*
X148398517Y-69809198D01*
X148503607Y-69860573D01*
X148537673Y-69865536D01*
X148571739Y-69870500D01*
X148571740Y-69870500D01*
X149663261Y-69870500D01*
X149685971Y-69867191D01*
X149731393Y-69860573D01*
X149836483Y-69809198D01*
X149919198Y-69726483D01*
X149970573Y-69621393D01*
X149980500Y-69553260D01*
X149980500Y-69186740D01*
X149970573Y-69118607D01*
X149919198Y-69013517D01*
X149919196Y-69013515D01*
X149919196Y-69013514D01*
X149836485Y-68930803D01*
X149731391Y-68879426D01*
X149663261Y-68869500D01*
X149663260Y-68869500D01*
X148571740Y-68869500D01*
X148569873Y-68869771D01*
X148569235Y-68869681D01*
X148567269Y-68869824D01*
X148567238Y-68869398D01*
X148500697Y-68859957D01*
X148447809Y-68814299D01*
X148428000Y-68747297D01*
X148428000Y-68092932D01*
X148447685Y-68025893D01*
X148500489Y-67980138D01*
X148567242Y-67970539D01*
X148567269Y-67970176D01*
X148568933Y-67970296D01*
X148569643Y-67970194D01*
X148571740Y-67970500D01*
X148571745Y-67970500D01*
X149663261Y-67970500D01*
X149685971Y-67967191D01*
X149731393Y-67960573D01*
X149836483Y-67909198D01*
X149836600Y-67909081D01*
X149838863Y-67906819D01*
X149842914Y-67904606D01*
X149844847Y-67903227D01*
X149845013Y-67903460D01*
X149900186Y-67873334D01*
X149926544Y-67870500D01*
X150050843Y-67870500D01*
X150117882Y-67890185D01*
G37*
G04 #@! TD.AperFunction*
M02*
