G04 #@! TF.GenerationSoftware,KiCad,Pcbnew,8.0.3*
G04 #@! TF.CreationDate,2024-07-19T17:25:19+03:00*
G04 #@! TF.ProjectId,B-GP-02-Brk-01Mbr-R01,422d4750-2d30-4322-9d42-726b2d30314d,rev?*
G04 #@! TF.SameCoordinates,Original*
G04 #@! TF.FileFunction,Legend,Top*
G04 #@! TF.FilePolarity,Positive*
%FSLAX46Y46*%
G04 Gerber Fmt 4.6, Leading zero omitted, Abs format (unit mm)*
G04 Created by KiCad (PCBNEW 8.0.3) date 2024-07-19 17:25:19*
%MOMM*%
%LPD*%
G01*
G04 APERTURE LIST*
G04 Aperture macros list*
%AMRoundRect*
0 Rectangle with rounded corners*
0 $1 Rounding radius*
0 $2 $3 $4 $5 $6 $7 $8 $9 X,Y pos of 4 corners*
0 Add a 4 corners polygon primitive as box body*
4,1,4,$2,$3,$4,$5,$6,$7,$8,$9,$2,$3,0*
0 Add four circle primitives for the rounded corners*
1,1,$1+$1,$2,$3*
1,1,$1+$1,$4,$5*
1,1,$1+$1,$6,$7*
1,1,$1+$1,$8,$9*
0 Add four rect primitives between the rounded corners*
20,1,$1+$1,$2,$3,$4,$5,0*
20,1,$1+$1,$4,$5,$6,$7,0*
20,1,$1+$1,$6,$7,$8,$9,0*
20,1,$1+$1,$8,$9,$2,$3,0*%
G04 Aperture macros list end*
%ADD10C,0.000000*%
%ADD11C,0.150000*%
%ADD12C,0.100000*%
%ADD13C,0.120000*%
%ADD14C,0.127000*%
%ADD15C,0.200000*%
%ADD16C,0.203200*%
%ADD17C,1.000000*%
%ADD18RoundRect,0.070000X-0.650000X-0.300000X0.650000X-0.300000X0.650000X0.300000X-0.650000X0.300000X0*%
%ADD19RoundRect,0.225000X-0.225000X-0.250000X0.225000X-0.250000X0.225000X0.250000X-0.225000X0.250000X0*%
%ADD20RoundRect,0.102000X-0.795000X-0.385000X0.795000X-0.385000X0.795000X0.385000X-0.795000X0.385000X0*%
%ADD21RoundRect,0.200000X-0.200000X-0.275000X0.200000X-0.275000X0.200000X0.275000X-0.200000X0.275000X0*%
%ADD22RoundRect,0.218750X0.256250X-0.218750X0.256250X0.218750X-0.256250X0.218750X-0.256250X-0.218750X0*%
%ADD23RoundRect,0.200000X-0.275000X0.200000X-0.275000X-0.200000X0.275000X-0.200000X0.275000X0.200000X0*%
%ADD24O,1.950000X1.700000*%
%ADD25RoundRect,0.250000X0.725000X-0.600000X0.725000X0.600000X-0.725000X0.600000X-0.725000X-0.600000X0*%
%ADD26C,2.082800*%
%ADD27RoundRect,0.070000X0.650000X0.300000X-0.650000X0.300000X-0.650000X-0.300000X0.650000X-0.300000X0*%
%ADD28RoundRect,0.225000X0.225000X0.250000X-0.225000X0.250000X-0.225000X-0.250000X0.225000X-0.250000X0*%
%ADD29RoundRect,0.200000X0.275000X-0.200000X0.275000X0.200000X-0.275000X0.200000X-0.275000X-0.200000X0*%
%ADD30RoundRect,0.225000X0.250000X-0.225000X0.250000X0.225000X-0.250000X0.225000X-0.250000X-0.225000X0*%
%ADD31RoundRect,0.200000X0.200000X0.275000X-0.200000X0.275000X-0.200000X-0.275000X0.200000X-0.275000X0*%
%ADD32RoundRect,0.225000X-0.250000X0.225000X-0.250000X-0.225000X0.250000X-0.225000X0.250000X0.225000X0*%
%ADD33RoundRect,0.150000X-0.512500X-0.150000X0.512500X-0.150000X0.512500X0.150000X-0.512500X0.150000X0*%
%ADD34RoundRect,0.102000X0.525000X0.500000X-0.525000X0.500000X-0.525000X-0.500000X0.525000X-0.500000X0*%
%ADD35RoundRect,0.102000X1.100000X0.525000X-1.100000X0.525000X-1.100000X-0.525000X1.100000X-0.525000X0*%
%ADD36RoundRect,0.062500X0.062500X-0.117500X0.062500X0.117500X-0.062500X0.117500X-0.062500X-0.117500X0*%
G04 APERTURE END LIST*
D10*
G36*
X174402625Y-68431011D02*
G01*
X174424446Y-68432671D01*
X174445950Y-68435403D01*
X174467110Y-68439182D01*
X174487898Y-68443980D01*
X174508288Y-68449770D01*
X174528253Y-68456525D01*
X174547766Y-68464219D01*
X174566799Y-68472824D01*
X174585326Y-68482313D01*
X174603320Y-68492659D01*
X174620754Y-68503835D01*
X174637600Y-68515815D01*
X174653832Y-68528571D01*
X174669423Y-68542076D01*
X174684346Y-68556304D01*
X174698573Y-68571226D01*
X174712078Y-68586817D01*
X174724834Y-68603049D01*
X174736814Y-68619896D01*
X174747990Y-68637329D01*
X174758336Y-68655323D01*
X174767825Y-68673850D01*
X174776430Y-68692883D01*
X174784124Y-68712396D01*
X174790879Y-68732361D01*
X174796669Y-68752751D01*
X174801467Y-68773539D01*
X174805246Y-68794699D01*
X174807978Y-68816203D01*
X174809638Y-68838024D01*
X174810197Y-68860136D01*
X174809638Y-68882247D01*
X174807978Y-68904068D01*
X174805246Y-68925572D01*
X174801467Y-68946732D01*
X174796669Y-68967520D01*
X174790879Y-68987910D01*
X174784124Y-69007875D01*
X174776430Y-69027388D01*
X174767825Y-69046421D01*
X174758336Y-69064948D01*
X174747990Y-69082942D01*
X174736814Y-69100376D01*
X174724834Y-69117222D01*
X174712078Y-69133454D01*
X174698573Y-69149045D01*
X174684346Y-69163968D01*
X174669423Y-69178195D01*
X174653832Y-69191700D01*
X174637600Y-69204456D01*
X174620754Y-69216436D01*
X174603320Y-69227612D01*
X174585326Y-69237958D01*
X174566799Y-69247447D01*
X174547766Y-69256052D01*
X174528253Y-69263746D01*
X174508288Y-69270501D01*
X174487898Y-69276291D01*
X174467110Y-69281089D01*
X174445950Y-69284868D01*
X174424446Y-69287600D01*
X174402625Y-69289260D01*
X174380513Y-69289819D01*
X174358402Y-69289260D01*
X174336581Y-69287600D01*
X174315077Y-69284868D01*
X174293917Y-69281089D01*
X174273129Y-69276291D01*
X174252739Y-69270501D01*
X174232774Y-69263746D01*
X174213261Y-69256052D01*
X174194228Y-69247447D01*
X174175701Y-69237958D01*
X174157707Y-69227612D01*
X174140274Y-69216436D01*
X174123427Y-69204456D01*
X174107195Y-69191700D01*
X174091604Y-69178195D01*
X174076682Y-69163968D01*
X174062454Y-69149045D01*
X174048949Y-69133454D01*
X174036193Y-69117222D01*
X174024213Y-69100376D01*
X174013037Y-69082942D01*
X174002691Y-69064948D01*
X173993202Y-69046421D01*
X173984597Y-69027388D01*
X173976903Y-69007875D01*
X173970148Y-68987910D01*
X173964358Y-68967520D01*
X173959560Y-68946732D01*
X173955781Y-68925572D01*
X173953049Y-68904068D01*
X173951389Y-68882247D01*
X173950830Y-68860136D01*
X173951389Y-68838024D01*
X173953049Y-68816203D01*
X173955781Y-68794699D01*
X173959560Y-68773539D01*
X173964358Y-68752751D01*
X173970148Y-68732361D01*
X173976903Y-68712396D01*
X173984597Y-68692883D01*
X173993202Y-68673850D01*
X174002691Y-68655323D01*
X174013037Y-68637329D01*
X174024213Y-68619896D01*
X174036193Y-68603049D01*
X174048949Y-68586817D01*
X174062454Y-68571226D01*
X174076682Y-68556304D01*
X174091604Y-68542076D01*
X174107195Y-68528571D01*
X174123427Y-68515815D01*
X174140274Y-68503835D01*
X174157707Y-68492659D01*
X174175701Y-68482313D01*
X174194228Y-68472824D01*
X174213261Y-68464219D01*
X174232774Y-68456525D01*
X174252739Y-68449770D01*
X174273129Y-68443980D01*
X174293917Y-68439182D01*
X174315077Y-68435403D01*
X174336581Y-68432671D01*
X174358402Y-68431011D01*
X174380513Y-68430452D01*
X174402625Y-68431011D01*
G37*
G36*
X178209590Y-67755422D02*
G01*
X178334845Y-67764129D01*
X178452835Y-67779034D01*
X178563357Y-67800455D01*
X178666206Y-67828713D01*
X178714689Y-67845505D01*
X178761179Y-67864127D01*
X178805648Y-67884619D01*
X178848072Y-67907019D01*
X178888426Y-67931369D01*
X178926683Y-67957708D01*
X178962819Y-67986077D01*
X178996808Y-68016515D01*
X179028624Y-68049062D01*
X179058243Y-68083759D01*
X179085638Y-68120645D01*
X179110784Y-68159760D01*
X179133656Y-68201145D01*
X179154229Y-68244839D01*
X179172476Y-68290883D01*
X179188373Y-68339316D01*
X179201895Y-68390179D01*
X179213014Y-68443511D01*
X179221707Y-68499353D01*
X179227948Y-68557744D01*
X179231711Y-68618725D01*
X179232971Y-68682336D01*
X179232245Y-68723923D01*
X179230089Y-68764306D01*
X179226539Y-68803498D01*
X179221631Y-68841510D01*
X179215400Y-68878354D01*
X179207883Y-68914042D01*
X179199114Y-68948586D01*
X179189129Y-68981997D01*
X179177964Y-69014288D01*
X179165655Y-69045470D01*
X179152236Y-69075556D01*
X179137745Y-69104557D01*
X179122215Y-69132484D01*
X179105684Y-69159351D01*
X179069757Y-69209948D01*
X179030248Y-69256443D01*
X178987444Y-69298931D01*
X178941628Y-69337507D01*
X178893085Y-69372266D01*
X178842101Y-69403302D01*
X178788960Y-69430711D01*
X178733947Y-69454588D01*
X178677346Y-69475028D01*
X178707846Y-69482022D01*
X178737859Y-69490159D01*
X178767352Y-69499439D01*
X178796296Y-69509866D01*
X178824657Y-69521443D01*
X178852405Y-69534170D01*
X178879508Y-69548051D01*
X178905934Y-69563089D01*
X178931652Y-69579284D01*
X178956631Y-69596641D01*
X178980838Y-69615161D01*
X179004243Y-69634846D01*
X179026813Y-69655699D01*
X179048518Y-69677723D01*
X179069325Y-69700919D01*
X179089203Y-69725291D01*
X179108121Y-69750839D01*
X179126047Y-69777568D01*
X179142950Y-69805479D01*
X179158797Y-69834574D01*
X179173558Y-69864857D01*
X179187201Y-69896328D01*
X179199695Y-69928992D01*
X179211007Y-69962849D01*
X179221106Y-69997903D01*
X179229961Y-70034156D01*
X179237540Y-70071610D01*
X179243812Y-70110267D01*
X179248745Y-70150130D01*
X179252308Y-70191202D01*
X179254469Y-70233485D01*
X179255196Y-70276980D01*
X179253982Y-70337679D01*
X179250347Y-70396161D01*
X179244300Y-70452446D01*
X179235851Y-70506552D01*
X179225008Y-70558498D01*
X179211782Y-70608304D01*
X179196183Y-70655988D01*
X179178219Y-70701570D01*
X179157900Y-70745068D01*
X179135236Y-70786502D01*
X179110236Y-70825890D01*
X179082909Y-70863251D01*
X179053265Y-70898605D01*
X179021315Y-70931970D01*
X178987066Y-70963366D01*
X178950528Y-70992810D01*
X178911712Y-71020324D01*
X178870627Y-71045924D01*
X178827281Y-71069631D01*
X178781685Y-71091463D01*
X178733848Y-71111439D01*
X178683780Y-71129579D01*
X178631489Y-71145901D01*
X178576986Y-71160424D01*
X178520281Y-71173167D01*
X178461381Y-71184150D01*
X178400298Y-71193391D01*
X178337040Y-71200909D01*
X178204039Y-71210853D01*
X178062455Y-71214134D01*
X174980589Y-71214134D01*
X174980589Y-69269446D01*
X175582516Y-69269446D01*
X175582516Y-70740000D01*
X178038379Y-70740000D01*
X178112230Y-70738163D01*
X178181651Y-70732595D01*
X178246595Y-70723213D01*
X178307017Y-70709932D01*
X178335518Y-70701804D01*
X178362870Y-70692669D01*
X178389069Y-70682518D01*
X178414109Y-70671339D01*
X178437983Y-70659123D01*
X178460686Y-70645858D01*
X178482213Y-70631535D01*
X178502556Y-70616142D01*
X178521712Y-70599669D01*
X178539674Y-70582107D01*
X178556435Y-70563443D01*
X178571992Y-70543668D01*
X178586336Y-70522772D01*
X178599464Y-70500743D01*
X178611369Y-70477571D01*
X178622045Y-70453246D01*
X178631487Y-70427757D01*
X178639688Y-70401093D01*
X178646644Y-70373245D01*
X178652347Y-70344201D01*
X178656794Y-70313951D01*
X178659977Y-70282485D01*
X178661891Y-70249792D01*
X178662530Y-70215861D01*
X178661982Y-70182037D01*
X178660339Y-70149653D01*
X178657600Y-70118687D01*
X178653766Y-70089113D01*
X178648837Y-70060908D01*
X178642814Y-70034047D01*
X178635696Y-70008507D01*
X178627485Y-69984264D01*
X178618181Y-69961293D01*
X178607784Y-69939570D01*
X178596294Y-69919072D01*
X178583712Y-69899773D01*
X178570038Y-69881651D01*
X178555272Y-69864681D01*
X178539415Y-69848839D01*
X178522467Y-69834100D01*
X178504428Y-69820442D01*
X178485299Y-69807839D01*
X178465080Y-69796268D01*
X178443771Y-69785704D01*
X178421373Y-69776124D01*
X178397886Y-69767503D01*
X178373311Y-69759817D01*
X178347647Y-69753043D01*
X178320896Y-69747156D01*
X178293056Y-69742131D01*
X178234117Y-69734576D01*
X178170831Y-69730184D01*
X178103201Y-69728763D01*
X176184443Y-69728763D01*
X176184443Y-69269446D01*
X177988371Y-69269446D01*
X178060031Y-69267562D01*
X178128345Y-69261839D01*
X178193137Y-69252171D01*
X178254232Y-69238453D01*
X178283338Y-69230042D01*
X178311453Y-69220578D01*
X178338555Y-69210049D01*
X178364623Y-69198441D01*
X178389634Y-69185741D01*
X178413566Y-69171936D01*
X178436397Y-69157013D01*
X178458106Y-69140958D01*
X178478670Y-69123758D01*
X178498066Y-69105400D01*
X178516274Y-69085870D01*
X178533271Y-69065156D01*
X178549035Y-69043244D01*
X178563543Y-69020122D01*
X178576775Y-68995775D01*
X178588707Y-68970190D01*
X178599318Y-68943355D01*
X178608586Y-68915256D01*
X178616488Y-68885879D01*
X178623003Y-68855213D01*
X178628109Y-68823242D01*
X178631783Y-68789955D01*
X178634004Y-68755338D01*
X178634749Y-68719378D01*
X178634148Y-68688334D01*
X178632349Y-68658400D01*
X178629360Y-68629567D01*
X178625188Y-68601828D01*
X178619840Y-68575174D01*
X178613323Y-68549597D01*
X178605644Y-68525089D01*
X178596810Y-68501642D01*
X178586829Y-68479248D01*
X178575707Y-68457898D01*
X178563452Y-68437584D01*
X178550070Y-68418298D01*
X178535570Y-68400033D01*
X178519957Y-68382780D01*
X178503240Y-68366530D01*
X178485424Y-68351276D01*
X178466519Y-68337010D01*
X178446529Y-68323723D01*
X178425464Y-68311407D01*
X178403329Y-68300055D01*
X178380132Y-68289657D01*
X178355879Y-68280206D01*
X178330579Y-68271694D01*
X178304239Y-68264112D01*
X178276864Y-68257453D01*
X178248463Y-68251709D01*
X178219043Y-68246870D01*
X178188610Y-68242929D01*
X178124736Y-68237709D01*
X178056899Y-68235984D01*
X173778587Y-68235984D01*
X173778587Y-67752590D01*
X178077272Y-67752590D01*
X178209590Y-67755422D01*
G37*
D11*
G36*
X150726759Y-72768823D02*
G01*
X150791429Y-72832135D01*
X150825334Y-72897790D01*
X150865155Y-73052125D01*
X150866267Y-73162628D01*
X150828984Y-73316686D01*
X150794978Y-73386974D01*
X150730220Y-73453121D01*
X150631420Y-73487111D01*
X150500709Y-73487934D01*
X150499525Y-72736593D01*
X150624447Y-72735806D01*
X150726759Y-72768823D01*
G37*
G36*
X151115112Y-73737057D02*
G01*
X148365112Y-73737057D01*
X148365112Y-73047771D01*
X148465112Y-73047771D01*
X148466363Y-73172172D01*
X148465201Y-73179987D01*
X148466533Y-73188998D01*
X148466553Y-73190974D01*
X148466976Y-73191995D01*
X148467351Y-73194532D01*
X148510112Y-73360261D01*
X148510632Y-73367580D01*
X148514832Y-73378555D01*
X148515155Y-73379807D01*
X148515477Y-73380242D01*
X148515887Y-73381312D01*
X148559894Y-73466530D01*
X148563466Y-73475153D01*
X148565842Y-73478049D01*
X148566576Y-73479469D01*
X148568074Y-73480768D01*
X148572793Y-73486518D01*
X148651472Y-73563545D01*
X148652291Y-73565183D01*
X148659775Y-73571674D01*
X148669873Y-73581560D01*
X148672361Y-73582590D01*
X148674398Y-73584357D01*
X148687824Y-73590351D01*
X148816270Y-73631801D01*
X148825480Y-73635616D01*
X148829238Y-73635986D01*
X148830732Y-73636468D01*
X148832706Y-73636327D01*
X148840112Y-73637057D01*
X148926117Y-73635821D01*
X148935206Y-73636468D01*
X148938851Y-73635639D01*
X148940458Y-73635616D01*
X148942289Y-73634857D01*
X148949543Y-73633208D01*
X149067118Y-73592759D01*
X149069030Y-73592759D01*
X149078398Y-73588878D01*
X149091541Y-73584357D01*
X149093577Y-73582590D01*
X149096066Y-73581560D01*
X149107432Y-73572232D01*
X149159616Y-73518009D01*
X149164664Y-73505822D01*
X149170814Y-73490974D01*
X149172255Y-73476342D01*
X149170814Y-73161710D01*
X149159615Y-73134674D01*
X149138923Y-73113982D01*
X149111887Y-73102783D01*
X149097255Y-73101342D01*
X148911194Y-73102783D01*
X148884158Y-73113982D01*
X148863466Y-73134674D01*
X148852267Y-73161710D01*
X148852267Y-73190974D01*
X148863466Y-73218010D01*
X148884158Y-73238702D01*
X148911194Y-73249901D01*
X148925826Y-73251342D01*
X149022595Y-73250592D01*
X149023484Y-73444856D01*
X149015329Y-73453330D01*
X148916923Y-73487184D01*
X148855051Y-73488073D01*
X148753464Y-73455291D01*
X148688794Y-73391978D01*
X148654889Y-73326322D01*
X148615068Y-73171987D01*
X148613956Y-73061485D01*
X148651241Y-72907422D01*
X148685244Y-72837138D01*
X148750002Y-72770992D01*
X148848901Y-72736968D01*
X148949239Y-72735958D01*
X149034589Y-72777251D01*
X149063779Y-72779325D01*
X149091540Y-72770071D01*
X149113647Y-72750898D01*
X149126735Y-72724723D01*
X149128809Y-72695533D01*
X149119555Y-72667772D01*
X149114599Y-72662057D01*
X149407969Y-72662057D01*
X149409410Y-73576689D01*
X149420609Y-73603725D01*
X149441301Y-73624417D01*
X149468337Y-73635616D01*
X149497601Y-73635616D01*
X149524637Y-73624417D01*
X149545329Y-73603725D01*
X149556528Y-73576689D01*
X149557969Y-73562057D01*
X149556992Y-72941991D01*
X149931158Y-73594705D01*
X149934895Y-73603725D01*
X149938255Y-73607085D01*
X149940647Y-73611257D01*
X149948536Y-73617366D01*
X149955587Y-73624417D01*
X149960003Y-73626246D01*
X149963784Y-73629174D01*
X149973407Y-73631798D01*
X149982623Y-73635616D01*
X149987404Y-73635616D01*
X149992016Y-73636874D01*
X150001910Y-73635616D01*
X150011887Y-73635616D01*
X150016305Y-73633785D01*
X150021046Y-73633183D01*
X150029703Y-73628235D01*
X150038923Y-73624417D01*
X150042304Y-73621035D01*
X150046455Y-73618664D01*
X150052561Y-73610778D01*
X150059615Y-73603725D01*
X150061445Y-73599306D01*
X150064372Y-73595527D01*
X150066996Y-73585905D01*
X150070814Y-73576689D01*
X150071550Y-73569206D01*
X150072072Y-73567296D01*
X150071884Y-73565820D01*
X150072255Y-73562057D01*
X150070837Y-72662057D01*
X150350826Y-72662057D01*
X150352267Y-73576689D01*
X150363466Y-73603725D01*
X150384158Y-73624417D01*
X150411194Y-73635616D01*
X150425826Y-73637057D01*
X150638908Y-73635715D01*
X150649492Y-73636468D01*
X150653196Y-73635625D01*
X150654744Y-73635616D01*
X150656575Y-73634857D01*
X150663829Y-73633208D01*
X150781404Y-73592759D01*
X150783314Y-73592759D01*
X150792678Y-73588880D01*
X150805826Y-73584357D01*
X150807862Y-73582590D01*
X150810351Y-73581560D01*
X150821716Y-73572233D01*
X150906259Y-73485876D01*
X150913648Y-73479469D01*
X150915656Y-73476278D01*
X150916758Y-73475153D01*
X150917515Y-73473325D01*
X150921480Y-73467026D01*
X150961057Y-73385221D01*
X150965069Y-73379807D01*
X150969001Y-73368800D01*
X150969592Y-73367580D01*
X150969630Y-73367040D01*
X150970016Y-73365961D01*
X151010529Y-73198557D01*
X151013671Y-73190974D01*
X151014567Y-73181874D01*
X151015024Y-73179987D01*
X151014860Y-73178891D01*
X151015112Y-73176342D01*
X151013860Y-73051945D01*
X151015024Y-73044126D01*
X151013690Y-73035111D01*
X151013671Y-73033139D01*
X151013248Y-73032118D01*
X151012873Y-73029581D01*
X150970111Y-72863851D01*
X150969592Y-72856533D01*
X150965391Y-72845557D01*
X150965069Y-72844306D01*
X150964746Y-72843870D01*
X150964337Y-72842801D01*
X150920330Y-72757583D01*
X150916758Y-72748960D01*
X150914381Y-72746063D01*
X150913648Y-72744644D01*
X150912149Y-72743344D01*
X150907431Y-72737595D01*
X150828751Y-72660568D01*
X150827933Y-72658931D01*
X150820449Y-72652440D01*
X150810350Y-72642553D01*
X150807861Y-72641522D01*
X150805826Y-72639757D01*
X150792400Y-72633763D01*
X150663953Y-72592312D01*
X150654744Y-72588498D01*
X150650985Y-72588127D01*
X150649492Y-72587646D01*
X150647517Y-72587786D01*
X150640112Y-72587057D01*
X150411194Y-72588498D01*
X150384158Y-72599697D01*
X150363466Y-72620389D01*
X150352267Y-72647425D01*
X150350826Y-72662057D01*
X150070837Y-72662057D01*
X150070814Y-72647425D01*
X150059615Y-72620389D01*
X150038923Y-72599697D01*
X150011887Y-72588498D01*
X149982623Y-72588498D01*
X149955587Y-72599697D01*
X149934895Y-72620389D01*
X149923696Y-72647425D01*
X149922255Y-72662057D01*
X149923231Y-73282121D01*
X149549065Y-72629408D01*
X149545329Y-72620389D01*
X149541968Y-72617028D01*
X149539577Y-72612857D01*
X149531687Y-72606747D01*
X149524637Y-72599697D01*
X149520220Y-72597867D01*
X149516440Y-72594940D01*
X149506816Y-72592315D01*
X149497601Y-72588498D01*
X149492820Y-72588498D01*
X149488208Y-72587240D01*
X149478311Y-72588498D01*
X149468337Y-72588498D01*
X149463921Y-72590327D01*
X149459178Y-72590930D01*
X149450513Y-72595880D01*
X149441301Y-72599697D01*
X149437922Y-72603075D01*
X149433769Y-72605449D01*
X149427659Y-72613338D01*
X149420609Y-72620389D01*
X149418779Y-72624805D01*
X149415852Y-72628586D01*
X149413227Y-72638209D01*
X149409410Y-72647425D01*
X149408673Y-72654907D01*
X149408152Y-72656818D01*
X149408339Y-72658293D01*
X149407969Y-72662057D01*
X149114599Y-72662057D01*
X149100382Y-72645664D01*
X149087939Y-72637832D01*
X149011511Y-72600856D01*
X149010352Y-72599697D01*
X149001751Y-72596134D01*
X148988493Y-72589720D01*
X148985805Y-72589529D01*
X148983316Y-72588498D01*
X148968684Y-72587057D01*
X148840584Y-72588346D01*
X148830732Y-72587646D01*
X148827054Y-72588482D01*
X148825480Y-72588498D01*
X148823648Y-72589256D01*
X148816395Y-72590906D01*
X148698820Y-72631355D01*
X148696910Y-72631355D01*
X148687542Y-72635234D01*
X148674398Y-72639757D01*
X148672362Y-72641522D01*
X148669874Y-72642553D01*
X148658509Y-72651880D01*
X148573965Y-72738235D01*
X148566576Y-72744644D01*
X148564567Y-72747834D01*
X148563466Y-72748960D01*
X148562708Y-72750787D01*
X148558744Y-72757087D01*
X148519166Y-72838891D01*
X148515155Y-72844306D01*
X148511222Y-72855312D01*
X148510632Y-72856533D01*
X148510593Y-72857072D01*
X148510208Y-72858152D01*
X148469696Y-73025550D01*
X148466553Y-73033139D01*
X148465656Y-73042244D01*
X148465201Y-73044126D01*
X148465363Y-73045217D01*
X148465112Y-73047771D01*
X148365112Y-73047771D01*
X148365112Y-72487057D01*
X151115112Y-72487057D01*
X151115112Y-73737057D01*
G37*
G36*
X150992243Y-81237057D02*
G01*
X148329987Y-81237057D01*
X148329987Y-80171437D01*
X148429987Y-80171437D01*
X148433247Y-80185774D01*
X148731692Y-81076665D01*
X148732062Y-81081867D01*
X148736222Y-81090188D01*
X148739241Y-81099199D01*
X148742751Y-81103246D01*
X148745148Y-81108040D01*
X148752256Y-81114205D01*
X148758415Y-81121306D01*
X148763204Y-81123700D01*
X148767255Y-81127214D01*
X148776180Y-81130188D01*
X148784588Y-81134393D01*
X148789932Y-81134772D01*
X148795018Y-81136468D01*
X148804398Y-81135801D01*
X148813778Y-81136468D01*
X148818863Y-81134772D01*
X148824208Y-81134393D01*
X148832618Y-81130187D01*
X148841540Y-81127214D01*
X148845587Y-81123703D01*
X148850381Y-81121307D01*
X148856544Y-81114201D01*
X148863648Y-81108040D01*
X148866043Y-81103248D01*
X148869555Y-81099200D01*
X148875549Y-81085774D01*
X149053990Y-80547771D01*
X149286541Y-80547771D01*
X149287792Y-80672172D01*
X149286630Y-80679987D01*
X149287962Y-80688998D01*
X149287982Y-80690974D01*
X149288405Y-80691995D01*
X149288780Y-80694532D01*
X149331541Y-80860261D01*
X149332061Y-80867580D01*
X149336261Y-80878555D01*
X149336584Y-80879807D01*
X149336906Y-80880242D01*
X149337316Y-80881312D01*
X149381323Y-80966530D01*
X149384895Y-80975153D01*
X149387271Y-80978049D01*
X149388005Y-80979469D01*
X149389503Y-80980768D01*
X149394222Y-80986518D01*
X149472901Y-81063545D01*
X149473720Y-81065183D01*
X149481204Y-81071674D01*
X149491302Y-81081560D01*
X149493790Y-81082590D01*
X149495827Y-81084357D01*
X149509253Y-81090351D01*
X149637699Y-81131801D01*
X149646909Y-81135616D01*
X149650667Y-81135986D01*
X149652161Y-81136468D01*
X149654135Y-81136327D01*
X149661541Y-81137057D01*
X149747546Y-81135821D01*
X149756635Y-81136468D01*
X149760280Y-81135639D01*
X149761887Y-81135616D01*
X149763718Y-81134857D01*
X149770972Y-81133208D01*
X149888547Y-81092759D01*
X149890459Y-81092759D01*
X149899827Y-81088878D01*
X149912970Y-81084357D01*
X149915006Y-81082590D01*
X149917495Y-81081560D01*
X149928861Y-81072232D01*
X149981045Y-81018009D01*
X149992243Y-80990972D01*
X149992243Y-80961709D01*
X149981044Y-80934673D01*
X149960351Y-80913981D01*
X149933315Y-80902783D01*
X149904052Y-80902783D01*
X149877016Y-80913982D01*
X149865651Y-80923309D01*
X149836758Y-80953330D01*
X149738352Y-80987184D01*
X149676480Y-80988073D01*
X149574893Y-80955291D01*
X149510223Y-80891978D01*
X149476318Y-80826322D01*
X149436497Y-80671987D01*
X149435385Y-80561485D01*
X149438704Y-80547771D01*
X150186541Y-80547771D01*
X150187792Y-80672172D01*
X150186630Y-80679987D01*
X150187962Y-80688998D01*
X150187982Y-80690974D01*
X150188405Y-80691995D01*
X150188780Y-80694532D01*
X150231541Y-80860261D01*
X150232061Y-80867580D01*
X150236261Y-80878555D01*
X150236584Y-80879807D01*
X150236906Y-80880242D01*
X150237316Y-80881312D01*
X150281323Y-80966530D01*
X150284895Y-80975153D01*
X150287271Y-80978049D01*
X150288005Y-80979469D01*
X150289503Y-80980768D01*
X150294222Y-80986518D01*
X150372901Y-81063545D01*
X150373720Y-81065183D01*
X150381204Y-81071674D01*
X150391302Y-81081560D01*
X150393790Y-81082590D01*
X150395827Y-81084357D01*
X150409253Y-81090351D01*
X150537699Y-81131801D01*
X150546909Y-81135616D01*
X150550667Y-81135986D01*
X150552161Y-81136468D01*
X150554135Y-81136327D01*
X150561541Y-81137057D01*
X150647546Y-81135821D01*
X150656635Y-81136468D01*
X150660280Y-81135639D01*
X150661887Y-81135616D01*
X150663718Y-81134857D01*
X150670972Y-81133208D01*
X150788547Y-81092759D01*
X150790459Y-81092759D01*
X150799827Y-81088878D01*
X150812970Y-81084357D01*
X150815006Y-81082590D01*
X150817495Y-81081560D01*
X150828861Y-81072232D01*
X150881045Y-81018009D01*
X150892243Y-80990972D01*
X150892243Y-80961709D01*
X150881044Y-80934673D01*
X150860351Y-80913981D01*
X150833315Y-80902783D01*
X150804052Y-80902783D01*
X150777016Y-80913982D01*
X150765651Y-80923309D01*
X150736758Y-80953330D01*
X150638352Y-80987184D01*
X150576480Y-80988073D01*
X150474893Y-80955291D01*
X150410223Y-80891978D01*
X150376318Y-80826322D01*
X150336497Y-80671987D01*
X150335385Y-80561485D01*
X150372670Y-80407422D01*
X150406673Y-80337138D01*
X150471431Y-80270992D01*
X150570444Y-80236929D01*
X150632315Y-80236040D01*
X150734191Y-80268916D01*
X150777016Y-80310131D01*
X150804053Y-80321330D01*
X150833315Y-80321330D01*
X150860352Y-80310131D01*
X150881044Y-80289439D01*
X150892243Y-80262402D01*
X150892243Y-80233140D01*
X150881044Y-80206103D01*
X150871717Y-80194738D01*
X150835601Y-80159979D01*
X150835077Y-80158931D01*
X150829354Y-80153967D01*
X150817495Y-80142554D01*
X150815006Y-80141523D01*
X150812970Y-80139757D01*
X150799544Y-80133763D01*
X150671095Y-80092312D01*
X150661887Y-80088498D01*
X150658128Y-80088127D01*
X150656635Y-80087646D01*
X150654660Y-80087786D01*
X150647255Y-80087057D01*
X150561253Y-80088292D01*
X150552161Y-80087646D01*
X150548515Y-80088474D01*
X150546909Y-80088498D01*
X150545077Y-80089256D01*
X150537824Y-80090906D01*
X150420249Y-80131355D01*
X150418339Y-80131355D01*
X150408971Y-80135234D01*
X150395827Y-80139757D01*
X150393791Y-80141522D01*
X150391303Y-80142553D01*
X150379938Y-80151880D01*
X150295394Y-80238235D01*
X150288005Y-80244644D01*
X150285996Y-80247834D01*
X150284895Y-80248960D01*
X150284137Y-80250787D01*
X150280173Y-80257087D01*
X150240595Y-80338891D01*
X150236584Y-80344306D01*
X150232651Y-80355312D01*
X150232061Y-80356533D01*
X150232022Y-80357072D01*
X150231637Y-80358152D01*
X150191125Y-80525550D01*
X150187982Y-80533139D01*
X150187085Y-80542244D01*
X150186630Y-80544126D01*
X150186792Y-80545217D01*
X150186541Y-80547771D01*
X149438704Y-80547771D01*
X149472670Y-80407422D01*
X149506673Y-80337138D01*
X149571431Y-80270992D01*
X149670444Y-80236929D01*
X149732315Y-80236040D01*
X149834191Y-80268916D01*
X149877016Y-80310131D01*
X149904053Y-80321330D01*
X149933315Y-80321330D01*
X149960352Y-80310131D01*
X149981044Y-80289439D01*
X149992243Y-80262402D01*
X149992243Y-80233140D01*
X149981044Y-80206103D01*
X149971717Y-80194738D01*
X149935601Y-80159979D01*
X149935077Y-80158931D01*
X149929354Y-80153967D01*
X149917495Y-80142554D01*
X149915006Y-80141523D01*
X149912970Y-80139757D01*
X149899544Y-80133763D01*
X149771095Y-80092312D01*
X149761887Y-80088498D01*
X149758128Y-80088127D01*
X149756635Y-80087646D01*
X149754660Y-80087786D01*
X149747255Y-80087057D01*
X149661253Y-80088292D01*
X149652161Y-80087646D01*
X149648515Y-80088474D01*
X149646909Y-80088498D01*
X149645077Y-80089256D01*
X149637824Y-80090906D01*
X149520249Y-80131355D01*
X149518339Y-80131355D01*
X149508971Y-80135234D01*
X149495827Y-80139757D01*
X149493791Y-80141522D01*
X149491303Y-80142553D01*
X149479938Y-80151880D01*
X149395394Y-80238235D01*
X149388005Y-80244644D01*
X149385996Y-80247834D01*
X149384895Y-80248960D01*
X149384137Y-80250787D01*
X149380173Y-80257087D01*
X149340595Y-80338891D01*
X149336584Y-80344306D01*
X149332651Y-80355312D01*
X149332061Y-80356533D01*
X149332022Y-80357072D01*
X149331637Y-80358152D01*
X149291125Y-80525550D01*
X149287982Y-80533139D01*
X149287085Y-80542244D01*
X149286630Y-80544126D01*
X149286792Y-80545217D01*
X149286541Y-80547771D01*
X149053990Y-80547771D01*
X149178809Y-80171438D01*
X149176734Y-80142248D01*
X149163648Y-80116074D01*
X149141540Y-80096900D01*
X149113778Y-80087646D01*
X149084588Y-80089721D01*
X149058415Y-80102808D01*
X149039241Y-80124915D01*
X149033247Y-80138340D01*
X148804794Y-80827130D01*
X148569555Y-80124914D01*
X148550381Y-80102807D01*
X148524208Y-80089721D01*
X148495018Y-80087646D01*
X148467255Y-80096900D01*
X148445148Y-80116074D01*
X148432062Y-80142247D01*
X148429987Y-80171437D01*
X148329987Y-80171437D01*
X148329987Y-79987057D01*
X150992243Y-79987057D01*
X150992243Y-81237057D01*
G37*
G36*
X150591045Y-77745489D02*
G01*
X150655715Y-77808801D01*
X150689620Y-77874456D01*
X150729441Y-78028791D01*
X150730553Y-78139294D01*
X150693270Y-78293352D01*
X150659264Y-78363640D01*
X150594506Y-78429787D01*
X150495706Y-78463777D01*
X150364995Y-78464600D01*
X150363811Y-77713259D01*
X150488733Y-77712472D01*
X150591045Y-77745489D01*
G37*
G36*
X148915257Y-77741108D02*
G01*
X148941792Y-77766646D01*
X148972413Y-77825943D01*
X148973353Y-77919278D01*
X148944869Y-77978153D01*
X148919331Y-78004688D01*
X148860219Y-78035213D01*
X148748437Y-78035664D01*
X148745630Y-78035169D01*
X148743299Y-78035685D01*
X148607177Y-78036233D01*
X148606668Y-77713425D01*
X148855960Y-77712421D01*
X148915257Y-77741108D01*
G37*
G36*
X150979398Y-78713723D02*
G01*
X148357969Y-78713723D01*
X148357969Y-77638723D01*
X148457969Y-77638723D01*
X148459410Y-78553355D01*
X148470609Y-78580391D01*
X148491301Y-78601083D01*
X148518337Y-78612282D01*
X148547601Y-78612282D01*
X148574637Y-78601083D01*
X148595329Y-78580391D01*
X148606528Y-78553355D01*
X148607969Y-78538723D01*
X148607411Y-78184850D01*
X148707837Y-78184446D01*
X148995384Y-78592894D01*
X149020063Y-78608620D01*
X149048881Y-78613706D01*
X149077452Y-78607376D01*
X149101426Y-78590594D01*
X149117152Y-78565916D01*
X149122238Y-78537098D01*
X149115908Y-78508527D01*
X149108698Y-78495714D01*
X148889051Y-78183715D01*
X148890458Y-78183710D01*
X148892947Y-78182678D01*
X148895635Y-78182488D01*
X148909367Y-78177233D01*
X148994585Y-78133225D01*
X149003209Y-78129654D01*
X149006105Y-78127277D01*
X149007525Y-78126544D01*
X149008824Y-78125045D01*
X149014574Y-78120327D01*
X149057335Y-78075895D01*
X149063648Y-78070421D01*
X149065621Y-78067286D01*
X149066758Y-78066105D01*
X149067515Y-78064277D01*
X149071480Y-78057978D01*
X149108455Y-77981550D01*
X149109615Y-77980391D01*
X149113177Y-77971790D01*
X149119592Y-77958532D01*
X149119782Y-77955844D01*
X149120814Y-77953355D01*
X149122255Y-77938723D01*
X149121073Y-77821309D01*
X149121666Y-77819532D01*
X149120954Y-77809524D01*
X149120814Y-77795519D01*
X149119782Y-77793029D01*
X149119592Y-77790342D01*
X149114337Y-77776610D01*
X149070329Y-77691391D01*
X149066758Y-77682769D01*
X149064381Y-77679872D01*
X149063648Y-77678453D01*
X149062149Y-77677153D01*
X149057431Y-77671404D01*
X149023392Y-77638644D01*
X149272255Y-77638644D01*
X149277934Y-77667352D01*
X149284851Y-77680326D01*
X149557970Y-78088840D01*
X149277934Y-78510094D01*
X149272255Y-78538802D01*
X149277994Y-78567496D01*
X149294277Y-78591811D01*
X149318626Y-78608044D01*
X149347334Y-78613723D01*
X149376028Y-78607984D01*
X149400343Y-78591701D01*
X149409659Y-78580326D01*
X149647431Y-78222649D01*
X149894166Y-78591700D01*
X149918481Y-78607984D01*
X149947176Y-78613723D01*
X149975883Y-78608044D01*
X150000233Y-78591811D01*
X150016516Y-78567496D01*
X150022255Y-78538801D01*
X150016576Y-78510094D01*
X150009659Y-78497120D01*
X149736539Y-78088605D01*
X150016576Y-77667352D01*
X150022240Y-77638723D01*
X150215112Y-77638723D01*
X150216553Y-78553355D01*
X150227752Y-78580391D01*
X150248444Y-78601083D01*
X150275480Y-78612282D01*
X150290112Y-78613723D01*
X150503194Y-78612381D01*
X150513778Y-78613134D01*
X150517482Y-78612291D01*
X150519030Y-78612282D01*
X150520861Y-78611523D01*
X150528115Y-78609874D01*
X150645690Y-78569425D01*
X150647600Y-78569425D01*
X150656964Y-78565546D01*
X150670112Y-78561023D01*
X150672148Y-78559256D01*
X150674637Y-78558226D01*
X150686002Y-78548899D01*
X150770545Y-78462542D01*
X150777934Y-78456135D01*
X150779942Y-78452944D01*
X150781044Y-78451819D01*
X150781801Y-78449991D01*
X150785766Y-78443692D01*
X150825343Y-78361887D01*
X150829355Y-78356473D01*
X150833287Y-78345466D01*
X150833878Y-78344246D01*
X150833916Y-78343706D01*
X150834302Y-78342627D01*
X150874815Y-78175223D01*
X150877957Y-78167640D01*
X150878853Y-78158540D01*
X150879310Y-78156653D01*
X150879146Y-78155557D01*
X150879398Y-78153008D01*
X150878146Y-78028611D01*
X150879310Y-78020792D01*
X150877976Y-78011777D01*
X150877957Y-78009805D01*
X150877534Y-78008784D01*
X150877159Y-78006247D01*
X150834397Y-77840517D01*
X150833878Y-77833199D01*
X150829677Y-77822223D01*
X150829355Y-77820972D01*
X150829032Y-77820536D01*
X150828623Y-77819467D01*
X150784616Y-77734249D01*
X150781044Y-77725626D01*
X150778667Y-77722729D01*
X150777934Y-77721310D01*
X150776435Y-77720010D01*
X150771717Y-77714261D01*
X150693037Y-77637234D01*
X150692219Y-77635597D01*
X150684735Y-77629106D01*
X150674636Y-77619219D01*
X150672147Y-77618188D01*
X150670112Y-77616423D01*
X150656686Y-77610429D01*
X150528239Y-77568978D01*
X150519030Y-77565164D01*
X150515271Y-77564793D01*
X150513778Y-77564312D01*
X150511803Y-77564452D01*
X150504398Y-77563723D01*
X150275480Y-77565164D01*
X150248444Y-77576363D01*
X150227752Y-77597055D01*
X150216553Y-77624091D01*
X150215112Y-77638723D01*
X150022240Y-77638723D01*
X150022255Y-77638645D01*
X150016516Y-77609950D01*
X150000233Y-77585635D01*
X149975883Y-77569402D01*
X149947176Y-77563723D01*
X149918481Y-77569462D01*
X149894166Y-77585746D01*
X149884851Y-77597121D01*
X149647079Y-77954796D01*
X149400343Y-77585745D01*
X149376028Y-77569462D01*
X149347334Y-77563723D01*
X149318626Y-77569402D01*
X149294277Y-77585635D01*
X149277994Y-77609950D01*
X149272255Y-77638644D01*
X149023392Y-77638644D01*
X149012999Y-77628642D01*
X149007525Y-77622330D01*
X149004390Y-77620356D01*
X149003209Y-77619220D01*
X149001381Y-77618462D01*
X148995082Y-77614498D01*
X148918653Y-77577522D01*
X148917494Y-77576363D01*
X148908894Y-77572800D01*
X148895635Y-77566386D01*
X148892947Y-77566195D01*
X148890458Y-77565164D01*
X148875826Y-77563723D01*
X148518337Y-77565164D01*
X148491301Y-77576363D01*
X148470609Y-77597055D01*
X148459410Y-77624091D01*
X148457969Y-77638723D01*
X148357969Y-77638723D01*
X148357969Y-77463723D01*
X150979398Y-77463723D01*
X150979398Y-78713723D01*
G37*
D12*
G36*
X150902834Y-70794519D02*
G01*
X150974200Y-70815583D01*
X150989661Y-70829186D01*
X151011771Y-70868764D01*
X151014027Y-70930927D01*
X150996778Y-70969778D01*
X150979400Y-70989529D01*
X150940109Y-71011480D01*
X150768355Y-71014119D01*
X150767016Y-70796244D01*
X150901756Y-70793904D01*
X150902834Y-70794519D01*
G37*
G36*
X150941340Y-70526095D02*
G01*
X150961088Y-70543470D01*
X150983309Y-70583247D01*
X150985024Y-70617613D01*
X150968206Y-70655493D01*
X150950829Y-70675243D01*
X150911512Y-70697208D01*
X150766422Y-70699728D01*
X150765260Y-70510561D01*
X150901038Y-70508203D01*
X150941340Y-70526095D01*
G37*
G36*
X151445692Y-70508805D02*
G01*
X151516672Y-70529754D01*
X151559781Y-70569701D01*
X151584288Y-70613570D01*
X151584424Y-70616355D01*
X151612126Y-70715381D01*
X151611503Y-70718514D01*
X151614090Y-70789784D01*
X151612996Y-70792101D01*
X151590759Y-70892868D01*
X151588210Y-70896153D01*
X151568245Y-70941120D01*
X151525055Y-70987730D01*
X151461550Y-71011380D01*
X151461503Y-71011371D01*
X151368352Y-71013559D01*
X151365258Y-70510275D01*
X151444986Y-70508402D01*
X151445692Y-70508805D01*
G37*
G36*
X154084197Y-70526095D02*
G01*
X154103946Y-70543471D01*
X154126057Y-70583050D01*
X154128313Y-70645213D01*
X154111064Y-70684064D01*
X154093687Y-70703815D01*
X154054394Y-70725766D01*
X153880885Y-70728432D01*
X153879546Y-70510654D01*
X154043735Y-70508131D01*
X154084197Y-70526095D01*
G37*
G36*
X154863884Y-71178038D02*
G01*
X150601979Y-71178038D01*
X150601979Y-70461371D01*
X150668646Y-70461371D01*
X150672452Y-71080505D01*
X150699512Y-71107565D01*
X150718646Y-71111371D01*
X150940894Y-71107956D01*
X150950761Y-71111245D01*
X150964073Y-71107599D01*
X150966351Y-71107565D01*
X150967161Y-71106754D01*
X150969577Y-71106093D01*
X151018086Y-71078994D01*
X151023495Y-71078994D01*
X151039716Y-71068155D01*
X151041869Y-71065707D01*
X151042133Y-71065560D01*
X151042214Y-71065314D01*
X151061496Y-71043399D01*
X151065691Y-71042001D01*
X151077652Y-71026589D01*
X151079043Y-71023454D01*
X151079125Y-71023362D01*
X151079124Y-71023271D01*
X151101867Y-70972048D01*
X151107697Y-70966219D01*
X151110327Y-70952993D01*
X151111377Y-70950630D01*
X151111014Y-70949541D01*
X151111503Y-70947085D01*
X151108568Y-70866251D01*
X151111377Y-70857826D01*
X151107787Y-70844717D01*
X151107697Y-70842237D01*
X151106885Y-70841425D01*
X151106224Y-70839010D01*
X151079125Y-70790502D01*
X151079125Y-70785093D01*
X151068286Y-70768872D01*
X151065838Y-70766718D01*
X151065691Y-70766455D01*
X151065446Y-70766373D01*
X151040303Y-70744252D01*
X151037120Y-70737885D01*
X151029186Y-70733362D01*
X151032925Y-70729113D01*
X151037120Y-70727715D01*
X151049081Y-70712303D01*
X151050472Y-70709168D01*
X151050554Y-70709076D01*
X151050553Y-70708985D01*
X151073295Y-70657763D01*
X151079125Y-70651934D01*
X151081756Y-70638706D01*
X151082805Y-70636344D01*
X151082442Y-70635256D01*
X151082931Y-70632800D01*
X151080280Y-70579686D01*
X151082805Y-70572113D01*
X151079256Y-70559152D01*
X151079125Y-70556523D01*
X151078314Y-70555712D01*
X151077653Y-70553297D01*
X151050553Y-70504788D01*
X151050554Y-70499380D01*
X151039716Y-70483159D01*
X151037265Y-70481003D01*
X151037120Y-70480742D01*
X151036876Y-70480660D01*
X151014960Y-70461377D01*
X151014958Y-70461371D01*
X151268646Y-70461371D01*
X151272452Y-71080505D01*
X151299512Y-71107565D01*
X151318646Y-71111371D01*
X151451946Y-71108239D01*
X151457959Y-71111245D01*
X151477314Y-71108805D01*
X151557364Y-71078994D01*
X151566351Y-71078994D01*
X151577665Y-71071433D01*
X151579976Y-71070573D01*
X151580489Y-71069546D01*
X151582572Y-71068155D01*
X151631569Y-71015279D01*
X151637120Y-71013429D01*
X151649082Y-70998017D01*
X151650476Y-70994875D01*
X151650554Y-70994792D01*
X151650554Y-70994701D01*
X151670457Y-70949869D01*
X151673105Y-70948281D01*
X151681438Y-70930641D01*
X151704379Y-70826679D01*
X151707697Y-70823362D01*
X151711503Y-70804228D01*
X151708789Y-70729485D01*
X151710958Y-70725872D01*
X151710010Y-70706387D01*
X151681519Y-70604540D01*
X151682805Y-70600684D01*
X151677653Y-70581868D01*
X151674183Y-70575657D01*
X151840074Y-70575657D01*
X151842724Y-70628771D01*
X151840200Y-70636345D01*
X151843748Y-70649303D01*
X151843880Y-70651934D01*
X151844691Y-70652745D01*
X151845353Y-70655161D01*
X151872452Y-70703668D01*
X151872452Y-70709076D01*
X151883290Y-70725297D01*
X151885738Y-70727451D01*
X151885886Y-70727715D01*
X151886131Y-70727796D01*
X151908046Y-70747078D01*
X151909445Y-70751274D01*
X151924857Y-70763236D01*
X151927992Y-70764627D01*
X151928082Y-70764707D01*
X151928170Y-70764707D01*
X151973004Y-70784611D01*
X151974593Y-70787259D01*
X151992233Y-70795592D01*
X152093000Y-70817828D01*
X152096286Y-70820379D01*
X152141340Y-70840381D01*
X152161089Y-70857757D01*
X152183309Y-70897532D01*
X152185024Y-70931898D01*
X152168206Y-70969778D01*
X152150829Y-70989529D01*
X152111430Y-71011540D01*
X151992305Y-71014339D01*
X151991600Y-71013937D01*
X151886529Y-70982926D01*
X151852301Y-71000040D01*
X151840200Y-71036345D01*
X151857314Y-71070573D01*
X151874263Y-71080234D01*
X151952379Y-71103289D01*
X151956655Y-71107565D01*
X151975789Y-71111371D01*
X152112903Y-71108149D01*
X152122190Y-71111245D01*
X152135428Y-71107620D01*
X152137780Y-71107565D01*
X152138590Y-71106754D01*
X152141006Y-71106093D01*
X152189515Y-71078994D01*
X152194924Y-71078994D01*
X152211145Y-71068155D01*
X152213298Y-71065707D01*
X152213562Y-71065560D01*
X152213643Y-71065314D01*
X152232926Y-71043397D01*
X152237120Y-71042000D01*
X152249082Y-71026588D01*
X152250473Y-71023453D01*
X152250554Y-71023362D01*
X152250553Y-71023272D01*
X152273295Y-70972048D01*
X152279125Y-70966219D01*
X152281756Y-70952991D01*
X152282805Y-70950629D01*
X152282442Y-70949541D01*
X152282931Y-70947085D01*
X152280280Y-70893970D01*
X152282805Y-70886398D01*
X152279256Y-70873440D01*
X152279125Y-70870808D01*
X152278313Y-70869996D01*
X152277652Y-70867582D01*
X152250553Y-70819074D01*
X152250554Y-70813666D01*
X152443881Y-70813666D01*
X152443881Y-70851934D01*
X152470941Y-70878994D01*
X152490075Y-70882800D01*
X152966352Y-70878994D01*
X152993412Y-70851934D01*
X152993412Y-70813666D01*
X152966352Y-70786606D01*
X152947218Y-70782800D01*
X152470941Y-70786606D01*
X152443881Y-70813666D01*
X152250554Y-70813666D01*
X152239716Y-70797445D01*
X152237267Y-70795290D01*
X152237120Y-70795027D01*
X152236875Y-70794945D01*
X152214960Y-70775663D01*
X152213562Y-70771468D01*
X152198150Y-70759507D01*
X152195017Y-70758116D01*
X152194924Y-70758034D01*
X152194832Y-70758034D01*
X152150000Y-70738129D01*
X152148412Y-70735483D01*
X152130773Y-70727150D01*
X152091639Y-70718514D01*
X153154360Y-70718514D01*
X153157073Y-70793255D01*
X153154905Y-70796869D01*
X153155853Y-70816355D01*
X153184343Y-70918201D01*
X153183058Y-70922058D01*
X153188210Y-70940874D01*
X153215309Y-70989382D01*
X153215309Y-70994791D01*
X153226148Y-71011012D01*
X153228727Y-71013402D01*
X153228743Y-71013430D01*
X153228765Y-71013437D01*
X153281968Y-71062738D01*
X153285886Y-71070573D01*
X153297675Y-71077292D01*
X153299511Y-71078994D01*
X153300660Y-71078994D01*
X153302835Y-71080234D01*
X153380950Y-71103289D01*
X153385226Y-71107565D01*
X153404360Y-71111371D01*
X153407756Y-71111201D01*
X153407904Y-71111245D01*
X153408016Y-71111188D01*
X153453324Y-71108927D01*
X153457959Y-71111245D01*
X153477314Y-71108805D01*
X153557364Y-71078994D01*
X153566351Y-71078994D01*
X153577665Y-71071433D01*
X153579976Y-71070573D01*
X153580489Y-71069546D01*
X153582572Y-71068155D01*
X153621983Y-71023362D01*
X153625789Y-71004228D01*
X153621983Y-70785094D01*
X153594923Y-70758034D01*
X153575789Y-70754228D01*
X153442369Y-70758034D01*
X153415309Y-70785094D01*
X153415309Y-70823362D01*
X153442369Y-70850422D01*
X153461503Y-70854228D01*
X153526625Y-70852370D01*
X153528876Y-70982008D01*
X153523250Y-70988402D01*
X153461550Y-71011380D01*
X153461503Y-71011371D01*
X153418711Y-71013506D01*
X153349191Y-70992987D01*
X153306081Y-70953040D01*
X153281574Y-70909172D01*
X153281439Y-70906387D01*
X153253737Y-70807359D01*
X153254360Y-70804228D01*
X153251772Y-70732957D01*
X153252867Y-70730641D01*
X153275103Y-70629873D01*
X153277654Y-70626588D01*
X153297618Y-70581619D01*
X153340808Y-70535010D01*
X153404312Y-70511361D01*
X153404360Y-70511371D01*
X153473917Y-70508846D01*
X153543673Y-70539816D01*
X153579977Y-70527715D01*
X153597091Y-70493487D01*
X153586386Y-70461371D01*
X153782932Y-70461371D01*
X153786738Y-71080505D01*
X153813798Y-71107565D01*
X153852066Y-71107565D01*
X153879126Y-71080505D01*
X153882932Y-71061371D01*
X153881478Y-70824911D01*
X154055180Y-70822242D01*
X154065048Y-70825531D01*
X154078357Y-70821886D01*
X154080637Y-70821851D01*
X154081448Y-70821039D01*
X154083864Y-70820378D01*
X154132372Y-70793279D01*
X154137780Y-70793279D01*
X154154001Y-70782440D01*
X154156153Y-70779993D01*
X154156419Y-70779845D01*
X154156501Y-70779598D01*
X154175781Y-70757685D01*
X154179977Y-70756287D01*
X154191938Y-70740875D01*
X154193328Y-70737742D01*
X154193411Y-70737649D01*
X154193411Y-70737557D01*
X154216153Y-70686334D01*
X154221983Y-70680505D01*
X154224613Y-70667279D01*
X154225663Y-70664916D01*
X154225300Y-70663827D01*
X154225789Y-70661371D01*
X154222854Y-70580537D01*
X154224481Y-70575657D01*
X154354360Y-70575657D01*
X154357010Y-70628771D01*
X154354486Y-70636345D01*
X154358034Y-70649303D01*
X154358166Y-70651934D01*
X154358977Y-70652745D01*
X154359639Y-70655161D01*
X154386738Y-70703668D01*
X154386738Y-70709076D01*
X154397576Y-70725297D01*
X154400024Y-70727451D01*
X154400172Y-70727715D01*
X154400417Y-70727796D01*
X154422332Y-70747078D01*
X154423731Y-70751274D01*
X154439143Y-70763236D01*
X154442278Y-70764627D01*
X154442368Y-70764707D01*
X154442456Y-70764707D01*
X154487290Y-70784611D01*
X154488879Y-70787259D01*
X154506519Y-70795592D01*
X154607286Y-70817828D01*
X154610572Y-70820379D01*
X154655626Y-70840381D01*
X154675375Y-70857757D01*
X154697595Y-70897532D01*
X154699310Y-70931898D01*
X154682492Y-70969778D01*
X154665115Y-70989529D01*
X154625716Y-71011540D01*
X154506591Y-71014339D01*
X154505886Y-71013937D01*
X154400815Y-70982926D01*
X154366587Y-71000040D01*
X154354486Y-71036345D01*
X154371600Y-71070573D01*
X154388549Y-71080234D01*
X154466665Y-71103289D01*
X154470941Y-71107565D01*
X154490075Y-71111371D01*
X154627189Y-71108149D01*
X154636476Y-71111245D01*
X154649714Y-71107620D01*
X154652066Y-71107565D01*
X154652876Y-71106754D01*
X154655292Y-71106093D01*
X154703801Y-71078994D01*
X154709210Y-71078994D01*
X154725431Y-71068155D01*
X154727584Y-71065707D01*
X154727848Y-71065560D01*
X154727929Y-71065314D01*
X154747212Y-71043397D01*
X154751406Y-71042000D01*
X154763368Y-71026588D01*
X154764759Y-71023453D01*
X154764840Y-71023362D01*
X154764839Y-71023272D01*
X154787581Y-70972048D01*
X154793411Y-70966219D01*
X154796042Y-70952991D01*
X154797091Y-70950629D01*
X154796728Y-70949541D01*
X154797217Y-70947085D01*
X154794566Y-70893970D01*
X154797091Y-70886398D01*
X154793542Y-70873440D01*
X154793411Y-70870808D01*
X154792599Y-70869996D01*
X154791938Y-70867582D01*
X154764839Y-70819074D01*
X154764840Y-70813666D01*
X154754002Y-70797445D01*
X154751553Y-70795290D01*
X154751406Y-70795027D01*
X154751161Y-70794945D01*
X154729246Y-70775663D01*
X154727848Y-70771468D01*
X154712436Y-70759507D01*
X154709303Y-70758116D01*
X154709210Y-70758034D01*
X154709118Y-70758034D01*
X154664286Y-70738129D01*
X154662698Y-70735483D01*
X154645059Y-70727150D01*
X154544291Y-70704913D01*
X154541007Y-70702364D01*
X154495951Y-70682360D01*
X154476201Y-70664983D01*
X154453981Y-70625208D01*
X154452266Y-70590843D01*
X154469084Y-70552963D01*
X154486462Y-70533212D01*
X154525862Y-70511201D01*
X154644986Y-70508402D01*
X154645692Y-70508805D01*
X154750761Y-70539816D01*
X154784990Y-70522702D01*
X154797091Y-70486397D01*
X154779976Y-70452169D01*
X154763028Y-70442508D01*
X154684912Y-70419452D01*
X154680637Y-70415177D01*
X154661503Y-70411371D01*
X154524389Y-70414592D01*
X154515102Y-70411497D01*
X154501863Y-70415121D01*
X154499512Y-70415177D01*
X154498701Y-70415987D01*
X154496286Y-70416649D01*
X154447776Y-70443748D01*
X154442368Y-70443749D01*
X154426147Y-70454587D01*
X154423992Y-70457035D01*
X154423731Y-70457182D01*
X154423649Y-70457425D01*
X154404366Y-70479342D01*
X154400172Y-70480741D01*
X154388211Y-70496153D01*
X154386819Y-70499287D01*
X154386738Y-70499380D01*
X154386738Y-70499470D01*
X154363995Y-70550693D01*
X154358166Y-70556523D01*
X154355535Y-70569748D01*
X154354486Y-70572112D01*
X154354848Y-70573200D01*
X154354360Y-70575657D01*
X154224481Y-70575657D01*
X154225663Y-70572112D01*
X154222073Y-70559003D01*
X154221983Y-70556523D01*
X154221171Y-70555711D01*
X154220510Y-70553296D01*
X154193410Y-70504787D01*
X154193411Y-70499380D01*
X154182573Y-70483159D01*
X154180124Y-70481004D01*
X154179977Y-70480741D01*
X154179732Y-70480659D01*
X154157817Y-70461377D01*
X154156419Y-70457182D01*
X154141007Y-70445221D01*
X154137874Y-70443830D01*
X154137781Y-70443748D01*
X154137689Y-70443748D01*
X154086466Y-70421006D01*
X154080637Y-70415177D01*
X154067409Y-70412545D01*
X154065047Y-70411497D01*
X154063959Y-70411859D01*
X154061503Y-70411371D01*
X153813798Y-70415177D01*
X153786738Y-70442237D01*
X153782932Y-70461371D01*
X153586386Y-70461371D01*
X153584990Y-70457182D01*
X153569578Y-70445221D01*
X153515038Y-70421006D01*
X153509209Y-70415177D01*
X153495983Y-70412546D01*
X153493620Y-70411497D01*
X153492531Y-70411859D01*
X153490075Y-70411371D01*
X153413231Y-70414160D01*
X153407904Y-70411497D01*
X153388548Y-70413937D01*
X153308498Y-70443748D01*
X153299511Y-70443748D01*
X153288196Y-70451308D01*
X153285886Y-70452169D01*
X153285372Y-70453195D01*
X153283290Y-70454587D01*
X153234295Y-70507461D01*
X153228743Y-70509312D01*
X153216782Y-70524724D01*
X153215386Y-70527867D01*
X153215309Y-70527951D01*
X153215309Y-70528041D01*
X153195404Y-70572873D01*
X153192758Y-70574462D01*
X153184425Y-70592101D01*
X153161483Y-70696062D01*
X153158166Y-70699380D01*
X153154360Y-70718514D01*
X152091639Y-70718514D01*
X152030005Y-70704913D01*
X152026721Y-70702364D01*
X151981665Y-70682360D01*
X151961915Y-70664983D01*
X151939695Y-70625208D01*
X151937980Y-70590843D01*
X151954798Y-70552963D01*
X151972176Y-70533212D01*
X152011576Y-70511201D01*
X152130700Y-70508402D01*
X152131406Y-70508805D01*
X152236475Y-70539816D01*
X152270704Y-70522702D01*
X152282805Y-70486397D01*
X152265690Y-70452169D01*
X152248742Y-70442508D01*
X152170626Y-70419452D01*
X152166351Y-70415177D01*
X152147217Y-70411371D01*
X152010103Y-70414592D01*
X152000816Y-70411497D01*
X151987577Y-70415121D01*
X151985226Y-70415177D01*
X151984415Y-70415987D01*
X151982000Y-70416649D01*
X151933490Y-70443748D01*
X151928082Y-70443749D01*
X151911861Y-70454587D01*
X151909706Y-70457035D01*
X151909445Y-70457182D01*
X151909363Y-70457425D01*
X151890080Y-70479342D01*
X151885886Y-70480741D01*
X151873925Y-70496153D01*
X151872533Y-70499287D01*
X151872452Y-70499380D01*
X151872452Y-70499470D01*
X151849709Y-70550693D01*
X151843880Y-70556523D01*
X151841249Y-70569748D01*
X151840200Y-70572112D01*
X151840562Y-70573200D01*
X151840074Y-70575657D01*
X151674183Y-70575657D01*
X151650554Y-70533360D01*
X151650554Y-70527950D01*
X151639715Y-70511729D01*
X151637133Y-70509336D01*
X151637120Y-70509313D01*
X151637100Y-70509306D01*
X151583893Y-70460003D01*
X151579976Y-70452169D01*
X151568185Y-70445448D01*
X151566351Y-70443748D01*
X151565203Y-70443748D01*
X151563028Y-70442508D01*
X151484912Y-70419452D01*
X151480637Y-70415177D01*
X151461503Y-70411371D01*
X151299512Y-70415177D01*
X151272452Y-70442237D01*
X151268646Y-70461371D01*
X151014958Y-70461371D01*
X151013562Y-70457182D01*
X150998150Y-70445221D01*
X150995017Y-70443830D01*
X150994924Y-70443748D01*
X150994832Y-70443748D01*
X150943609Y-70421006D01*
X150937780Y-70415177D01*
X150924552Y-70412545D01*
X150922190Y-70411497D01*
X150921102Y-70411859D01*
X150918646Y-70411371D01*
X150699512Y-70415177D01*
X150672452Y-70442237D01*
X150668646Y-70461371D01*
X150601979Y-70461371D01*
X150601979Y-70344704D01*
X154863884Y-70344704D01*
X154863884Y-71178038D01*
G37*
G36*
X156434363Y-83049944D02*
G01*
X154661979Y-83049944D01*
X154661979Y-82924525D01*
X155272453Y-82924525D01*
X155279958Y-82962050D01*
X155311799Y-82983277D01*
X155349324Y-82975772D01*
X155363104Y-82961963D01*
X155872368Y-82191371D01*
X155985788Y-82191371D01*
X155989594Y-82810505D01*
X156016654Y-82837565D01*
X156054922Y-82837565D01*
X156081982Y-82810505D01*
X156085788Y-82791371D01*
X156084158Y-82526244D01*
X156254922Y-82523279D01*
X156281982Y-82496219D01*
X156281982Y-82457951D01*
X156254922Y-82430891D01*
X156235788Y-82427085D01*
X156083564Y-82429728D01*
X156082403Y-82240789D01*
X156340636Y-82237565D01*
X156367696Y-82210505D01*
X156367696Y-82172237D01*
X156340636Y-82145177D01*
X156321502Y-82141371D01*
X156016654Y-82145177D01*
X155989594Y-82172237D01*
X155985788Y-82191371D01*
X155872368Y-82191371D01*
X155884837Y-82172504D01*
X155877332Y-82134978D01*
X155845491Y-82113751D01*
X155807966Y-82121256D01*
X155794185Y-82135065D01*
X155272453Y-82924525D01*
X154661979Y-82924525D01*
X154661979Y-82191371D01*
X154728646Y-82191371D01*
X154732452Y-82810505D01*
X154759512Y-82837565D01*
X154797780Y-82837565D01*
X154824840Y-82810505D01*
X154828646Y-82791371D01*
X154826075Y-82373190D01*
X155075268Y-82803903D01*
X155075309Y-82810505D01*
X155084274Y-82819470D01*
X155090889Y-82830903D01*
X155097513Y-82832709D01*
X155102369Y-82837565D01*
X155115317Y-82837565D01*
X155127809Y-82840972D01*
X155133771Y-82837565D01*
X155140637Y-82837565D01*
X155149790Y-82828411D01*
X155161035Y-82821986D01*
X155162842Y-82815359D01*
X155167697Y-82810505D01*
X155171503Y-82791371D01*
X155167697Y-82172237D01*
X155140637Y-82145177D01*
X155102369Y-82145177D01*
X155075309Y-82172237D01*
X155071503Y-82191371D01*
X155074073Y-82609550D01*
X154824880Y-82178836D01*
X154824840Y-82172237D01*
X154815876Y-82163273D01*
X154809261Y-82151839D01*
X154802634Y-82150031D01*
X154797780Y-82145177D01*
X154784833Y-82145177D01*
X154772340Y-82141770D01*
X154766378Y-82145177D01*
X154759512Y-82145177D01*
X154750358Y-82154330D01*
X154739114Y-82160756D01*
X154737306Y-82167382D01*
X154732452Y-82172237D01*
X154728646Y-82191371D01*
X154661979Y-82191371D01*
X154661979Y-82047084D01*
X156434363Y-82047084D01*
X156434363Y-83049944D01*
G37*
G36*
X152479911Y-82316095D02*
G01*
X152499660Y-82333471D01*
X152521771Y-82373050D01*
X152524027Y-82435213D01*
X152506778Y-82474064D01*
X152489401Y-82493815D01*
X152450108Y-82515766D01*
X152276599Y-82518432D01*
X152275260Y-82300654D01*
X152439449Y-82298131D01*
X152479911Y-82316095D01*
G37*
G36*
X153079911Y-82316095D02*
G01*
X153099660Y-82333471D01*
X153121771Y-82373050D01*
X153124027Y-82435213D01*
X153106778Y-82474064D01*
X153089401Y-82493815D01*
X153050108Y-82515766D01*
X152876599Y-82518432D01*
X152875260Y-82300654D01*
X153039449Y-82298131D01*
X153079911Y-82316095D01*
G37*
G36*
X153859598Y-82968038D02*
G01*
X152111979Y-82968038D01*
X152111979Y-82251371D01*
X152178646Y-82251371D01*
X152182452Y-82870505D01*
X152209512Y-82897565D01*
X152247780Y-82897565D01*
X152274840Y-82870505D01*
X152278646Y-82851371D01*
X152277192Y-82614911D01*
X152450894Y-82612242D01*
X152460762Y-82615531D01*
X152474071Y-82611886D01*
X152476351Y-82611851D01*
X152477162Y-82611039D01*
X152479578Y-82610378D01*
X152528086Y-82583279D01*
X152533494Y-82583279D01*
X152549715Y-82572440D01*
X152551867Y-82569993D01*
X152552133Y-82569845D01*
X152552215Y-82569598D01*
X152571495Y-82547685D01*
X152575691Y-82546287D01*
X152587652Y-82530875D01*
X152589042Y-82527742D01*
X152589125Y-82527649D01*
X152589125Y-82527557D01*
X152611867Y-82476334D01*
X152617697Y-82470505D01*
X152620327Y-82457279D01*
X152621377Y-82454916D01*
X152621014Y-82453827D01*
X152621503Y-82451371D01*
X152618568Y-82370537D01*
X152621377Y-82362112D01*
X152617787Y-82349003D01*
X152617697Y-82346523D01*
X152616885Y-82345711D01*
X152616224Y-82343296D01*
X152589124Y-82294787D01*
X152589125Y-82289380D01*
X152578287Y-82273159D01*
X152575838Y-82271004D01*
X152575691Y-82270741D01*
X152575446Y-82270659D01*
X152553531Y-82251377D01*
X152553529Y-82251371D01*
X152778646Y-82251371D01*
X152782452Y-82870505D01*
X152809512Y-82897565D01*
X152847780Y-82897565D01*
X152874840Y-82870505D01*
X152878646Y-82851371D01*
X152877192Y-82614911D01*
X153050894Y-82612242D01*
X153060762Y-82615531D01*
X153074071Y-82611886D01*
X153076351Y-82611851D01*
X153077162Y-82611039D01*
X153079578Y-82610378D01*
X153128086Y-82583279D01*
X153133494Y-82583279D01*
X153149715Y-82572440D01*
X153151867Y-82569993D01*
X153152133Y-82569845D01*
X153152215Y-82569598D01*
X153171495Y-82547685D01*
X153175691Y-82546287D01*
X153187652Y-82530875D01*
X153189042Y-82527742D01*
X153189125Y-82527649D01*
X153189125Y-82527557D01*
X153211867Y-82476334D01*
X153217697Y-82470505D01*
X153220327Y-82457279D01*
X153221377Y-82454916D01*
X153221014Y-82453827D01*
X153221503Y-82451371D01*
X153218568Y-82370537D01*
X153220195Y-82365657D01*
X153350074Y-82365657D01*
X153352724Y-82418771D01*
X153350200Y-82426345D01*
X153353748Y-82439303D01*
X153353880Y-82441934D01*
X153354691Y-82442745D01*
X153355353Y-82445161D01*
X153382452Y-82493668D01*
X153382452Y-82499076D01*
X153393290Y-82515297D01*
X153395738Y-82517451D01*
X153395886Y-82517715D01*
X153396131Y-82517796D01*
X153418046Y-82537078D01*
X153419445Y-82541274D01*
X153434857Y-82553236D01*
X153437992Y-82554627D01*
X153438082Y-82554707D01*
X153438170Y-82554707D01*
X153483004Y-82574611D01*
X153484593Y-82577259D01*
X153502233Y-82585592D01*
X153603000Y-82607828D01*
X153606286Y-82610379D01*
X153651340Y-82630381D01*
X153671089Y-82647757D01*
X153693309Y-82687532D01*
X153695024Y-82721898D01*
X153678206Y-82759778D01*
X153660829Y-82779529D01*
X153621430Y-82801540D01*
X153502305Y-82804339D01*
X153501600Y-82803937D01*
X153396529Y-82772926D01*
X153362301Y-82790040D01*
X153350200Y-82826345D01*
X153367314Y-82860573D01*
X153384263Y-82870234D01*
X153462379Y-82893289D01*
X153466655Y-82897565D01*
X153485789Y-82901371D01*
X153622903Y-82898149D01*
X153632190Y-82901245D01*
X153645428Y-82897620D01*
X153647780Y-82897565D01*
X153648590Y-82896754D01*
X153651006Y-82896093D01*
X153699515Y-82868994D01*
X153704924Y-82868994D01*
X153721145Y-82858155D01*
X153723298Y-82855707D01*
X153723562Y-82855560D01*
X153723643Y-82855314D01*
X153742926Y-82833397D01*
X153747120Y-82832000D01*
X153759082Y-82816588D01*
X153760473Y-82813453D01*
X153760554Y-82813362D01*
X153760553Y-82813272D01*
X153783295Y-82762048D01*
X153789125Y-82756219D01*
X153791756Y-82742991D01*
X153792805Y-82740629D01*
X153792442Y-82739541D01*
X153792931Y-82737085D01*
X153790280Y-82683970D01*
X153792805Y-82676398D01*
X153789256Y-82663440D01*
X153789125Y-82660808D01*
X153788313Y-82659996D01*
X153787652Y-82657582D01*
X153760553Y-82609074D01*
X153760554Y-82603666D01*
X153749716Y-82587445D01*
X153747267Y-82585290D01*
X153747120Y-82585027D01*
X153746875Y-82584945D01*
X153724960Y-82565663D01*
X153723562Y-82561468D01*
X153708150Y-82549507D01*
X153705017Y-82548116D01*
X153704924Y-82548034D01*
X153704832Y-82548034D01*
X153660000Y-82528129D01*
X153658412Y-82525483D01*
X153640773Y-82517150D01*
X153540005Y-82494913D01*
X153536721Y-82492364D01*
X153491665Y-82472360D01*
X153471915Y-82454983D01*
X153449695Y-82415208D01*
X153447980Y-82380843D01*
X153464798Y-82342963D01*
X153482176Y-82323212D01*
X153521576Y-82301201D01*
X153640700Y-82298402D01*
X153641406Y-82298805D01*
X153746475Y-82329816D01*
X153780704Y-82312702D01*
X153792805Y-82276397D01*
X153775690Y-82242169D01*
X153758742Y-82232508D01*
X153680626Y-82209452D01*
X153676351Y-82205177D01*
X153657217Y-82201371D01*
X153520103Y-82204592D01*
X153510816Y-82201497D01*
X153497577Y-82205121D01*
X153495226Y-82205177D01*
X153494415Y-82205987D01*
X153492000Y-82206649D01*
X153443490Y-82233748D01*
X153438082Y-82233749D01*
X153421861Y-82244587D01*
X153419706Y-82247035D01*
X153419445Y-82247182D01*
X153419363Y-82247425D01*
X153400080Y-82269342D01*
X153395886Y-82270741D01*
X153383925Y-82286153D01*
X153382533Y-82289287D01*
X153382452Y-82289380D01*
X153382452Y-82289470D01*
X153359709Y-82340693D01*
X153353880Y-82346523D01*
X153351249Y-82359748D01*
X153350200Y-82362112D01*
X153350562Y-82363200D01*
X153350074Y-82365657D01*
X153220195Y-82365657D01*
X153221377Y-82362112D01*
X153217787Y-82349003D01*
X153217697Y-82346523D01*
X153216885Y-82345711D01*
X153216224Y-82343296D01*
X153189124Y-82294787D01*
X153189125Y-82289380D01*
X153178287Y-82273159D01*
X153175838Y-82271004D01*
X153175691Y-82270741D01*
X153175446Y-82270659D01*
X153153531Y-82251377D01*
X153152133Y-82247182D01*
X153136721Y-82235221D01*
X153133588Y-82233830D01*
X153133495Y-82233748D01*
X153133403Y-82233748D01*
X153082180Y-82211006D01*
X153076351Y-82205177D01*
X153063123Y-82202545D01*
X153060761Y-82201497D01*
X153059673Y-82201859D01*
X153057217Y-82201371D01*
X152809512Y-82205177D01*
X152782452Y-82232237D01*
X152778646Y-82251371D01*
X152553529Y-82251371D01*
X152552133Y-82247182D01*
X152536721Y-82235221D01*
X152533588Y-82233830D01*
X152533495Y-82233748D01*
X152533403Y-82233748D01*
X152482180Y-82211006D01*
X152476351Y-82205177D01*
X152463123Y-82202545D01*
X152460761Y-82201497D01*
X152459673Y-82201859D01*
X152457217Y-82201371D01*
X152209512Y-82205177D01*
X152182452Y-82232237D01*
X152178646Y-82251371D01*
X152111979Y-82251371D01*
X152111979Y-82134704D01*
X153859598Y-82134704D01*
X153859598Y-82968038D01*
G37*
G36*
X157619911Y-82316095D02*
G01*
X157639660Y-82333471D01*
X157661771Y-82373050D01*
X157664027Y-82435213D01*
X157646778Y-82474064D01*
X157629401Y-82493815D01*
X157590108Y-82515766D01*
X157502247Y-82517116D01*
X157500688Y-82516841D01*
X157500251Y-82517146D01*
X157416599Y-82518432D01*
X157415260Y-82300654D01*
X157579449Y-82298131D01*
X157619911Y-82316095D01*
G37*
G36*
X158910079Y-82968038D02*
G01*
X157251979Y-82968038D01*
X157251979Y-82251371D01*
X157318646Y-82251371D01*
X157322452Y-82870505D01*
X157349512Y-82897565D01*
X157387780Y-82897565D01*
X157414840Y-82870505D01*
X157418646Y-82851371D01*
X157417192Y-82614911D01*
X157484527Y-82613876D01*
X157684632Y-82893536D01*
X157722318Y-82900187D01*
X157753668Y-82878242D01*
X157760319Y-82840555D01*
X157752464Y-82822697D01*
X157603662Y-82614736D01*
X157614071Y-82611886D01*
X157616351Y-82611851D01*
X157617162Y-82611039D01*
X157619578Y-82610378D01*
X157668086Y-82583279D01*
X157673494Y-82583279D01*
X157689715Y-82572440D01*
X157691867Y-82569993D01*
X157692133Y-82569845D01*
X157692215Y-82569598D01*
X157711495Y-82547685D01*
X157715691Y-82546287D01*
X157727652Y-82530875D01*
X157729042Y-82527742D01*
X157729125Y-82527649D01*
X157729125Y-82527557D01*
X157751867Y-82476334D01*
X157757697Y-82470505D01*
X157760327Y-82457279D01*
X157761377Y-82454916D01*
X157761014Y-82453827D01*
X157761503Y-82451371D01*
X157758568Y-82370537D01*
X157760195Y-82365657D01*
X157890074Y-82365657D01*
X157892724Y-82418771D01*
X157890200Y-82426345D01*
X157893748Y-82439303D01*
X157893880Y-82441934D01*
X157894691Y-82442745D01*
X157895353Y-82445161D01*
X157922452Y-82493668D01*
X157922452Y-82499076D01*
X157933290Y-82515297D01*
X157935738Y-82517451D01*
X157935886Y-82517715D01*
X157936131Y-82517796D01*
X157958046Y-82537078D01*
X157959445Y-82541274D01*
X157974857Y-82553236D01*
X157977992Y-82554627D01*
X157978082Y-82554707D01*
X157978170Y-82554707D01*
X158023004Y-82574611D01*
X158024593Y-82577259D01*
X158042233Y-82585592D01*
X158143000Y-82607828D01*
X158146286Y-82610379D01*
X158191340Y-82630381D01*
X158211089Y-82647757D01*
X158233309Y-82687532D01*
X158235024Y-82721898D01*
X158218206Y-82759778D01*
X158200829Y-82779529D01*
X158161430Y-82801540D01*
X158042305Y-82804339D01*
X158041600Y-82803937D01*
X157936529Y-82772926D01*
X157902301Y-82790040D01*
X157890200Y-82826345D01*
X157907314Y-82860573D01*
X157924263Y-82870234D01*
X158002379Y-82893289D01*
X158006655Y-82897565D01*
X158025789Y-82901371D01*
X158162903Y-82898149D01*
X158172190Y-82901245D01*
X158185428Y-82897620D01*
X158187780Y-82897565D01*
X158188590Y-82896754D01*
X158191006Y-82896093D01*
X158239515Y-82868994D01*
X158244924Y-82868994D01*
X158261145Y-82858155D01*
X158263298Y-82855707D01*
X158263562Y-82855560D01*
X158263643Y-82855314D01*
X158282926Y-82833397D01*
X158287120Y-82832000D01*
X158299082Y-82816588D01*
X158300473Y-82813453D01*
X158300554Y-82813362D01*
X158300553Y-82813272D01*
X158323295Y-82762048D01*
X158329125Y-82756219D01*
X158331756Y-82742991D01*
X158332805Y-82740629D01*
X158332442Y-82739541D01*
X158332931Y-82737085D01*
X158330280Y-82683970D01*
X158332805Y-82676398D01*
X158329256Y-82663440D01*
X158329125Y-82660808D01*
X158328313Y-82659996D01*
X158327652Y-82657582D01*
X158300553Y-82609074D01*
X158300554Y-82603666D01*
X158289716Y-82587445D01*
X158287267Y-82585290D01*
X158287120Y-82585027D01*
X158286875Y-82584945D01*
X158264960Y-82565663D01*
X158263562Y-82561468D01*
X158248150Y-82549507D01*
X158245017Y-82548116D01*
X158244924Y-82548034D01*
X158244832Y-82548034D01*
X158200000Y-82528129D01*
X158198412Y-82525483D01*
X158180773Y-82517150D01*
X158080005Y-82494913D01*
X158076721Y-82492364D01*
X158031665Y-82472360D01*
X158011915Y-82454983D01*
X157989695Y-82415208D01*
X157987980Y-82380843D01*
X158004798Y-82342963D01*
X158022176Y-82323212D01*
X158061576Y-82301201D01*
X158180700Y-82298402D01*
X158181406Y-82298805D01*
X158286475Y-82329816D01*
X158320704Y-82312702D01*
X158332805Y-82276397D01*
X158315690Y-82242169D01*
X158298742Y-82232508D01*
X158297824Y-82232237D01*
X158408166Y-82232237D01*
X158408166Y-82270505D01*
X158435226Y-82297565D01*
X158454360Y-82301371D01*
X158576088Y-82300091D01*
X158579595Y-82870505D01*
X158606655Y-82897565D01*
X158644923Y-82897565D01*
X158671983Y-82870505D01*
X158675789Y-82851371D01*
X158672393Y-82299078D01*
X158816352Y-82297565D01*
X158843412Y-82270505D01*
X158843412Y-82232237D01*
X158816352Y-82205177D01*
X158797218Y-82201371D01*
X158435226Y-82205177D01*
X158408166Y-82232237D01*
X158297824Y-82232237D01*
X158220626Y-82209452D01*
X158216351Y-82205177D01*
X158197217Y-82201371D01*
X158060103Y-82204592D01*
X158050816Y-82201497D01*
X158037577Y-82205121D01*
X158035226Y-82205177D01*
X158034415Y-82205987D01*
X158032000Y-82206649D01*
X157983490Y-82233748D01*
X157978082Y-82233749D01*
X157961861Y-82244587D01*
X157959706Y-82247035D01*
X157959445Y-82247182D01*
X157959363Y-82247425D01*
X157940080Y-82269342D01*
X157935886Y-82270741D01*
X157923925Y-82286153D01*
X157922533Y-82289287D01*
X157922452Y-82289380D01*
X157922452Y-82289470D01*
X157899709Y-82340693D01*
X157893880Y-82346523D01*
X157891249Y-82359748D01*
X157890200Y-82362112D01*
X157890562Y-82363200D01*
X157890074Y-82365657D01*
X157760195Y-82365657D01*
X157761377Y-82362112D01*
X157757787Y-82349003D01*
X157757697Y-82346523D01*
X157756885Y-82345711D01*
X157756224Y-82343296D01*
X157729124Y-82294787D01*
X157729125Y-82289380D01*
X157718287Y-82273159D01*
X157715838Y-82271004D01*
X157715691Y-82270741D01*
X157715446Y-82270659D01*
X157693531Y-82251377D01*
X157692133Y-82247182D01*
X157676721Y-82235221D01*
X157673588Y-82233830D01*
X157673495Y-82233748D01*
X157673403Y-82233748D01*
X157622180Y-82211006D01*
X157616351Y-82205177D01*
X157603123Y-82202545D01*
X157600761Y-82201497D01*
X157599673Y-82201859D01*
X157597217Y-82201371D01*
X157349512Y-82205177D01*
X157322452Y-82232237D01*
X157318646Y-82251371D01*
X157251979Y-82251371D01*
X157251979Y-82134704D01*
X158910079Y-82134704D01*
X158910079Y-82968038D01*
G37*
D11*
G36*
X150488187Y-75232156D02*
G01*
X150552857Y-75295468D01*
X150586762Y-75361123D01*
X150626583Y-75515458D01*
X150627695Y-75625961D01*
X150590412Y-75780019D01*
X150556406Y-75850307D01*
X150491648Y-75916454D01*
X150392848Y-75950444D01*
X150262137Y-75951267D01*
X150260953Y-75199926D01*
X150385875Y-75199139D01*
X150488187Y-75232156D01*
G37*
G36*
X150876540Y-76200390D02*
G01*
X148342267Y-76200390D01*
X148342267Y-75110758D01*
X148442267Y-75110758D01*
X148442267Y-75140022D01*
X148453466Y-75167058D01*
X148474158Y-75187750D01*
X148501194Y-75198949D01*
X148515826Y-75200390D01*
X148698086Y-75199893D01*
X148699410Y-76040022D01*
X148710609Y-76067058D01*
X148731301Y-76087750D01*
X148758337Y-76098949D01*
X148787601Y-76098949D01*
X148814637Y-76087750D01*
X148835329Y-76067058D01*
X148846528Y-76040022D01*
X148847969Y-76025390D01*
X148846667Y-75199488D01*
X149044744Y-75198949D01*
X149071780Y-75187750D01*
X149092472Y-75167058D01*
X149103671Y-75140022D01*
X149103671Y-75125311D01*
X149169397Y-75125311D01*
X149175076Y-75154019D01*
X149181993Y-75166993D01*
X149455112Y-75575507D01*
X149175076Y-75996761D01*
X149169397Y-76025469D01*
X149175136Y-76054163D01*
X149191419Y-76078478D01*
X149215768Y-76094711D01*
X149244476Y-76100390D01*
X149273170Y-76094651D01*
X149297485Y-76078368D01*
X149306801Y-76066993D01*
X149544573Y-75709316D01*
X149791308Y-76078367D01*
X149815623Y-76094651D01*
X149844318Y-76100390D01*
X149873025Y-76094711D01*
X149897375Y-76078478D01*
X149913658Y-76054163D01*
X149919397Y-76025468D01*
X149913718Y-75996761D01*
X149906801Y-75983787D01*
X149633681Y-75575272D01*
X149913718Y-75154019D01*
X149919382Y-75125390D01*
X150112254Y-75125390D01*
X150113695Y-76040022D01*
X150124894Y-76067058D01*
X150145586Y-76087750D01*
X150172622Y-76098949D01*
X150187254Y-76100390D01*
X150400336Y-76099048D01*
X150410920Y-76099801D01*
X150414624Y-76098958D01*
X150416172Y-76098949D01*
X150418003Y-76098190D01*
X150425257Y-76096541D01*
X150542832Y-76056092D01*
X150544742Y-76056092D01*
X150554106Y-76052213D01*
X150567254Y-76047690D01*
X150569290Y-76045923D01*
X150571779Y-76044893D01*
X150583144Y-76035566D01*
X150667687Y-75949209D01*
X150675076Y-75942802D01*
X150677084Y-75939611D01*
X150678186Y-75938486D01*
X150678943Y-75936658D01*
X150682908Y-75930359D01*
X150722485Y-75848554D01*
X150726497Y-75843140D01*
X150730429Y-75832133D01*
X150731020Y-75830913D01*
X150731058Y-75830373D01*
X150731444Y-75829294D01*
X150771957Y-75661890D01*
X150775099Y-75654307D01*
X150775995Y-75645207D01*
X150776452Y-75643320D01*
X150776288Y-75642224D01*
X150776540Y-75639675D01*
X150775288Y-75515278D01*
X150776452Y-75507459D01*
X150775118Y-75498444D01*
X150775099Y-75496472D01*
X150774676Y-75495451D01*
X150774301Y-75492914D01*
X150731539Y-75327184D01*
X150731020Y-75319866D01*
X150726819Y-75308890D01*
X150726497Y-75307639D01*
X150726174Y-75307203D01*
X150725765Y-75306134D01*
X150681758Y-75220916D01*
X150678186Y-75212293D01*
X150675809Y-75209396D01*
X150675076Y-75207977D01*
X150673577Y-75206677D01*
X150668859Y-75200928D01*
X150590179Y-75123901D01*
X150589361Y-75122264D01*
X150581877Y-75115773D01*
X150571778Y-75105886D01*
X150569289Y-75104855D01*
X150567254Y-75103090D01*
X150553828Y-75097096D01*
X150425381Y-75055645D01*
X150416172Y-75051831D01*
X150412413Y-75051460D01*
X150410920Y-75050979D01*
X150408945Y-75051119D01*
X150401540Y-75050390D01*
X150172622Y-75051831D01*
X150145586Y-75063030D01*
X150124894Y-75083722D01*
X150113695Y-75110758D01*
X150112254Y-75125390D01*
X149919382Y-75125390D01*
X149919397Y-75125312D01*
X149913658Y-75096617D01*
X149897375Y-75072302D01*
X149873025Y-75056069D01*
X149844318Y-75050390D01*
X149815623Y-75056129D01*
X149791308Y-75072413D01*
X149781993Y-75083788D01*
X149544221Y-75441463D01*
X149297485Y-75072412D01*
X149273170Y-75056129D01*
X149244476Y-75050390D01*
X149215768Y-75056069D01*
X149191419Y-75072302D01*
X149175136Y-75096617D01*
X149169397Y-75125311D01*
X149103671Y-75125311D01*
X149103671Y-75110758D01*
X149092472Y-75083722D01*
X149071780Y-75063030D01*
X149044744Y-75051831D01*
X149030112Y-75050390D01*
X148501194Y-75051831D01*
X148474158Y-75063030D01*
X148453466Y-75083722D01*
X148442267Y-75110758D01*
X148342267Y-75110758D01*
X148342267Y-74950390D01*
X150876540Y-74950390D01*
X150876540Y-76200390D01*
G37*
D12*
G36*
X157509911Y-70506095D02*
G01*
X157529660Y-70523471D01*
X157551771Y-70563050D01*
X157554027Y-70625213D01*
X157536778Y-70664064D01*
X157519401Y-70683815D01*
X157480108Y-70705766D01*
X157306599Y-70708432D01*
X157305260Y-70490654D01*
X157469449Y-70488131D01*
X157509911Y-70506095D01*
G37*
G36*
X161889598Y-71158038D02*
G01*
X156513407Y-71158038D01*
X156513407Y-70698514D01*
X156580074Y-70698514D01*
X156582787Y-70773255D01*
X156580619Y-70776869D01*
X156581567Y-70796355D01*
X156610057Y-70898201D01*
X156608772Y-70902058D01*
X156613924Y-70920874D01*
X156641023Y-70969382D01*
X156641023Y-70974791D01*
X156651862Y-70991012D01*
X156654441Y-70993402D01*
X156654457Y-70993430D01*
X156654479Y-70993437D01*
X156707682Y-71042738D01*
X156711600Y-71050573D01*
X156723389Y-71057292D01*
X156725225Y-71058994D01*
X156726374Y-71058994D01*
X156728549Y-71060234D01*
X156806664Y-71083289D01*
X156810940Y-71087565D01*
X156830074Y-71091371D01*
X156833470Y-71091201D01*
X156833618Y-71091245D01*
X156833730Y-71091188D01*
X156879038Y-71088927D01*
X156883673Y-71091245D01*
X156903028Y-71088805D01*
X156983078Y-71058994D01*
X156992065Y-71058994D01*
X157003379Y-71051433D01*
X157005690Y-71050573D01*
X157006203Y-71049546D01*
X157008286Y-71048155D01*
X157047697Y-71003362D01*
X157051503Y-70984228D01*
X157047697Y-70765094D01*
X157020637Y-70738034D01*
X157001503Y-70734228D01*
X156868083Y-70738034D01*
X156841023Y-70765094D01*
X156841023Y-70803362D01*
X156868083Y-70830422D01*
X156887217Y-70834228D01*
X156952339Y-70832370D01*
X156954590Y-70962008D01*
X156948964Y-70968402D01*
X156887264Y-70991380D01*
X156887217Y-70991371D01*
X156844425Y-70993506D01*
X156774905Y-70972987D01*
X156731795Y-70933040D01*
X156707288Y-70889172D01*
X156707153Y-70886387D01*
X156679451Y-70787359D01*
X156680074Y-70784228D01*
X156677486Y-70712957D01*
X156678581Y-70710641D01*
X156700817Y-70609873D01*
X156703368Y-70606588D01*
X156723332Y-70561619D01*
X156766522Y-70515010D01*
X156830026Y-70491361D01*
X156830074Y-70491371D01*
X156899631Y-70488846D01*
X156969387Y-70519816D01*
X157005691Y-70507715D01*
X157022805Y-70473487D01*
X157012100Y-70441371D01*
X157208646Y-70441371D01*
X157212452Y-71060505D01*
X157239512Y-71087565D01*
X157277780Y-71087565D01*
X157304840Y-71060505D01*
X157308646Y-71041371D01*
X157307192Y-70804911D01*
X157480894Y-70802242D01*
X157490762Y-70805531D01*
X157504071Y-70801886D01*
X157506351Y-70801851D01*
X157507162Y-70801039D01*
X157509578Y-70800378D01*
X157558086Y-70773279D01*
X157563494Y-70773279D01*
X157579715Y-70762440D01*
X157581867Y-70759993D01*
X157582133Y-70759845D01*
X157582215Y-70759598D01*
X157601495Y-70737685D01*
X157605691Y-70736287D01*
X157617652Y-70720875D01*
X157619042Y-70717742D01*
X157619125Y-70717649D01*
X157619125Y-70717557D01*
X157641867Y-70666334D01*
X157647697Y-70660505D01*
X157650327Y-70647279D01*
X157651377Y-70644916D01*
X157651014Y-70643827D01*
X157651503Y-70641371D01*
X157648568Y-70560537D01*
X157650195Y-70555657D01*
X157780074Y-70555657D01*
X157782724Y-70608771D01*
X157780200Y-70616345D01*
X157783748Y-70629303D01*
X157783880Y-70631934D01*
X157784691Y-70632745D01*
X157785353Y-70635161D01*
X157812452Y-70683668D01*
X157812452Y-70689076D01*
X157823290Y-70705297D01*
X157825738Y-70707451D01*
X157825886Y-70707715D01*
X157826131Y-70707796D01*
X157848046Y-70727078D01*
X157849445Y-70731274D01*
X157864857Y-70743236D01*
X157867992Y-70744627D01*
X157868082Y-70744707D01*
X157868170Y-70744707D01*
X157913004Y-70764611D01*
X157914593Y-70767259D01*
X157932233Y-70775592D01*
X158033000Y-70797828D01*
X158036286Y-70800379D01*
X158081340Y-70820381D01*
X158101089Y-70837757D01*
X158123309Y-70877532D01*
X158125024Y-70911898D01*
X158108206Y-70949778D01*
X158090829Y-70969529D01*
X158051430Y-70991540D01*
X157932305Y-70994339D01*
X157931600Y-70993937D01*
X157826529Y-70962926D01*
X157792301Y-70980040D01*
X157780200Y-71016345D01*
X157797314Y-71050573D01*
X157814263Y-71060234D01*
X157892379Y-71083289D01*
X157896655Y-71087565D01*
X157915789Y-71091371D01*
X158052903Y-71088149D01*
X158062190Y-71091245D01*
X158075428Y-71087620D01*
X158077780Y-71087565D01*
X158078590Y-71086754D01*
X158081006Y-71086093D01*
X158129515Y-71058994D01*
X158134924Y-71058994D01*
X158151145Y-71048155D01*
X158153298Y-71045707D01*
X158153562Y-71045560D01*
X158153643Y-71045314D01*
X158172926Y-71023397D01*
X158177120Y-71022000D01*
X158189082Y-71006588D01*
X158190473Y-71003453D01*
X158190554Y-71003362D01*
X158190553Y-71003272D01*
X158213295Y-70952048D01*
X158219125Y-70946219D01*
X158221756Y-70932991D01*
X158222805Y-70930629D01*
X158222442Y-70929541D01*
X158222931Y-70927085D01*
X158220280Y-70873970D01*
X158222805Y-70866398D01*
X158219256Y-70853440D01*
X158219125Y-70850808D01*
X158218313Y-70849996D01*
X158217652Y-70847582D01*
X158190553Y-70799074D01*
X158190554Y-70793666D01*
X158383881Y-70793666D01*
X158383881Y-70831934D01*
X158410941Y-70858994D01*
X158430075Y-70862800D01*
X158906352Y-70858994D01*
X158933412Y-70831934D01*
X158933412Y-70793666D01*
X158906352Y-70766606D01*
X158887218Y-70762800D01*
X158410941Y-70766606D01*
X158383881Y-70793666D01*
X158190554Y-70793666D01*
X158179716Y-70777445D01*
X158177267Y-70775290D01*
X158177120Y-70775027D01*
X158176875Y-70774945D01*
X158154960Y-70755663D01*
X158153562Y-70751468D01*
X158138150Y-70739507D01*
X158135017Y-70738116D01*
X158134924Y-70738034D01*
X158134832Y-70738034D01*
X158090000Y-70718129D01*
X158088412Y-70715483D01*
X158070773Y-70707150D01*
X158031639Y-70698514D01*
X159094360Y-70698514D01*
X159097073Y-70773255D01*
X159094905Y-70776869D01*
X159095853Y-70796355D01*
X159124343Y-70898201D01*
X159123058Y-70902058D01*
X159128210Y-70920874D01*
X159155309Y-70969382D01*
X159155309Y-70974791D01*
X159166148Y-70991012D01*
X159168727Y-70993402D01*
X159168743Y-70993430D01*
X159168765Y-70993437D01*
X159221968Y-71042738D01*
X159225886Y-71050573D01*
X159237675Y-71057292D01*
X159239511Y-71058994D01*
X159240660Y-71058994D01*
X159242835Y-71060234D01*
X159320950Y-71083289D01*
X159325226Y-71087565D01*
X159344360Y-71091371D01*
X159347756Y-71091201D01*
X159347904Y-71091245D01*
X159348016Y-71091188D01*
X159393324Y-71088927D01*
X159397959Y-71091245D01*
X159417314Y-71088805D01*
X159497364Y-71058994D01*
X159506351Y-71058994D01*
X159517665Y-71051433D01*
X159519976Y-71050573D01*
X159520489Y-71049546D01*
X159522572Y-71048155D01*
X159561983Y-71003362D01*
X159565789Y-70984228D01*
X159561983Y-70765094D01*
X159534923Y-70738034D01*
X159515789Y-70734228D01*
X159382369Y-70738034D01*
X159355309Y-70765094D01*
X159355309Y-70803362D01*
X159382369Y-70830422D01*
X159401503Y-70834228D01*
X159466625Y-70832370D01*
X159468876Y-70962008D01*
X159463250Y-70968402D01*
X159401550Y-70991380D01*
X159401503Y-70991371D01*
X159358711Y-70993506D01*
X159289191Y-70972987D01*
X159246081Y-70933040D01*
X159221574Y-70889172D01*
X159221439Y-70886387D01*
X159193737Y-70787359D01*
X159194360Y-70784228D01*
X159191772Y-70712957D01*
X159192867Y-70710641D01*
X159215103Y-70609873D01*
X159217654Y-70606588D01*
X159237618Y-70561619D01*
X159280808Y-70515010D01*
X159344312Y-70491361D01*
X159344360Y-70491371D01*
X159413917Y-70488846D01*
X159483673Y-70519816D01*
X159519977Y-70507715D01*
X159537091Y-70473487D01*
X159526386Y-70441371D01*
X159722932Y-70441371D01*
X159726738Y-71060505D01*
X159753798Y-71087565D01*
X159772932Y-71091371D01*
X160077780Y-71087565D01*
X160104840Y-71060505D01*
X160104840Y-71022237D01*
X160077780Y-70995177D01*
X160058646Y-70991371D01*
X159822642Y-70994317D01*
X159819244Y-70441371D01*
X160208646Y-70441371D01*
X160212452Y-71060505D01*
X160239512Y-71087565D01*
X160277780Y-71087565D01*
X160304840Y-71060505D01*
X160308646Y-71041371D01*
X160306075Y-70623190D01*
X160555268Y-71053903D01*
X160555309Y-71060505D01*
X160564274Y-71069470D01*
X160570889Y-71080903D01*
X160577513Y-71082709D01*
X160582369Y-71087565D01*
X160595317Y-71087565D01*
X160607809Y-71090972D01*
X160613771Y-71087565D01*
X160620637Y-71087565D01*
X160629790Y-71078411D01*
X160641035Y-71071986D01*
X160642842Y-71065359D01*
X160647697Y-71060505D01*
X160651503Y-71041371D01*
X160648517Y-70555657D01*
X160808645Y-70555657D01*
X160811295Y-70608771D01*
X160808771Y-70616345D01*
X160812319Y-70629303D01*
X160812451Y-70631934D01*
X160813262Y-70632745D01*
X160813924Y-70635161D01*
X160841023Y-70683668D01*
X160841023Y-70689076D01*
X160851861Y-70705297D01*
X160854309Y-70707451D01*
X160854457Y-70707715D01*
X160854702Y-70707796D01*
X160876617Y-70727078D01*
X160878016Y-70731274D01*
X160893428Y-70743236D01*
X160896563Y-70744627D01*
X160896653Y-70744707D01*
X160896741Y-70744707D01*
X160941575Y-70764611D01*
X160943164Y-70767259D01*
X160960804Y-70775592D01*
X161061571Y-70797828D01*
X161064857Y-70800379D01*
X161109911Y-70820381D01*
X161129660Y-70837757D01*
X161151880Y-70877532D01*
X161153595Y-70911898D01*
X161136777Y-70949778D01*
X161119400Y-70969529D01*
X161080001Y-70991540D01*
X160960876Y-70994339D01*
X160960171Y-70993937D01*
X160855100Y-70962926D01*
X160820872Y-70980040D01*
X160808771Y-71016345D01*
X160825885Y-71050573D01*
X160842834Y-71060234D01*
X160920950Y-71083289D01*
X160925226Y-71087565D01*
X160944360Y-71091371D01*
X161081474Y-71088149D01*
X161090761Y-71091245D01*
X161103999Y-71087620D01*
X161106351Y-71087565D01*
X161107161Y-71086754D01*
X161109577Y-71086093D01*
X161158086Y-71058994D01*
X161163495Y-71058994D01*
X161179716Y-71048155D01*
X161181869Y-71045707D01*
X161182133Y-71045560D01*
X161182214Y-71045314D01*
X161201497Y-71023397D01*
X161205691Y-71022000D01*
X161217653Y-71006588D01*
X161219044Y-71003453D01*
X161219125Y-71003362D01*
X161219124Y-71003272D01*
X161241866Y-70952048D01*
X161247696Y-70946219D01*
X161250327Y-70932991D01*
X161251376Y-70930629D01*
X161251013Y-70929541D01*
X161251502Y-70927085D01*
X161248851Y-70873970D01*
X161251376Y-70866398D01*
X161247827Y-70853440D01*
X161247696Y-70850808D01*
X161246884Y-70849996D01*
X161246223Y-70847582D01*
X161219124Y-70799074D01*
X161219125Y-70793666D01*
X161208287Y-70777445D01*
X161205838Y-70775290D01*
X161205691Y-70775027D01*
X161205446Y-70774945D01*
X161183531Y-70755663D01*
X161182133Y-70751468D01*
X161166721Y-70739507D01*
X161163588Y-70738116D01*
X161163495Y-70738034D01*
X161163403Y-70738034D01*
X161118571Y-70718129D01*
X161116983Y-70715483D01*
X161099344Y-70707150D01*
X160998576Y-70684913D01*
X160995292Y-70682364D01*
X160950236Y-70662360D01*
X160930486Y-70644983D01*
X160908266Y-70605208D01*
X160906551Y-70570843D01*
X160913293Y-70555657D01*
X161380074Y-70555657D01*
X161382724Y-70608771D01*
X161380200Y-70616345D01*
X161383748Y-70629303D01*
X161383880Y-70631934D01*
X161384691Y-70632745D01*
X161385353Y-70635161D01*
X161412452Y-70683668D01*
X161412452Y-70689076D01*
X161423290Y-70705297D01*
X161425738Y-70707451D01*
X161425886Y-70707715D01*
X161426131Y-70707796D01*
X161448046Y-70727078D01*
X161449445Y-70731274D01*
X161464857Y-70743236D01*
X161467992Y-70744627D01*
X161468082Y-70744707D01*
X161468170Y-70744707D01*
X161513004Y-70764611D01*
X161514593Y-70767259D01*
X161532233Y-70775592D01*
X161633000Y-70797828D01*
X161636286Y-70800379D01*
X161681340Y-70820381D01*
X161701089Y-70837757D01*
X161723309Y-70877532D01*
X161725024Y-70911898D01*
X161708206Y-70949778D01*
X161690829Y-70969529D01*
X161651430Y-70991540D01*
X161532305Y-70994339D01*
X161531600Y-70993937D01*
X161426529Y-70962926D01*
X161392301Y-70980040D01*
X161380200Y-71016345D01*
X161397314Y-71050573D01*
X161414263Y-71060234D01*
X161492379Y-71083289D01*
X161496655Y-71087565D01*
X161515789Y-71091371D01*
X161652903Y-71088149D01*
X161662190Y-71091245D01*
X161675428Y-71087620D01*
X161677780Y-71087565D01*
X161678590Y-71086754D01*
X161681006Y-71086093D01*
X161729515Y-71058994D01*
X161734924Y-71058994D01*
X161751145Y-71048155D01*
X161753298Y-71045707D01*
X161753562Y-71045560D01*
X161753643Y-71045314D01*
X161772926Y-71023397D01*
X161777120Y-71022000D01*
X161789082Y-71006588D01*
X161790473Y-71003453D01*
X161790554Y-71003362D01*
X161790553Y-71003272D01*
X161813295Y-70952048D01*
X161819125Y-70946219D01*
X161821756Y-70932991D01*
X161822805Y-70930629D01*
X161822442Y-70929541D01*
X161822931Y-70927085D01*
X161820280Y-70873970D01*
X161822805Y-70866398D01*
X161819256Y-70853440D01*
X161819125Y-70850808D01*
X161818313Y-70849996D01*
X161817652Y-70847582D01*
X161790553Y-70799074D01*
X161790554Y-70793666D01*
X161779716Y-70777445D01*
X161777267Y-70775290D01*
X161777120Y-70775027D01*
X161776875Y-70774945D01*
X161754960Y-70755663D01*
X161753562Y-70751468D01*
X161738150Y-70739507D01*
X161735017Y-70738116D01*
X161734924Y-70738034D01*
X161734832Y-70738034D01*
X161690000Y-70718129D01*
X161688412Y-70715483D01*
X161670773Y-70707150D01*
X161570005Y-70684913D01*
X161566721Y-70682364D01*
X161521665Y-70662360D01*
X161501915Y-70644983D01*
X161479695Y-70605208D01*
X161477980Y-70570843D01*
X161494798Y-70532963D01*
X161512176Y-70513212D01*
X161551576Y-70491201D01*
X161670700Y-70488402D01*
X161671406Y-70488805D01*
X161776475Y-70519816D01*
X161810704Y-70502702D01*
X161822805Y-70466397D01*
X161805690Y-70432169D01*
X161788742Y-70422508D01*
X161710626Y-70399452D01*
X161706351Y-70395177D01*
X161687217Y-70391371D01*
X161550103Y-70394592D01*
X161540816Y-70391497D01*
X161527577Y-70395121D01*
X161525226Y-70395177D01*
X161524415Y-70395987D01*
X161522000Y-70396649D01*
X161473490Y-70423748D01*
X161468082Y-70423749D01*
X161451861Y-70434587D01*
X161449706Y-70437035D01*
X161449445Y-70437182D01*
X161449363Y-70437425D01*
X161430080Y-70459342D01*
X161425886Y-70460741D01*
X161413925Y-70476153D01*
X161412533Y-70479287D01*
X161412452Y-70479380D01*
X161412452Y-70479470D01*
X161389709Y-70530693D01*
X161383880Y-70536523D01*
X161381249Y-70549748D01*
X161380200Y-70552112D01*
X161380562Y-70553200D01*
X161380074Y-70555657D01*
X160913293Y-70555657D01*
X160923369Y-70532963D01*
X160940747Y-70513212D01*
X160980147Y-70491201D01*
X161099271Y-70488402D01*
X161099977Y-70488805D01*
X161205046Y-70519816D01*
X161239275Y-70502702D01*
X161251376Y-70466397D01*
X161234261Y-70432169D01*
X161217313Y-70422508D01*
X161139197Y-70399452D01*
X161134922Y-70395177D01*
X161115788Y-70391371D01*
X160978674Y-70394592D01*
X160969387Y-70391497D01*
X160956148Y-70395121D01*
X160953797Y-70395177D01*
X160952986Y-70395987D01*
X160950571Y-70396649D01*
X160902061Y-70423748D01*
X160896653Y-70423749D01*
X160880432Y-70434587D01*
X160878277Y-70437035D01*
X160878016Y-70437182D01*
X160877934Y-70437425D01*
X160858651Y-70459342D01*
X160854457Y-70460741D01*
X160842496Y-70476153D01*
X160841104Y-70479287D01*
X160841023Y-70479380D01*
X160841023Y-70479470D01*
X160818280Y-70530693D01*
X160812451Y-70536523D01*
X160809820Y-70549748D01*
X160808771Y-70552112D01*
X160809133Y-70553200D01*
X160808645Y-70555657D01*
X160648517Y-70555657D01*
X160647697Y-70422237D01*
X160620637Y-70395177D01*
X160582369Y-70395177D01*
X160555309Y-70422237D01*
X160551503Y-70441371D01*
X160554073Y-70859550D01*
X160304880Y-70428836D01*
X160304840Y-70422237D01*
X160295876Y-70413273D01*
X160289261Y-70401839D01*
X160282634Y-70400031D01*
X160277780Y-70395177D01*
X160264833Y-70395177D01*
X160252340Y-70391770D01*
X160246378Y-70395177D01*
X160239512Y-70395177D01*
X160230358Y-70404330D01*
X160219114Y-70410756D01*
X160217306Y-70417382D01*
X160212452Y-70422237D01*
X160208646Y-70441371D01*
X159819244Y-70441371D01*
X159819126Y-70422237D01*
X159792066Y-70395177D01*
X159753798Y-70395177D01*
X159726738Y-70422237D01*
X159722932Y-70441371D01*
X159526386Y-70441371D01*
X159524990Y-70437182D01*
X159509578Y-70425221D01*
X159455038Y-70401006D01*
X159449209Y-70395177D01*
X159435983Y-70392546D01*
X159433620Y-70391497D01*
X159432531Y-70391859D01*
X159430075Y-70391371D01*
X159353231Y-70394160D01*
X159347904Y-70391497D01*
X159328548Y-70393937D01*
X159248498Y-70423748D01*
X159239511Y-70423748D01*
X159228196Y-70431308D01*
X159225886Y-70432169D01*
X159225372Y-70433195D01*
X159223290Y-70434587D01*
X159174295Y-70487461D01*
X159168743Y-70489312D01*
X159156782Y-70504724D01*
X159155386Y-70507867D01*
X159155309Y-70507951D01*
X159155309Y-70508041D01*
X159135404Y-70552873D01*
X159132758Y-70554462D01*
X159124425Y-70572101D01*
X159101483Y-70676062D01*
X159098166Y-70679380D01*
X159094360Y-70698514D01*
X158031639Y-70698514D01*
X157970005Y-70684913D01*
X157966721Y-70682364D01*
X157921665Y-70662360D01*
X157901915Y-70644983D01*
X157879695Y-70605208D01*
X157877980Y-70570843D01*
X157894798Y-70532963D01*
X157912176Y-70513212D01*
X157951576Y-70491201D01*
X158070700Y-70488402D01*
X158071406Y-70488805D01*
X158176475Y-70519816D01*
X158210704Y-70502702D01*
X158222805Y-70466397D01*
X158205690Y-70432169D01*
X158188742Y-70422508D01*
X158110626Y-70399452D01*
X158106351Y-70395177D01*
X158087217Y-70391371D01*
X157950103Y-70394592D01*
X157940816Y-70391497D01*
X157927577Y-70395121D01*
X157925226Y-70395177D01*
X157924415Y-70395987D01*
X157922000Y-70396649D01*
X157873490Y-70423748D01*
X157868082Y-70423749D01*
X157851861Y-70434587D01*
X157849706Y-70437035D01*
X157849445Y-70437182D01*
X157849363Y-70437425D01*
X157830080Y-70459342D01*
X157825886Y-70460741D01*
X157813925Y-70476153D01*
X157812533Y-70479287D01*
X157812452Y-70479380D01*
X157812452Y-70479470D01*
X157789709Y-70530693D01*
X157783880Y-70536523D01*
X157781249Y-70549748D01*
X157780200Y-70552112D01*
X157780562Y-70553200D01*
X157780074Y-70555657D01*
X157650195Y-70555657D01*
X157651377Y-70552112D01*
X157647787Y-70539003D01*
X157647697Y-70536523D01*
X157646885Y-70535711D01*
X157646224Y-70533296D01*
X157619124Y-70484787D01*
X157619125Y-70479380D01*
X157608287Y-70463159D01*
X157605838Y-70461004D01*
X157605691Y-70460741D01*
X157605446Y-70460659D01*
X157583531Y-70441377D01*
X157582133Y-70437182D01*
X157566721Y-70425221D01*
X157563588Y-70423830D01*
X157563495Y-70423748D01*
X157563403Y-70423748D01*
X157512180Y-70401006D01*
X157506351Y-70395177D01*
X157493123Y-70392545D01*
X157490761Y-70391497D01*
X157489673Y-70391859D01*
X157487217Y-70391371D01*
X157239512Y-70395177D01*
X157212452Y-70422237D01*
X157208646Y-70441371D01*
X157012100Y-70441371D01*
X157010704Y-70437182D01*
X156995292Y-70425221D01*
X156940752Y-70401006D01*
X156934923Y-70395177D01*
X156921697Y-70392546D01*
X156919334Y-70391497D01*
X156918245Y-70391859D01*
X156915789Y-70391371D01*
X156838945Y-70394160D01*
X156833618Y-70391497D01*
X156814262Y-70393937D01*
X156734212Y-70423748D01*
X156725225Y-70423748D01*
X156713910Y-70431308D01*
X156711600Y-70432169D01*
X156711086Y-70433195D01*
X156709004Y-70434587D01*
X156660009Y-70487461D01*
X156654457Y-70489312D01*
X156642496Y-70504724D01*
X156641100Y-70507867D01*
X156641023Y-70507951D01*
X156641023Y-70508041D01*
X156621118Y-70552873D01*
X156618472Y-70554462D01*
X156610139Y-70572101D01*
X156587197Y-70676062D01*
X156583880Y-70679380D01*
X156580074Y-70698514D01*
X156513407Y-70698514D01*
X156513407Y-70324704D01*
X161889598Y-70324704D01*
X161889598Y-71158038D01*
G37*
X155702857Y-81159514D02*
X155645714Y-81130942D01*
X155645714Y-81130942D02*
X155588571Y-81073800D01*
X155588571Y-81073800D02*
X155502857Y-80988085D01*
X155502857Y-80988085D02*
X155445714Y-80959514D01*
X155445714Y-80959514D02*
X155388571Y-80959514D01*
X155417142Y-81102371D02*
X155360000Y-81073800D01*
X155360000Y-81073800D02*
X155302857Y-81016657D01*
X155302857Y-81016657D02*
X155274285Y-80902371D01*
X155274285Y-80902371D02*
X155274285Y-80702371D01*
X155274285Y-80702371D02*
X155302857Y-80588085D01*
X155302857Y-80588085D02*
X155360000Y-80530942D01*
X155360000Y-80530942D02*
X155417142Y-80502371D01*
X155417142Y-80502371D02*
X155531428Y-80502371D01*
X155531428Y-80502371D02*
X155588571Y-80530942D01*
X155588571Y-80530942D02*
X155645714Y-80588085D01*
X155645714Y-80588085D02*
X155674285Y-80702371D01*
X155674285Y-80702371D02*
X155674285Y-80902371D01*
X155674285Y-80902371D02*
X155645714Y-81016657D01*
X155645714Y-81016657D02*
X155588571Y-81073800D01*
X155588571Y-81073800D02*
X155531428Y-81102371D01*
X155531428Y-81102371D02*
X155417142Y-81102371D01*
X155902856Y-80559514D02*
X155931428Y-80530942D01*
X155931428Y-80530942D02*
X155988571Y-80502371D01*
X155988571Y-80502371D02*
X156131428Y-80502371D01*
X156131428Y-80502371D02*
X156188571Y-80530942D01*
X156188571Y-80530942D02*
X156217142Y-80559514D01*
X156217142Y-80559514D02*
X156245713Y-80616657D01*
X156245713Y-80616657D02*
X156245713Y-80673800D01*
X156245713Y-80673800D02*
X156217142Y-80759514D01*
X156217142Y-80759514D02*
X155874285Y-81102371D01*
X155874285Y-81102371D02*
X156245713Y-81102371D01*
X158190000Y-77831228D02*
X158161428Y-77859800D01*
X158161428Y-77859800D02*
X158075714Y-77888371D01*
X158075714Y-77888371D02*
X158018571Y-77888371D01*
X158018571Y-77888371D02*
X157932857Y-77859800D01*
X157932857Y-77859800D02*
X157875714Y-77802657D01*
X157875714Y-77802657D02*
X157847143Y-77745514D01*
X157847143Y-77745514D02*
X157818571Y-77631228D01*
X157818571Y-77631228D02*
X157818571Y-77545514D01*
X157818571Y-77545514D02*
X157847143Y-77431228D01*
X157847143Y-77431228D02*
X157875714Y-77374085D01*
X157875714Y-77374085D02*
X157932857Y-77316942D01*
X157932857Y-77316942D02*
X158018571Y-77288371D01*
X158018571Y-77288371D02*
X158075714Y-77288371D01*
X158075714Y-77288371D02*
X158161428Y-77316942D01*
X158161428Y-77316942D02*
X158190000Y-77345514D01*
X158704286Y-77488371D02*
X158704286Y-77888371D01*
X158561428Y-77259800D02*
X158418571Y-77688371D01*
X158418571Y-77688371D02*
X158790000Y-77688371D01*
X167697857Y-81832371D02*
X167697857Y-82318085D01*
X167697857Y-82318085D02*
X167726428Y-82375228D01*
X167726428Y-82375228D02*
X167755000Y-82403800D01*
X167755000Y-82403800D02*
X167812142Y-82432371D01*
X167812142Y-82432371D02*
X167926428Y-82432371D01*
X167926428Y-82432371D02*
X167983571Y-82403800D01*
X167983571Y-82403800D02*
X168012142Y-82375228D01*
X168012142Y-82375228D02*
X168040714Y-82318085D01*
X168040714Y-82318085D02*
X168040714Y-81832371D01*
X168640713Y-82432371D02*
X168297856Y-82432371D01*
X168469285Y-82432371D02*
X168469285Y-81832371D01*
X168469285Y-81832371D02*
X168412142Y-81918085D01*
X168412142Y-81918085D02*
X168354999Y-81975228D01*
X168354999Y-81975228D02*
X168297856Y-82003800D01*
X144360000Y-84942371D02*
X144160000Y-84656657D01*
X144017143Y-84942371D02*
X144017143Y-84342371D01*
X144017143Y-84342371D02*
X144245714Y-84342371D01*
X144245714Y-84342371D02*
X144302857Y-84370942D01*
X144302857Y-84370942D02*
X144331428Y-84399514D01*
X144331428Y-84399514D02*
X144360000Y-84456657D01*
X144360000Y-84456657D02*
X144360000Y-84542371D01*
X144360000Y-84542371D02*
X144331428Y-84599514D01*
X144331428Y-84599514D02*
X144302857Y-84628085D01*
X144302857Y-84628085D02*
X144245714Y-84656657D01*
X144245714Y-84656657D02*
X144017143Y-84656657D01*
X144874286Y-84342371D02*
X144760000Y-84342371D01*
X144760000Y-84342371D02*
X144702857Y-84370942D01*
X144702857Y-84370942D02*
X144674286Y-84399514D01*
X144674286Y-84399514D02*
X144617143Y-84485228D01*
X144617143Y-84485228D02*
X144588571Y-84599514D01*
X144588571Y-84599514D02*
X144588571Y-84828085D01*
X144588571Y-84828085D02*
X144617143Y-84885228D01*
X144617143Y-84885228D02*
X144645714Y-84913800D01*
X144645714Y-84913800D02*
X144702857Y-84942371D01*
X144702857Y-84942371D02*
X144817143Y-84942371D01*
X144817143Y-84942371D02*
X144874286Y-84913800D01*
X144874286Y-84913800D02*
X144902857Y-84885228D01*
X144902857Y-84885228D02*
X144931428Y-84828085D01*
X144931428Y-84828085D02*
X144931428Y-84685228D01*
X144931428Y-84685228D02*
X144902857Y-84628085D01*
X144902857Y-84628085D02*
X144874286Y-84599514D01*
X144874286Y-84599514D02*
X144817143Y-84570942D01*
X144817143Y-84570942D02*
X144702857Y-84570942D01*
X144702857Y-84570942D02*
X144645714Y-84599514D01*
X144645714Y-84599514D02*
X144617143Y-84628085D01*
X144617143Y-84628085D02*
X144588571Y-84685228D01*
X149450000Y-82602371D02*
X149450000Y-82002371D01*
X149450000Y-82002371D02*
X149678571Y-82002371D01*
X149678571Y-82002371D02*
X149735714Y-82030942D01*
X149735714Y-82030942D02*
X149764285Y-82059514D01*
X149764285Y-82059514D02*
X149792857Y-82116657D01*
X149792857Y-82116657D02*
X149792857Y-82202371D01*
X149792857Y-82202371D02*
X149764285Y-82259514D01*
X149764285Y-82259514D02*
X149735714Y-82288085D01*
X149735714Y-82288085D02*
X149678571Y-82316657D01*
X149678571Y-82316657D02*
X149450000Y-82316657D01*
X149992857Y-82002371D02*
X150135714Y-82602371D01*
X150135714Y-82602371D02*
X150250000Y-82173800D01*
X150250000Y-82173800D02*
X150364285Y-82602371D01*
X150364285Y-82602371D02*
X150507143Y-82002371D01*
X151078571Y-82602371D02*
X150878571Y-82316657D01*
X150735714Y-82602371D02*
X150735714Y-82002371D01*
X150735714Y-82002371D02*
X150964285Y-82002371D01*
X150964285Y-82002371D02*
X151021428Y-82030942D01*
X151021428Y-82030942D02*
X151049999Y-82059514D01*
X151049999Y-82059514D02*
X151078571Y-82116657D01*
X151078571Y-82116657D02*
X151078571Y-82202371D01*
X151078571Y-82202371D02*
X151049999Y-82259514D01*
X151049999Y-82259514D02*
X151021428Y-82288085D01*
X151021428Y-82288085D02*
X150964285Y-82316657D01*
X150964285Y-82316657D02*
X150735714Y-82316657D01*
X158190000Y-81063228D02*
X158161428Y-81091800D01*
X158161428Y-81091800D02*
X158075714Y-81120371D01*
X158075714Y-81120371D02*
X158018571Y-81120371D01*
X158018571Y-81120371D02*
X157932857Y-81091800D01*
X157932857Y-81091800D02*
X157875714Y-81034657D01*
X157875714Y-81034657D02*
X157847143Y-80977514D01*
X157847143Y-80977514D02*
X157818571Y-80863228D01*
X157818571Y-80863228D02*
X157818571Y-80777514D01*
X157818571Y-80777514D02*
X157847143Y-80663228D01*
X157847143Y-80663228D02*
X157875714Y-80606085D01*
X157875714Y-80606085D02*
X157932857Y-80548942D01*
X157932857Y-80548942D02*
X158018571Y-80520371D01*
X158018571Y-80520371D02*
X158075714Y-80520371D01*
X158075714Y-80520371D02*
X158161428Y-80548942D01*
X158161428Y-80548942D02*
X158190000Y-80577514D01*
X158732857Y-80520371D02*
X158447143Y-80520371D01*
X158447143Y-80520371D02*
X158418571Y-80806085D01*
X158418571Y-80806085D02*
X158447143Y-80777514D01*
X158447143Y-80777514D02*
X158504286Y-80748942D01*
X158504286Y-80748942D02*
X158647143Y-80748942D01*
X158647143Y-80748942D02*
X158704286Y-80777514D01*
X158704286Y-80777514D02*
X158732857Y-80806085D01*
X158732857Y-80806085D02*
X158761428Y-80863228D01*
X158761428Y-80863228D02*
X158761428Y-81006085D01*
X158761428Y-81006085D02*
X158732857Y-81063228D01*
X158732857Y-81063228D02*
X158704286Y-81091800D01*
X158704286Y-81091800D02*
X158647143Y-81120371D01*
X158647143Y-81120371D02*
X158504286Y-81120371D01*
X158504286Y-81120371D02*
X158447143Y-81091800D01*
X158447143Y-81091800D02*
X158418571Y-81063228D01*
X152905000Y-72957371D02*
X152705000Y-72671657D01*
X152562143Y-72957371D02*
X152562143Y-72357371D01*
X152562143Y-72357371D02*
X152790714Y-72357371D01*
X152790714Y-72357371D02*
X152847857Y-72385942D01*
X152847857Y-72385942D02*
X152876428Y-72414514D01*
X152876428Y-72414514D02*
X152905000Y-72471657D01*
X152905000Y-72471657D02*
X152905000Y-72557371D01*
X152905000Y-72557371D02*
X152876428Y-72614514D01*
X152876428Y-72614514D02*
X152847857Y-72643085D01*
X152847857Y-72643085D02*
X152790714Y-72671657D01*
X152790714Y-72671657D02*
X152562143Y-72671657D01*
X153133571Y-72414514D02*
X153162143Y-72385942D01*
X153162143Y-72385942D02*
X153219286Y-72357371D01*
X153219286Y-72357371D02*
X153362143Y-72357371D01*
X153362143Y-72357371D02*
X153419286Y-72385942D01*
X153419286Y-72385942D02*
X153447857Y-72414514D01*
X153447857Y-72414514D02*
X153476428Y-72471657D01*
X153476428Y-72471657D02*
X153476428Y-72528800D01*
X153476428Y-72528800D02*
X153447857Y-72614514D01*
X153447857Y-72614514D02*
X153105000Y-72957371D01*
X153105000Y-72957371D02*
X153476428Y-72957371D01*
X141729999Y-83702371D02*
X141729999Y-84130942D01*
X141729999Y-84130942D02*
X141701428Y-84216657D01*
X141701428Y-84216657D02*
X141644285Y-84273800D01*
X141644285Y-84273800D02*
X141558571Y-84302371D01*
X141558571Y-84302371D02*
X141501428Y-84302371D01*
X142329999Y-84302371D02*
X141987142Y-84302371D01*
X142158571Y-84302371D02*
X142158571Y-83702371D01*
X142158571Y-83702371D02*
X142101428Y-83788085D01*
X142101428Y-83788085D02*
X142044285Y-83845228D01*
X142044285Y-83845228D02*
X141987142Y-83873800D01*
X159869999Y-68852371D02*
X159869999Y-69280942D01*
X159869999Y-69280942D02*
X159841428Y-69366657D01*
X159841428Y-69366657D02*
X159784285Y-69423800D01*
X159784285Y-69423800D02*
X159698571Y-69452371D01*
X159698571Y-69452371D02*
X159641428Y-69452371D01*
X160412857Y-69052371D02*
X160412857Y-69452371D01*
X160269999Y-68823800D02*
X160127142Y-69252371D01*
X160127142Y-69252371D02*
X160498571Y-69252371D01*
X155772857Y-72479514D02*
X155715714Y-72450942D01*
X155715714Y-72450942D02*
X155658571Y-72393800D01*
X155658571Y-72393800D02*
X155572857Y-72308085D01*
X155572857Y-72308085D02*
X155515714Y-72279514D01*
X155515714Y-72279514D02*
X155458571Y-72279514D01*
X155487142Y-72422371D02*
X155430000Y-72393800D01*
X155430000Y-72393800D02*
X155372857Y-72336657D01*
X155372857Y-72336657D02*
X155344285Y-72222371D01*
X155344285Y-72222371D02*
X155344285Y-72022371D01*
X155344285Y-72022371D02*
X155372857Y-71908085D01*
X155372857Y-71908085D02*
X155430000Y-71850942D01*
X155430000Y-71850942D02*
X155487142Y-71822371D01*
X155487142Y-71822371D02*
X155601428Y-71822371D01*
X155601428Y-71822371D02*
X155658571Y-71850942D01*
X155658571Y-71850942D02*
X155715714Y-71908085D01*
X155715714Y-71908085D02*
X155744285Y-72022371D01*
X155744285Y-72022371D02*
X155744285Y-72222371D01*
X155744285Y-72222371D02*
X155715714Y-72336657D01*
X155715714Y-72336657D02*
X155658571Y-72393800D01*
X155658571Y-72393800D02*
X155601428Y-72422371D01*
X155601428Y-72422371D02*
X155487142Y-72422371D01*
X156315713Y-72422371D02*
X155972856Y-72422371D01*
X156144285Y-72422371D02*
X156144285Y-71822371D01*
X156144285Y-71822371D02*
X156087142Y-71908085D01*
X156087142Y-71908085D02*
X156029999Y-71965228D01*
X156029999Y-71965228D02*
X155972856Y-71993800D01*
X158190000Y-76215228D02*
X158161428Y-76243800D01*
X158161428Y-76243800D02*
X158075714Y-76272371D01*
X158075714Y-76272371D02*
X158018571Y-76272371D01*
X158018571Y-76272371D02*
X157932857Y-76243800D01*
X157932857Y-76243800D02*
X157875714Y-76186657D01*
X157875714Y-76186657D02*
X157847143Y-76129514D01*
X157847143Y-76129514D02*
X157818571Y-76015228D01*
X157818571Y-76015228D02*
X157818571Y-75929514D01*
X157818571Y-75929514D02*
X157847143Y-75815228D01*
X157847143Y-75815228D02*
X157875714Y-75758085D01*
X157875714Y-75758085D02*
X157932857Y-75700942D01*
X157932857Y-75700942D02*
X158018571Y-75672371D01*
X158018571Y-75672371D02*
X158075714Y-75672371D01*
X158075714Y-75672371D02*
X158161428Y-75700942D01*
X158161428Y-75700942D02*
X158190000Y-75729514D01*
X158704286Y-75672371D02*
X158590000Y-75672371D01*
X158590000Y-75672371D02*
X158532857Y-75700942D01*
X158532857Y-75700942D02*
X158504286Y-75729514D01*
X158504286Y-75729514D02*
X158447143Y-75815228D01*
X158447143Y-75815228D02*
X158418571Y-75929514D01*
X158418571Y-75929514D02*
X158418571Y-76158085D01*
X158418571Y-76158085D02*
X158447143Y-76215228D01*
X158447143Y-76215228D02*
X158475714Y-76243800D01*
X158475714Y-76243800D02*
X158532857Y-76272371D01*
X158532857Y-76272371D02*
X158647143Y-76272371D01*
X158647143Y-76272371D02*
X158704286Y-76243800D01*
X158704286Y-76243800D02*
X158732857Y-76215228D01*
X158732857Y-76215228D02*
X158761428Y-76158085D01*
X158761428Y-76158085D02*
X158761428Y-76015228D01*
X158761428Y-76015228D02*
X158732857Y-75958085D01*
X158732857Y-75958085D02*
X158704286Y-75929514D01*
X158704286Y-75929514D02*
X158647143Y-75900942D01*
X158647143Y-75900942D02*
X158532857Y-75900942D01*
X158532857Y-75900942D02*
X158475714Y-75929514D01*
X158475714Y-75929514D02*
X158447143Y-75958085D01*
X158447143Y-75958085D02*
X158418571Y-76015228D01*
X152955000Y-80707371D02*
X152755000Y-80421657D01*
X152612143Y-80707371D02*
X152612143Y-80107371D01*
X152612143Y-80107371D02*
X152840714Y-80107371D01*
X152840714Y-80107371D02*
X152897857Y-80135942D01*
X152897857Y-80135942D02*
X152926428Y-80164514D01*
X152926428Y-80164514D02*
X152955000Y-80221657D01*
X152955000Y-80221657D02*
X152955000Y-80307371D01*
X152955000Y-80307371D02*
X152926428Y-80364514D01*
X152926428Y-80364514D02*
X152897857Y-80393085D01*
X152897857Y-80393085D02*
X152840714Y-80421657D01*
X152840714Y-80421657D02*
X152612143Y-80421657D01*
X153526428Y-80707371D02*
X153183571Y-80707371D01*
X153355000Y-80707371D02*
X153355000Y-80107371D01*
X153355000Y-80107371D02*
X153297857Y-80193085D01*
X153297857Y-80193085D02*
X153240714Y-80250228D01*
X153240714Y-80250228D02*
X153183571Y-80278800D01*
X142930000Y-68650228D02*
X142901428Y-68678800D01*
X142901428Y-68678800D02*
X142815714Y-68707371D01*
X142815714Y-68707371D02*
X142758571Y-68707371D01*
X142758571Y-68707371D02*
X142672857Y-68678800D01*
X142672857Y-68678800D02*
X142615714Y-68621657D01*
X142615714Y-68621657D02*
X142587143Y-68564514D01*
X142587143Y-68564514D02*
X142558571Y-68450228D01*
X142558571Y-68450228D02*
X142558571Y-68364514D01*
X142558571Y-68364514D02*
X142587143Y-68250228D01*
X142587143Y-68250228D02*
X142615714Y-68193085D01*
X142615714Y-68193085D02*
X142672857Y-68135942D01*
X142672857Y-68135942D02*
X142758571Y-68107371D01*
X142758571Y-68107371D02*
X142815714Y-68107371D01*
X142815714Y-68107371D02*
X142901428Y-68135942D01*
X142901428Y-68135942D02*
X142930000Y-68164514D01*
X143158571Y-68164514D02*
X143187143Y-68135942D01*
X143187143Y-68135942D02*
X143244286Y-68107371D01*
X143244286Y-68107371D02*
X143387143Y-68107371D01*
X143387143Y-68107371D02*
X143444286Y-68135942D01*
X143444286Y-68135942D02*
X143472857Y-68164514D01*
X143472857Y-68164514D02*
X143501428Y-68221657D01*
X143501428Y-68221657D02*
X143501428Y-68278800D01*
X143501428Y-68278800D02*
X143472857Y-68364514D01*
X143472857Y-68364514D02*
X143130000Y-68707371D01*
X143130000Y-68707371D02*
X143501428Y-68707371D01*
X169540000Y-69102371D02*
X169340000Y-68816657D01*
X169197143Y-69102371D02*
X169197143Y-68502371D01*
X169197143Y-68502371D02*
X169425714Y-68502371D01*
X169425714Y-68502371D02*
X169482857Y-68530942D01*
X169482857Y-68530942D02*
X169511428Y-68559514D01*
X169511428Y-68559514D02*
X169540000Y-68616657D01*
X169540000Y-68616657D02*
X169540000Y-68702371D01*
X169540000Y-68702371D02*
X169511428Y-68759514D01*
X169511428Y-68759514D02*
X169482857Y-68788085D01*
X169482857Y-68788085D02*
X169425714Y-68816657D01*
X169425714Y-68816657D02*
X169197143Y-68816657D01*
X170082857Y-68502371D02*
X169797143Y-68502371D01*
X169797143Y-68502371D02*
X169768571Y-68788085D01*
X169768571Y-68788085D02*
X169797143Y-68759514D01*
X169797143Y-68759514D02*
X169854286Y-68730942D01*
X169854286Y-68730942D02*
X169997143Y-68730942D01*
X169997143Y-68730942D02*
X170054286Y-68759514D01*
X170054286Y-68759514D02*
X170082857Y-68788085D01*
X170082857Y-68788085D02*
X170111428Y-68845228D01*
X170111428Y-68845228D02*
X170111428Y-68988085D01*
X170111428Y-68988085D02*
X170082857Y-69045228D01*
X170082857Y-69045228D02*
X170054286Y-69073800D01*
X170054286Y-69073800D02*
X169997143Y-69102371D01*
X169997143Y-69102371D02*
X169854286Y-69102371D01*
X169854286Y-69102371D02*
X169797143Y-69073800D01*
X169797143Y-69073800D02*
X169768571Y-69045228D01*
X158190000Y-79447228D02*
X158161428Y-79475800D01*
X158161428Y-79475800D02*
X158075714Y-79504371D01*
X158075714Y-79504371D02*
X158018571Y-79504371D01*
X158018571Y-79504371D02*
X157932857Y-79475800D01*
X157932857Y-79475800D02*
X157875714Y-79418657D01*
X157875714Y-79418657D02*
X157847143Y-79361514D01*
X157847143Y-79361514D02*
X157818571Y-79247228D01*
X157818571Y-79247228D02*
X157818571Y-79161514D01*
X157818571Y-79161514D02*
X157847143Y-79047228D01*
X157847143Y-79047228D02*
X157875714Y-78990085D01*
X157875714Y-78990085D02*
X157932857Y-78932942D01*
X157932857Y-78932942D02*
X158018571Y-78904371D01*
X158018571Y-78904371D02*
X158075714Y-78904371D01*
X158075714Y-78904371D02*
X158161428Y-78932942D01*
X158161428Y-78932942D02*
X158190000Y-78961514D01*
X158761428Y-79504371D02*
X158418571Y-79504371D01*
X158590000Y-79504371D02*
X158590000Y-78904371D01*
X158590000Y-78904371D02*
X158532857Y-78990085D01*
X158532857Y-78990085D02*
X158475714Y-79047228D01*
X158475714Y-79047228D02*
X158418571Y-79075800D01*
X149337500Y-68655228D02*
X149308928Y-68683800D01*
X149308928Y-68683800D02*
X149223214Y-68712371D01*
X149223214Y-68712371D02*
X149166071Y-68712371D01*
X149166071Y-68712371D02*
X149080357Y-68683800D01*
X149080357Y-68683800D02*
X149023214Y-68626657D01*
X149023214Y-68626657D02*
X148994643Y-68569514D01*
X148994643Y-68569514D02*
X148966071Y-68455228D01*
X148966071Y-68455228D02*
X148966071Y-68369514D01*
X148966071Y-68369514D02*
X148994643Y-68255228D01*
X148994643Y-68255228D02*
X149023214Y-68198085D01*
X149023214Y-68198085D02*
X149080357Y-68140942D01*
X149080357Y-68140942D02*
X149166071Y-68112371D01*
X149166071Y-68112371D02*
X149223214Y-68112371D01*
X149223214Y-68112371D02*
X149308928Y-68140942D01*
X149308928Y-68140942D02*
X149337500Y-68169514D01*
X149537500Y-68112371D02*
X149908928Y-68112371D01*
X149908928Y-68112371D02*
X149708928Y-68340942D01*
X149708928Y-68340942D02*
X149794643Y-68340942D01*
X149794643Y-68340942D02*
X149851786Y-68369514D01*
X149851786Y-68369514D02*
X149880357Y-68398085D01*
X149880357Y-68398085D02*
X149908928Y-68455228D01*
X149908928Y-68455228D02*
X149908928Y-68598085D01*
X149908928Y-68598085D02*
X149880357Y-68655228D01*
X149880357Y-68655228D02*
X149851786Y-68683800D01*
X149851786Y-68683800D02*
X149794643Y-68712371D01*
X149794643Y-68712371D02*
X149623214Y-68712371D01*
X149623214Y-68712371D02*
X149566071Y-68683800D01*
X149566071Y-68683800D02*
X149537500Y-68655228D01*
X159889999Y-84262371D02*
X159889999Y-84690942D01*
X159889999Y-84690942D02*
X159861428Y-84776657D01*
X159861428Y-84776657D02*
X159804285Y-84833800D01*
X159804285Y-84833800D02*
X159718571Y-84862371D01*
X159718571Y-84862371D02*
X159661428Y-84862371D01*
X160118571Y-84262371D02*
X160489999Y-84262371D01*
X160489999Y-84262371D02*
X160289999Y-84490942D01*
X160289999Y-84490942D02*
X160375714Y-84490942D01*
X160375714Y-84490942D02*
X160432857Y-84519514D01*
X160432857Y-84519514D02*
X160461428Y-84548085D01*
X160461428Y-84548085D02*
X160489999Y-84605228D01*
X160489999Y-84605228D02*
X160489999Y-84748085D01*
X160489999Y-84748085D02*
X160461428Y-84805228D01*
X160461428Y-84805228D02*
X160432857Y-84833800D01*
X160432857Y-84833800D02*
X160375714Y-84862371D01*
X160375714Y-84862371D02*
X160204285Y-84862371D01*
X160204285Y-84862371D02*
X160147142Y-84833800D01*
X160147142Y-84833800D02*
X160118571Y-84805228D01*
X147822857Y-70342371D02*
X147822857Y-70828085D01*
X147822857Y-70828085D02*
X147851428Y-70885228D01*
X147851428Y-70885228D02*
X147880000Y-70913800D01*
X147880000Y-70913800D02*
X147937142Y-70942371D01*
X147937142Y-70942371D02*
X148051428Y-70942371D01*
X148051428Y-70942371D02*
X148108571Y-70913800D01*
X148108571Y-70913800D02*
X148137142Y-70885228D01*
X148137142Y-70885228D02*
X148165714Y-70828085D01*
X148165714Y-70828085D02*
X148165714Y-70342371D01*
X148422856Y-70399514D02*
X148451428Y-70370942D01*
X148451428Y-70370942D02*
X148508571Y-70342371D01*
X148508571Y-70342371D02*
X148651428Y-70342371D01*
X148651428Y-70342371D02*
X148708571Y-70370942D01*
X148708571Y-70370942D02*
X148737142Y-70399514D01*
X148737142Y-70399514D02*
X148765713Y-70456657D01*
X148765713Y-70456657D02*
X148765713Y-70513800D01*
X148765713Y-70513800D02*
X148737142Y-70599514D01*
X148737142Y-70599514D02*
X148394285Y-70942371D01*
X148394285Y-70942371D02*
X148765713Y-70942371D01*
X180129999Y-79442371D02*
X180129999Y-79870942D01*
X180129999Y-79870942D02*
X180101428Y-79956657D01*
X180101428Y-79956657D02*
X180044285Y-80013800D01*
X180044285Y-80013800D02*
X179958571Y-80042371D01*
X179958571Y-80042371D02*
X179901428Y-80042371D01*
X180387142Y-79499514D02*
X180415714Y-79470942D01*
X180415714Y-79470942D02*
X180472857Y-79442371D01*
X180472857Y-79442371D02*
X180615714Y-79442371D01*
X180615714Y-79442371D02*
X180672857Y-79470942D01*
X180672857Y-79470942D02*
X180701428Y-79499514D01*
X180701428Y-79499514D02*
X180729999Y-79556657D01*
X180729999Y-79556657D02*
X180729999Y-79613800D01*
X180729999Y-79613800D02*
X180701428Y-79699514D01*
X180701428Y-79699514D02*
X180358571Y-80042371D01*
X180358571Y-80042371D02*
X180729999Y-80042371D01*
X158190000Y-73040371D02*
X157990000Y-72754657D01*
X157847143Y-73040371D02*
X157847143Y-72440371D01*
X157847143Y-72440371D02*
X158075714Y-72440371D01*
X158075714Y-72440371D02*
X158132857Y-72468942D01*
X158132857Y-72468942D02*
X158161428Y-72497514D01*
X158161428Y-72497514D02*
X158190000Y-72554657D01*
X158190000Y-72554657D02*
X158190000Y-72640371D01*
X158190000Y-72640371D02*
X158161428Y-72697514D01*
X158161428Y-72697514D02*
X158132857Y-72726085D01*
X158132857Y-72726085D02*
X158075714Y-72754657D01*
X158075714Y-72754657D02*
X157847143Y-72754657D01*
X158704286Y-72640371D02*
X158704286Y-73040371D01*
X158561428Y-72411800D02*
X158418571Y-72840371D01*
X158418571Y-72840371D02*
X158790000Y-72840371D01*
D13*
X173887143Y-77971331D02*
X173887143Y-77371331D01*
X173887143Y-77371331D02*
X174030000Y-77371331D01*
X174030000Y-77371331D02*
X174115714Y-77399902D01*
X174115714Y-77399902D02*
X174172857Y-77457045D01*
X174172857Y-77457045D02*
X174201428Y-77514188D01*
X174201428Y-77514188D02*
X174230000Y-77628474D01*
X174230000Y-77628474D02*
X174230000Y-77714188D01*
X174230000Y-77714188D02*
X174201428Y-77828474D01*
X174201428Y-77828474D02*
X174172857Y-77885617D01*
X174172857Y-77885617D02*
X174115714Y-77942760D01*
X174115714Y-77942760D02*
X174030000Y-77971331D01*
X174030000Y-77971331D02*
X173887143Y-77971331D01*
X174801428Y-77971331D02*
X174458571Y-77971331D01*
X174630000Y-77971331D02*
X174630000Y-77371331D01*
X174630000Y-77371331D02*
X174572857Y-77457045D01*
X174572857Y-77457045D02*
X174515714Y-77514188D01*
X174515714Y-77514188D02*
X174458571Y-77542760D01*
D12*
X158190000Y-74656371D02*
X157990000Y-74370657D01*
X157847143Y-74656371D02*
X157847143Y-74056371D01*
X157847143Y-74056371D02*
X158075714Y-74056371D01*
X158075714Y-74056371D02*
X158132857Y-74084942D01*
X158132857Y-74084942D02*
X158161428Y-74113514D01*
X158161428Y-74113514D02*
X158190000Y-74170657D01*
X158190000Y-74170657D02*
X158190000Y-74256371D01*
X158190000Y-74256371D02*
X158161428Y-74313514D01*
X158161428Y-74313514D02*
X158132857Y-74342085D01*
X158132857Y-74342085D02*
X158075714Y-74370657D01*
X158075714Y-74370657D02*
X157847143Y-74370657D01*
X158390000Y-74056371D02*
X158761428Y-74056371D01*
X158761428Y-74056371D02*
X158561428Y-74284942D01*
X158561428Y-74284942D02*
X158647143Y-74284942D01*
X158647143Y-74284942D02*
X158704286Y-74313514D01*
X158704286Y-74313514D02*
X158732857Y-74342085D01*
X158732857Y-74342085D02*
X158761428Y-74399228D01*
X158761428Y-74399228D02*
X158761428Y-74542085D01*
X158761428Y-74542085D02*
X158732857Y-74599228D01*
X158732857Y-74599228D02*
X158704286Y-74627800D01*
X158704286Y-74627800D02*
X158647143Y-74656371D01*
X158647143Y-74656371D02*
X158475714Y-74656371D01*
X158475714Y-74656371D02*
X158418571Y-74627800D01*
X158418571Y-74627800D02*
X158390000Y-74599228D01*
X154975000Y-77085000D02*
X154975000Y-77135000D01*
X154975000Y-77135000D02*
X154200000Y-77135000D01*
X154975000Y-80110000D02*
X154975000Y-79760000D01*
X155350000Y-76810000D02*
X154975000Y-77085000D01*
X155450000Y-80110000D02*
X154975000Y-80110000D01*
X155625000Y-76810000D02*
X155350000Y-76810000D01*
X156250000Y-76810000D02*
X156625000Y-76810000D01*
X156625000Y-76810000D02*
X156625000Y-77110000D01*
X156625000Y-79810000D02*
X156625000Y-80110000D01*
X156625000Y-79885000D02*
X156625000Y-79760000D01*
X156625000Y-80110000D02*
X156175000Y-80110000D01*
D13*
X160434420Y-77118750D02*
X160715580Y-77118750D01*
X160434420Y-78138750D02*
X160715580Y-78138750D01*
D14*
X162920000Y-71270000D02*
X172820000Y-71270000D01*
X162920000Y-81570000D02*
X172820000Y-81570000D01*
D15*
X161920000Y-71480000D02*
G75*
G02*
X161720000Y-71480000I-100000J0D01*
G01*
X161720000Y-71480000D02*
G75*
G02*
X161920000Y-71480000I100000J0D01*
G01*
D13*
X146402742Y-84097500D02*
X146877258Y-84097500D01*
X146402742Y-85142500D02*
X146877258Y-85142500D01*
X149485000Y-83380000D02*
X149485000Y-85665000D01*
X149485000Y-85665000D02*
X150955000Y-85665000D01*
X150955000Y-85665000D02*
X150955000Y-83380000D01*
X160434420Y-80198750D02*
X160715580Y-80198750D01*
X160434420Y-81218750D02*
X160715580Y-81218750D01*
X152415500Y-74372742D02*
X152415500Y-74847258D01*
X153460500Y-74372742D02*
X153460500Y-74847258D01*
X141350000Y-81420000D02*
X141350000Y-83420000D01*
X141350000Y-83420000D02*
X143350000Y-83420000D01*
X141640000Y-70510000D02*
X141640000Y-82094000D01*
X141640000Y-82094000D02*
X142576000Y-83130000D01*
X142576000Y-83130000D02*
X147610000Y-83130000D01*
X147610000Y-70510000D02*
X141640000Y-70510000D01*
X147610000Y-83130000D02*
X147610000Y-70510000D01*
D16*
X151780000Y-68025000D02*
X152415000Y-67390000D01*
X151780000Y-69295000D02*
X151780000Y-68025000D01*
X152415000Y-67390000D02*
X153685000Y-67390000D01*
X152415000Y-69930000D02*
X151780000Y-69295000D01*
X153685000Y-67390000D02*
X154320000Y-68025000D01*
X153685000Y-69930000D02*
X152415000Y-69930000D01*
X154320000Y-68025000D02*
X154955000Y-67390000D01*
X154320000Y-69295000D02*
X153685000Y-69930000D01*
X154955000Y-67390000D02*
X156225000Y-67390000D01*
X154955000Y-69930000D02*
X154320000Y-69295000D01*
X156225000Y-67390000D02*
X156860000Y-68025000D01*
X156225000Y-69930000D02*
X154955000Y-69930000D01*
X156860000Y-68025000D02*
X157495000Y-67390000D01*
X156860000Y-69295000D02*
X156225000Y-69930000D01*
X157495000Y-67390000D02*
X158765000Y-67390000D01*
X157495000Y-69930000D02*
X156860000Y-69295000D01*
X158765000Y-69930000D02*
X157495000Y-69930000D01*
X158765000Y-69930000D02*
X159400000Y-69295000D01*
X159400000Y-68025000D02*
X158765000Y-67390000D01*
X159400000Y-69295000D02*
X159400000Y-68025000D01*
D12*
X154975000Y-72840000D02*
X155425000Y-72840000D01*
X154975000Y-73065000D02*
X154975000Y-73190000D01*
X154975000Y-73140000D02*
X154975000Y-72840000D01*
X154975000Y-76140000D02*
X154975000Y-75840000D01*
X155350000Y-76140000D02*
X154975000Y-76140000D01*
X155975000Y-76140000D02*
X156250000Y-76140000D01*
X156150000Y-72840000D02*
X156625000Y-72840000D01*
X156250000Y-76140000D02*
X156625000Y-75865000D01*
X156625000Y-72840000D02*
X156625000Y-73190000D01*
X156625000Y-75815000D02*
X157400000Y-75815000D01*
X156625000Y-75865000D02*
X156625000Y-75815000D01*
D13*
X160715580Y-75578750D02*
X160434420Y-75578750D01*
X160715580Y-76598750D02*
X160434420Y-76598750D01*
X152435500Y-78697258D02*
X152435500Y-78222742D01*
X153480500Y-78697258D02*
X153480500Y-78222742D01*
X143845000Y-68490580D02*
X143845000Y-68209420D01*
X144865000Y-68490580D02*
X144865000Y-68209420D01*
X167617258Y-68257500D02*
X167142742Y-68257500D01*
X167617258Y-69302500D02*
X167142742Y-69302500D01*
X160434420Y-78658750D02*
X160715580Y-78658750D01*
X160434420Y-79678750D02*
X160715580Y-79678750D01*
X150317500Y-68229420D02*
X150317500Y-68510580D01*
X151337500Y-68229420D02*
X151337500Y-68510580D01*
D16*
X151750000Y-83975000D02*
X151750000Y-85245000D01*
X151750000Y-85245000D02*
X152385000Y-85880000D01*
X152385000Y-83340000D02*
X151750000Y-83975000D01*
X152385000Y-83340000D02*
X153655000Y-83340000D01*
X153655000Y-83340000D02*
X154290000Y-83975000D01*
X153655000Y-85880000D02*
X152385000Y-85880000D01*
X154290000Y-83975000D02*
X154925000Y-83340000D01*
X154290000Y-85245000D02*
X153655000Y-85880000D01*
X154925000Y-83340000D02*
X156195000Y-83340000D01*
X154925000Y-85880000D02*
X154290000Y-85245000D01*
X156195000Y-83340000D02*
X156830000Y-83975000D01*
X156195000Y-85880000D02*
X154925000Y-85880000D01*
X156830000Y-83975000D02*
X157465000Y-83340000D01*
X156830000Y-85245000D02*
X156195000Y-85880000D01*
X157465000Y-83340000D02*
X158735000Y-83340000D01*
X157465000Y-85880000D02*
X156830000Y-85245000D01*
X158735000Y-83340000D02*
X159370000Y-83975000D01*
X158735000Y-85880000D02*
X157465000Y-85880000D01*
X159370000Y-83975000D02*
X159370000Y-85245000D01*
X159370000Y-85245000D02*
X158735000Y-85880000D01*
D13*
X147980000Y-66860000D02*
X146180000Y-66860000D01*
X147980000Y-66860000D02*
X148780000Y-66860000D01*
X147980000Y-69980000D02*
X147180000Y-69980000D01*
X147980000Y-69980000D02*
X148780000Y-69980000D01*
D14*
X178820000Y-79460000D02*
X178820000Y-79060000D01*
X178820000Y-80060000D02*
X179070000Y-80060000D01*
X178820000Y-80460000D02*
X178820000Y-80060000D01*
X179070000Y-79460000D02*
X178820000Y-79460000D01*
X179070000Y-80060000D02*
X179070000Y-79460000D01*
D15*
X175010000Y-79740000D02*
G75*
G02*
X174810000Y-79740000I-100000J0D01*
G01*
X174810000Y-79740000D02*
G75*
G02*
X175010000Y-79740000I100000J0D01*
G01*
D13*
X160812258Y-72206250D02*
X160337742Y-72206250D01*
X160812258Y-73251250D02*
X160337742Y-73251250D01*
X173870000Y-79600000D02*
X173870000Y-78240000D01*
X174670000Y-78240000D02*
X173870000Y-78240000D01*
X174670000Y-79600000D02*
X174670000Y-78240000D01*
X160337742Y-73746250D02*
X160812258Y-73746250D01*
X160337742Y-74791250D02*
X160812258Y-74791250D01*
%LPC*%
D17*
X172360000Y-68080000D03*
X143230000Y-85100000D03*
D18*
X154750000Y-77510000D03*
X154750000Y-79410000D03*
X156850000Y-78460000D03*
D19*
X159800000Y-77628750D03*
X161350000Y-77628750D03*
D20*
X163210000Y-71950000D03*
X163210000Y-73066250D03*
X163210000Y-74182500D03*
X163210000Y-75298750D03*
X163210000Y-76415000D03*
X163210000Y-77531250D03*
X163210000Y-78647500D03*
X163210000Y-79763750D03*
X163210000Y-80880000D03*
X172530000Y-80880000D03*
X172530000Y-79763750D03*
X172530000Y-78647500D03*
X172530000Y-77531250D03*
X172530000Y-76415000D03*
X172530000Y-75298750D03*
X172530000Y-74182500D03*
X172530000Y-73066250D03*
X172530000Y-71950000D03*
D21*
X145815000Y-84620000D03*
X147465000Y-84620000D03*
D22*
X150220000Y-84967500D03*
X150220000Y-83392500D03*
D19*
X159800000Y-80708750D03*
X161350000Y-80708750D03*
D23*
X152938000Y-73785000D03*
X152938000Y-75435000D03*
D24*
X144100000Y-80570000D03*
X144100000Y-78070000D03*
X144100000Y-75570000D03*
D25*
X144100000Y-73070000D03*
D26*
X158130000Y-68660000D03*
X155590000Y-68660000D03*
X153050000Y-68660000D03*
D27*
X156850000Y-75440000D03*
X156850000Y-73540000D03*
X154750000Y-74490000D03*
D28*
X161350000Y-76088750D03*
X159800000Y-76088750D03*
D29*
X152958000Y-79285000D03*
X152958000Y-77635000D03*
D30*
X144355000Y-69125000D03*
X144355000Y-67575000D03*
D31*
X168205000Y-68780000D03*
X166555000Y-68780000D03*
D19*
X159800000Y-79168750D03*
X161350000Y-79168750D03*
D32*
X150827500Y-67595000D03*
X150827500Y-69145000D03*
D26*
X153020000Y-84610000D03*
X155560000Y-84610000D03*
X158100000Y-84610000D03*
D33*
X146842500Y-67470000D03*
X146842500Y-68420000D03*
X146842500Y-69370000D03*
X149117500Y-69370000D03*
X149117500Y-67470000D03*
D34*
X175995000Y-79760000D03*
D35*
X177520000Y-81235000D03*
X177520000Y-78285000D03*
D31*
X161400000Y-72728750D03*
X159750000Y-72728750D03*
D36*
X174270000Y-78680000D03*
X174270000Y-79520000D03*
D21*
X159750000Y-74268750D03*
X161400000Y-74268750D03*
%LPD*%
M02*
