M48
; DRILL file {KiCad 8.0.3} date 2024-07-19T17:25:20+0300
; FORMAT={-:-/ absolute / metric / decimal}
; #@! TF.CreationDate,2024-07-19T17:25:20+03:00
; #@! TF.GenerationSoftware,Kicad,Pcbnew,8.0.3
; #@! TF.FileFunction,Plated,1,2,PTH
FMAT,2
METRIC
; #@! TA.AperFunction,Plated,PTH,ViaDrill
T1C0.400
; #@! TA.AperFunction,Plated,PTH,ComponentDrill
T2C0.950
; #@! TA.AperFunction,Plated,PTH,ComponentDrill
T3C1.016
%
G90
G05
T1
X142.405Y-69.035
X142.72Y-81.99
X142.92Y-83.75
X143.76Y-71.18
X145.55Y-68.21
X145.64Y-79.33
X145.82Y-82.45
X146.16Y-74.37
X149.84Y-70.54
X151.99Y-72.01
X160.04Y-82.26
X164.737Y-73.92
X164.757Y-71.38
X164.849Y-75.299
X165.507Y-76.85
X165.537Y-79.51
X166.188Y-72.62
X166.645Y-78.21
X166.677Y-80.7
X166.937Y-75.5
X167.619Y-73.92
X167.639Y-71.38
X167.782Y-76.85
X167.812Y-79.51
X168.92Y-78.21
X168.952Y-80.7
X169.07Y-72.62
X169.105Y-75.5
X170.088Y-79.51
X170.855Y-75.51
X170.87Y-73.885
X170.89Y-71.38
X171.11Y-80.69
X171.12Y-78.21
X174.13Y-80.99
X175.23Y-81.05
X175.33Y-78.56
X175.68Y-81.93
X175.76Y-77.57
X176.55Y-77.08
X176.55Y-82.4
X177.5Y-82.39
X177.51Y-77.08
X178.45Y-77.08
X178.46Y-82.39
X179.37Y-77.07
X179.37Y-78.124
X179.37Y-79.178
X179.37Y-80.232
X179.37Y-81.286
X179.37Y-82.34
T2
X144.1Y-73.07
X144.1Y-75.57
X144.1Y-78.07
X144.1Y-80.57
T3
X153.02Y-84.61
X153.05Y-68.66
X155.56Y-84.61
X155.59Y-68.66
X158.1Y-84.61
X158.13Y-68.66
M30
