G04 #@! TF.GenerationSoftware,KiCad,Pcbnew,8.0.3*
G04 #@! TF.CreationDate,2024-07-19T17:25:19+03:00*
G04 #@! TF.ProjectId,B-GP-02-Brk-01Mbr-R01,422d4750-2d30-4322-9d42-726b2d30314d,rev?*
G04 #@! TF.SameCoordinates,Original*
G04 #@! TF.FileFunction,Copper,L2,Bot*
G04 #@! TF.FilePolarity,Positive*
%FSLAX46Y46*%
G04 Gerber Fmt 4.6, Leading zero omitted, Abs format (unit mm)*
G04 Created by KiCad (PCBNEW 8.0.3) date 2024-07-19 17:25:19*
%MOMM*%
%LPD*%
G01*
G04 APERTURE LIST*
G04 Aperture macros list*
%AMRoundRect*
0 Rectangle with rounded corners*
0 $1 Rounding radius*
0 $2 $3 $4 $5 $6 $7 $8 $9 X,Y pos of 4 corners*
0 Add a 4 corners polygon primitive as box body*
4,1,4,$2,$3,$4,$5,$6,$7,$8,$9,$2,$3,0*
0 Add four circle primitives for the rounded corners*
1,1,$1+$1,$2,$3*
1,1,$1+$1,$4,$5*
1,1,$1+$1,$6,$7*
1,1,$1+$1,$8,$9*
0 Add four rect primitives between the rounded corners*
20,1,$1+$1,$2,$3,$4,$5,0*
20,1,$1+$1,$4,$5,$6,$7,0*
20,1,$1+$1,$6,$7,$8,$9,0*
20,1,$1+$1,$8,$9,$2,$3,0*%
G04 Aperture macros list end*
G04 #@! TA.AperFunction,ComponentPad*
%ADD10O,1.950000X1.700000*%
G04 #@! TD*
G04 #@! TA.AperFunction,ComponentPad*
%ADD11RoundRect,0.250000X0.725000X-0.600000X0.725000X0.600000X-0.725000X0.600000X-0.725000X-0.600000X0*%
G04 #@! TD*
G04 #@! TA.AperFunction,ComponentPad*
%ADD12C,1.879600*%
G04 #@! TD*
G04 #@! TA.AperFunction,ViaPad*
%ADD13C,0.800000*%
G04 #@! TD*
G04 #@! TA.AperFunction,Conductor*
%ADD14C,0.250000*%
G04 #@! TD*
G04 APERTURE END LIST*
D10*
X144100000Y-80570000D03*
X144100000Y-78070000D03*
X144100000Y-75570000D03*
D11*
X144100000Y-73070000D03*
D12*
X158130000Y-68660000D03*
X155590000Y-68660000D03*
X153050000Y-68660000D03*
X153020000Y-84610000D03*
X155560000Y-84610000D03*
X158100000Y-84610000D03*
D13*
X145820000Y-82450000D03*
X170890000Y-71380000D03*
X179370000Y-81286000D03*
X179370000Y-79178000D03*
X168920000Y-78210000D03*
X167619166Y-73920000D03*
X166645000Y-78210000D03*
X164757500Y-71380000D03*
X167639166Y-71380000D03*
X170855000Y-75510000D03*
X165507500Y-76850000D03*
X164737500Y-73920000D03*
X145640000Y-79330000D03*
X142720000Y-81990000D03*
X149840000Y-70540000D03*
X146160000Y-74370000D03*
X171110000Y-80690000D03*
X169070000Y-72620000D03*
X167812500Y-79510000D03*
X151990000Y-72010000D03*
X145550000Y-68210000D03*
X166188333Y-72620000D03*
X179370000Y-80232000D03*
X175680000Y-81930000D03*
X143760000Y-71180000D03*
X177510000Y-77080000D03*
X160040000Y-82260000D03*
X170087500Y-79510000D03*
X174130000Y-80990000D03*
X142405000Y-69035000D03*
X178460000Y-82390000D03*
X179370000Y-82340000D03*
X176550000Y-77080000D03*
X179370000Y-78124000D03*
X175230000Y-81050000D03*
X167782500Y-76850000D03*
X166677500Y-80700000D03*
X178450000Y-77080000D03*
X177500000Y-82390000D03*
X179370000Y-77070000D03*
X175760000Y-77570000D03*
X168952500Y-80700000D03*
X169105000Y-75500000D03*
X171120000Y-78210000D03*
X165537500Y-79510000D03*
X170870000Y-73885000D03*
X166936666Y-75500000D03*
X175330000Y-78560000D03*
X142920000Y-83750000D03*
X176550000Y-82400000D03*
X164848750Y-75298750D03*
D14*
X145820000Y-82450000D02*
X148370000Y-82450000D01*
X148370000Y-82450000D02*
X153220000Y-77600000D01*
X153220000Y-77600000D02*
X153220000Y-68650000D01*
X162181250Y-75298750D02*
X162640000Y-75298750D01*
X152870000Y-84610000D02*
X162181250Y-75298750D01*
X164848750Y-75298750D02*
X162640000Y-75298750D01*
G04 #@! TA.AperFunction,Conductor*
G36*
X159745954Y-66860146D02*
G01*
X159791709Y-66912950D01*
X159801427Y-66945306D01*
X159801744Y-66947334D01*
X159870286Y-67153418D01*
X159972063Y-67345284D01*
X159972065Y-67345287D01*
X159972066Y-67345288D01*
X160080646Y-67486838D01*
X160104257Y-67517618D01*
X160104264Y-67517625D01*
X160263190Y-67665629D01*
X160263196Y-67665633D01*
X160263198Y-67665635D01*
X160263200Y-67665636D01*
X160444480Y-67785236D01*
X160444495Y-67785244D01*
X160511856Y-67815048D01*
X160643106Y-67873122D01*
X160853548Y-67926844D01*
X161069985Y-67944918D01*
X161286422Y-67926844D01*
X161496864Y-67873122D01*
X161695481Y-67785241D01*
X161876772Y-67665635D01*
X161876776Y-67665630D01*
X161876779Y-67665629D01*
X162035707Y-67517625D01*
X162035709Y-67517622D01*
X162035714Y-67517618D01*
X162167904Y-67345288D01*
X162269682Y-67153421D01*
X162338227Y-66947330D01*
X162338544Y-66945298D01*
X162338904Y-66944535D01*
X162339439Y-66942333D01*
X162339891Y-66942442D01*
X162368351Y-66882108D01*
X162427591Y-66845062D01*
X162461055Y-66840461D01*
X179678924Y-66840461D01*
X179745963Y-66860146D01*
X179791718Y-66912950D01*
X179798932Y-66937007D01*
X179799723Y-66936820D01*
X179800855Y-66941581D01*
X179863976Y-67137178D01*
X179863984Y-67137198D01*
X179957051Y-67320459D01*
X179975065Y-67345288D01*
X180077761Y-67486841D01*
X180223104Y-67632192D01*
X180389458Y-67752896D01*
X180389478Y-67752910D01*
X180453134Y-67785241D01*
X180572743Y-67845991D01*
X180768357Y-67909130D01*
X180768360Y-67909130D01*
X180773100Y-67910258D01*
X180772609Y-67912320D01*
X180827796Y-67938320D01*
X180864869Y-67997542D01*
X180869485Y-68031061D01*
X180869485Y-85248878D01*
X180849800Y-85315917D01*
X180796996Y-85361672D01*
X180772938Y-85368904D01*
X180773122Y-85369678D01*
X180768365Y-85370809D01*
X180572749Y-85433945D01*
X180572735Y-85433951D01*
X180389486Y-85527019D01*
X180389476Y-85527025D01*
X180223099Y-85647735D01*
X180077760Y-85793071D01*
X180077753Y-85793079D01*
X179957041Y-85959448D01*
X179957036Y-85959456D01*
X179863960Y-86142712D01*
X179863958Y-86142716D01*
X179800818Y-86338329D01*
X179799689Y-86343077D01*
X179797632Y-86342587D01*
X179771611Y-86397790D01*
X179712381Y-86434852D01*
X179678886Y-86439461D01*
X162461056Y-86439461D01*
X162394017Y-86419776D01*
X162348262Y-86366972D01*
X162338545Y-86334619D01*
X162338228Y-86332594D01*
X162338228Y-86332592D01*
X162269683Y-86126501D01*
X162167906Y-85934633D01*
X162108471Y-85857151D01*
X162035721Y-85762310D01*
X162035707Y-85762296D01*
X161876780Y-85614291D01*
X161876776Y-85614288D01*
X161695485Y-85494681D01*
X161695476Y-85494676D01*
X161496867Y-85406800D01*
X161496865Y-85406799D01*
X161286423Y-85353077D01*
X161286422Y-85353076D01*
X161286419Y-85353076D01*
X161094100Y-85337016D01*
X161069986Y-85335003D01*
X161069985Y-85335003D01*
X160853551Y-85353076D01*
X160643105Y-85406799D01*
X160444487Y-85494681D01*
X160444481Y-85494684D01*
X160263195Y-85614288D01*
X160263191Y-85614291D01*
X160104264Y-85762296D01*
X160104257Y-85762303D01*
X159997755Y-85901145D01*
X159972066Y-85934634D01*
X159972063Y-85934640D01*
X159870288Y-86126501D01*
X159801745Y-86332587D01*
X159801744Y-86332591D01*
X159801427Y-86334622D01*
X159801066Y-86335386D01*
X159800532Y-86337589D01*
X159800079Y-86337479D01*
X159771620Y-86397814D01*
X159712380Y-86434860D01*
X159678916Y-86439461D01*
X142461129Y-86439461D01*
X142394090Y-86419776D01*
X142348335Y-86366972D01*
X142341105Y-86342876D01*
X142340324Y-86343062D01*
X142339196Y-86338320D01*
X142276058Y-86142717D01*
X142276053Y-86142701D01*
X142276052Y-86142699D01*
X142276051Y-86142696D01*
X142182968Y-85959435D01*
X142182962Y-85959424D01*
X142062248Y-85793057D01*
X142062246Y-85793054D01*
X141916890Y-85647707D01*
X141750509Y-85526996D01*
X141750502Y-85526992D01*
X141750497Y-85526989D01*
X141567236Y-85433922D01*
X141567232Y-85433920D01*
X141567231Y-85433920D01*
X141371609Y-85370787D01*
X141371602Y-85370785D01*
X141366859Y-85369658D01*
X141367348Y-85367597D01*
X141312153Y-85341579D01*
X141275094Y-85282347D01*
X141270485Y-85248856D01*
X141270485Y-84609999D01*
X151874815Y-84609999D01*
X151874815Y-84610000D01*
X151894313Y-84820426D01*
X151894314Y-84820429D01*
X151952144Y-85023684D01*
X151952147Y-85023690D01*
X152046344Y-85212862D01*
X152173699Y-85381508D01*
X152297840Y-85494676D01*
X152329872Y-85523877D01*
X152509547Y-85635128D01*
X152706605Y-85711468D01*
X152914336Y-85750300D01*
X152914338Y-85750300D01*
X153125662Y-85750300D01*
X153125664Y-85750300D01*
X153333395Y-85711468D01*
X153530453Y-85635128D01*
X153710128Y-85523877D01*
X153866302Y-85381506D01*
X153993656Y-85212862D01*
X154087853Y-85023689D01*
X154087853Y-85023686D01*
X154087855Y-85023684D01*
X154145685Y-84820429D01*
X154145686Y-84820426D01*
X154165185Y-84610000D01*
X154165185Y-84609999D01*
X154414815Y-84609999D01*
X154414815Y-84610000D01*
X154434313Y-84820426D01*
X154434314Y-84820429D01*
X154492144Y-85023684D01*
X154492147Y-85023690D01*
X154586344Y-85212862D01*
X154713699Y-85381508D01*
X154837840Y-85494676D01*
X154869872Y-85523877D01*
X155049547Y-85635128D01*
X155246605Y-85711468D01*
X155454336Y-85750300D01*
X155454338Y-85750300D01*
X155665662Y-85750300D01*
X155665664Y-85750300D01*
X155873395Y-85711468D01*
X156070453Y-85635128D01*
X156250128Y-85523877D01*
X156406302Y-85381506D01*
X156533656Y-85212862D01*
X156627853Y-85023689D01*
X156627853Y-85023686D01*
X156627855Y-85023684D01*
X156685685Y-84820429D01*
X156685686Y-84820426D01*
X156705185Y-84610000D01*
X156705185Y-84609999D01*
X156954815Y-84609999D01*
X156954815Y-84610000D01*
X156974313Y-84820426D01*
X156974314Y-84820429D01*
X157032144Y-85023684D01*
X157032147Y-85023690D01*
X157126344Y-85212862D01*
X157253699Y-85381508D01*
X157377840Y-85494676D01*
X157409872Y-85523877D01*
X157589547Y-85635128D01*
X157786605Y-85711468D01*
X157994336Y-85750300D01*
X157994338Y-85750300D01*
X158205662Y-85750300D01*
X158205664Y-85750300D01*
X158413395Y-85711468D01*
X158610453Y-85635128D01*
X158790128Y-85523877D01*
X158946302Y-85381506D01*
X159073656Y-85212862D01*
X159167853Y-85023689D01*
X159167853Y-85023686D01*
X159167855Y-85023684D01*
X159225685Y-84820429D01*
X159225686Y-84820426D01*
X159245185Y-84610000D01*
X159245185Y-84609999D01*
X159225686Y-84399573D01*
X159225685Y-84399570D01*
X159167855Y-84196315D01*
X159167852Y-84196309D01*
X159073656Y-84007138D01*
X158946302Y-83838494D01*
X158946300Y-83838491D01*
X158790129Y-83696124D01*
X158790128Y-83696123D01*
X158610453Y-83584872D01*
X158610452Y-83584871D01*
X158466365Y-83529052D01*
X158413395Y-83508532D01*
X158205664Y-83469700D01*
X157994336Y-83469700D01*
X157786605Y-83508532D01*
X157786602Y-83508532D01*
X157786602Y-83508533D01*
X157589547Y-83584871D01*
X157589546Y-83584872D01*
X157409870Y-83696124D01*
X157253699Y-83838491D01*
X157126344Y-84007137D01*
X157032147Y-84196309D01*
X157032144Y-84196315D01*
X156974314Y-84399570D01*
X156974313Y-84399573D01*
X156954815Y-84609999D01*
X156705185Y-84609999D01*
X156685686Y-84399573D01*
X156685685Y-84399570D01*
X156627855Y-84196315D01*
X156627852Y-84196309D01*
X156533656Y-84007138D01*
X156406302Y-83838494D01*
X156406300Y-83838491D01*
X156250129Y-83696124D01*
X156250128Y-83696123D01*
X156070453Y-83584872D01*
X156070452Y-83584871D01*
X155926365Y-83529052D01*
X155873395Y-83508532D01*
X155665664Y-83469700D01*
X155454336Y-83469700D01*
X155246605Y-83508532D01*
X155246602Y-83508532D01*
X155246602Y-83508533D01*
X155049547Y-83584871D01*
X155049546Y-83584872D01*
X154869870Y-83696124D01*
X154713699Y-83838491D01*
X154586344Y-84007137D01*
X154492147Y-84196309D01*
X154492144Y-84196315D01*
X154434314Y-84399570D01*
X154434313Y-84399573D01*
X154414815Y-84609999D01*
X154165185Y-84609999D01*
X154149306Y-84438649D01*
X154155490Y-84386964D01*
X154460782Y-83497367D01*
X154490385Y-83449940D01*
X162279758Y-75660569D01*
X162341081Y-75627084D01*
X162367439Y-75624250D01*
X162597147Y-75624250D01*
X163975327Y-75624250D01*
X164019171Y-75632260D01*
X164612429Y-75856525D01*
X164622777Y-75858338D01*
X164648827Y-75865916D01*
X164663412Y-75871957D01*
X164691988Y-75883794D01*
X164828111Y-75901714D01*
X164848749Y-75904432D01*
X164848750Y-75904432D01*
X164848751Y-75904432D01*
X164901004Y-75897552D01*
X165005512Y-75883794D01*
X165151591Y-75823286D01*
X165277032Y-75727032D01*
X165373286Y-75601591D01*
X165433794Y-75455512D01*
X165454432Y-75298750D01*
X165433794Y-75141988D01*
X165373286Y-74995909D01*
X165277032Y-74870468D01*
X165151591Y-74774214D01*
X165005512Y-74713706D01*
X165005510Y-74713705D01*
X164848751Y-74693068D01*
X164848749Y-74693068D01*
X164691989Y-74713705D01*
X164691984Y-74713707D01*
X164648485Y-74731725D01*
X164621411Y-74739477D01*
X164612430Y-74740974D01*
X164612424Y-74740976D01*
X164612421Y-74740977D01*
X164019170Y-74965239D01*
X163975324Y-74973250D01*
X162138397Y-74973250D01*
X162055609Y-74995432D01*
X161981388Y-75038285D01*
X161981385Y-75038287D01*
X154030062Y-82989609D01*
X153982631Y-83019214D01*
X152455362Y-83543344D01*
X152449550Y-83545438D01*
X152448910Y-83545679D01*
X152448897Y-83545686D01*
X152376277Y-83592502D01*
X152369941Y-83598827D01*
X152369938Y-83598830D01*
X152340023Y-83640904D01*
X152330051Y-83654930D01*
X152326823Y-83669007D01*
X152292650Y-83729950D01*
X152289500Y-83732924D01*
X152173700Y-83838491D01*
X152046344Y-84007137D01*
X151952147Y-84196309D01*
X151952144Y-84196315D01*
X151894314Y-84399570D01*
X151894313Y-84399573D01*
X151874815Y-84609999D01*
X141270485Y-84609999D01*
X141270485Y-82449998D01*
X145214318Y-82449998D01*
X145214318Y-82450001D01*
X145234955Y-82606760D01*
X145234956Y-82606762D01*
X145295464Y-82752841D01*
X145391718Y-82878282D01*
X145517159Y-82974536D01*
X145663238Y-83035044D01*
X145741619Y-83045363D01*
X145819999Y-83055682D01*
X145820000Y-83055682D01*
X145820001Y-83055682D01*
X145834795Y-83053734D01*
X145976762Y-83035044D01*
X146020268Y-83017022D01*
X146047344Y-83009270D01*
X146056320Y-83007775D01*
X146649577Y-82783510D01*
X146693423Y-82775500D01*
X148412851Y-82775500D01*
X148412853Y-82775500D01*
X148495639Y-82753318D01*
X148569862Y-82710465D01*
X153409652Y-77870672D01*
X153409657Y-77870669D01*
X153419860Y-77860465D01*
X153419862Y-77860465D01*
X153480465Y-77799862D01*
X153522895Y-77726370D01*
X153522914Y-77726352D01*
X153522908Y-77726349D01*
X153523317Y-77725640D01*
X153523318Y-77725639D01*
X153545501Y-77642853D01*
X153545501Y-77557147D01*
X153545501Y-77549552D01*
X153545500Y-77549534D01*
X153545500Y-69763454D01*
X153565185Y-69696415D01*
X153604222Y-69658027D01*
X153740128Y-69573877D01*
X153896302Y-69431506D01*
X154023656Y-69262862D01*
X154117853Y-69073689D01*
X154117853Y-69073686D01*
X154117855Y-69073684D01*
X154175685Y-68870429D01*
X154175686Y-68870426D01*
X154195185Y-68660000D01*
X154195185Y-68659999D01*
X154444815Y-68659999D01*
X154444815Y-68660000D01*
X154464313Y-68870426D01*
X154464314Y-68870429D01*
X154522144Y-69073684D01*
X154522147Y-69073690D01*
X154616344Y-69262862D01*
X154743699Y-69431508D01*
X154878050Y-69553983D01*
X154899872Y-69573877D01*
X155079547Y-69685128D01*
X155276605Y-69761468D01*
X155484336Y-69800300D01*
X155484338Y-69800300D01*
X155695662Y-69800300D01*
X155695664Y-69800300D01*
X155903395Y-69761468D01*
X156100453Y-69685128D01*
X156280128Y-69573877D01*
X156436302Y-69431506D01*
X156563656Y-69262862D01*
X156657853Y-69073689D01*
X156657853Y-69073686D01*
X156657855Y-69073684D01*
X156715685Y-68870429D01*
X156715686Y-68870426D01*
X156735185Y-68660000D01*
X156735185Y-68659999D01*
X156985317Y-68659999D01*
X156985317Y-68660000D01*
X157004806Y-68870334D01*
X157062614Y-69073504D01*
X157062619Y-69073517D01*
X157156771Y-69262598D01*
X157164118Y-69272327D01*
X157640504Y-68795941D01*
X157656619Y-68856081D01*
X157723498Y-68971920D01*
X157818080Y-69066502D01*
X157933919Y-69133381D01*
X157994057Y-69149494D01*
X157520401Y-69623150D01*
X157619770Y-69684677D01*
X157619771Y-69684678D01*
X157816740Y-69760983D01*
X158024384Y-69799800D01*
X158235616Y-69799800D01*
X158443259Y-69760983D01*
X158640228Y-69684678D01*
X158640232Y-69684676D01*
X158739596Y-69623151D01*
X158739596Y-69623150D01*
X158265942Y-69149494D01*
X158326081Y-69133381D01*
X158441920Y-69066502D01*
X158536502Y-68971920D01*
X158603381Y-68856081D01*
X158619495Y-68795941D01*
X159095880Y-69272326D01*
X159095881Y-69272326D01*
X159103228Y-69262598D01*
X159197380Y-69073517D01*
X159197385Y-69073504D01*
X159255193Y-68870334D01*
X159274683Y-68660000D01*
X159274683Y-68659999D01*
X159255193Y-68449665D01*
X159197385Y-68246495D01*
X159197380Y-68246482D01*
X159103232Y-68057407D01*
X159103227Y-68057399D01*
X159095880Y-68047671D01*
X158619494Y-68524057D01*
X158603381Y-68463919D01*
X158536502Y-68348080D01*
X158441920Y-68253498D01*
X158326081Y-68186619D01*
X158265941Y-68170504D01*
X158739597Y-67696848D01*
X158640227Y-67635321D01*
X158640226Y-67635320D01*
X158443259Y-67559016D01*
X158235616Y-67520200D01*
X158024384Y-67520200D01*
X157816740Y-67559016D01*
X157619772Y-67635321D01*
X157619765Y-67635325D01*
X157520402Y-67696847D01*
X157520401Y-67696848D01*
X157994058Y-68170504D01*
X157933919Y-68186619D01*
X157818080Y-68253498D01*
X157723498Y-68348080D01*
X157656619Y-68463919D01*
X157640504Y-68524058D01*
X157164118Y-68047672D01*
X157164117Y-68047672D01*
X157156770Y-68057402D01*
X157062619Y-68246482D01*
X157062614Y-68246495D01*
X157004806Y-68449665D01*
X156985317Y-68659999D01*
X156735185Y-68659999D01*
X156715686Y-68449573D01*
X156715685Y-68449570D01*
X156657855Y-68246315D01*
X156657852Y-68246309D01*
X156628130Y-68186619D01*
X156563656Y-68057138D01*
X156493300Y-67963971D01*
X156436300Y-67888491D01*
X156280129Y-67746124D01*
X156280128Y-67746123D01*
X156100453Y-67634872D01*
X156100452Y-67634871D01*
X155904644Y-67559016D01*
X155903395Y-67558532D01*
X155695664Y-67519700D01*
X155484336Y-67519700D01*
X155276605Y-67558532D01*
X155276602Y-67558532D01*
X155276602Y-67558533D01*
X155079547Y-67634871D01*
X155079546Y-67634872D01*
X154899870Y-67746124D01*
X154743699Y-67888491D01*
X154616344Y-68057137D01*
X154522147Y-68246309D01*
X154522144Y-68246315D01*
X154464314Y-68449570D01*
X154464313Y-68449573D01*
X154444815Y-68659999D01*
X154195185Y-68659999D01*
X154175686Y-68449573D01*
X154175685Y-68449570D01*
X154117855Y-68246315D01*
X154117852Y-68246309D01*
X154088130Y-68186619D01*
X154023656Y-68057138D01*
X153953300Y-67963971D01*
X153896300Y-67888491D01*
X153740129Y-67746124D01*
X153740128Y-67746123D01*
X153560453Y-67634872D01*
X153560452Y-67634871D01*
X153364644Y-67559016D01*
X153363395Y-67558532D01*
X153155664Y-67519700D01*
X152944336Y-67519700D01*
X152736605Y-67558532D01*
X152736602Y-67558532D01*
X152736602Y-67558533D01*
X152539547Y-67634871D01*
X152539546Y-67634872D01*
X152359870Y-67746124D01*
X152203699Y-67888491D01*
X152076344Y-68057137D01*
X151982147Y-68246309D01*
X151982144Y-68246315D01*
X151924314Y-68449570D01*
X151924313Y-68449573D01*
X151904815Y-68659999D01*
X151904815Y-68660000D01*
X151924313Y-68870426D01*
X151924314Y-68870429D01*
X151982144Y-69073684D01*
X151982147Y-69073690D01*
X152076344Y-69262862D01*
X152203699Y-69431508D01*
X152338050Y-69553983D01*
X152359872Y-69573877D01*
X152539547Y-69685128D01*
X152736599Y-69761466D01*
X152736605Y-69761468D01*
X152793286Y-69772063D01*
X152855565Y-69803729D01*
X152890839Y-69864041D01*
X152894500Y-69893951D01*
X152894500Y-77413811D01*
X152874815Y-77480850D01*
X152858181Y-77501492D01*
X148271492Y-82088181D01*
X148210169Y-82121666D01*
X148183811Y-82124500D01*
X146693426Y-82124500D01*
X146649580Y-82116489D01*
X146071076Y-81897801D01*
X146071060Y-81897796D01*
X146056318Y-81892223D01*
X146052331Y-81891524D01*
X146045958Y-81890407D01*
X146019918Y-81882831D01*
X145976762Y-81864956D01*
X145898381Y-81854637D01*
X145820001Y-81844318D01*
X145819999Y-81844318D01*
X145663239Y-81864955D01*
X145663237Y-81864956D01*
X145517160Y-81925463D01*
X145391718Y-82021718D01*
X145295463Y-82147160D01*
X145234956Y-82293237D01*
X145234955Y-82293239D01*
X145214318Y-82449998D01*
X141270485Y-82449998D01*
X141270485Y-80466530D01*
X142924500Y-80466530D01*
X142924500Y-80673469D01*
X142964868Y-80876412D01*
X142964870Y-80876420D01*
X143044058Y-81067596D01*
X143159024Y-81239657D01*
X143305342Y-81385975D01*
X143305345Y-81385977D01*
X143477402Y-81500941D01*
X143668580Y-81580130D01*
X143871530Y-81620499D01*
X143871534Y-81620500D01*
X143871535Y-81620500D01*
X144328466Y-81620500D01*
X144328467Y-81620499D01*
X144531420Y-81580130D01*
X144722598Y-81500941D01*
X144894655Y-81385977D01*
X145040977Y-81239655D01*
X145155941Y-81067598D01*
X145235130Y-80876420D01*
X145275500Y-80673465D01*
X145275500Y-80466535D01*
X145235130Y-80263580D01*
X145155941Y-80072402D01*
X145040977Y-79900345D01*
X145040975Y-79900342D01*
X144894657Y-79754024D01*
X144808626Y-79696541D01*
X144722598Y-79639059D01*
X144531420Y-79559870D01*
X144531412Y-79559868D01*
X144328469Y-79519500D01*
X144328465Y-79519500D01*
X143871535Y-79519500D01*
X143871530Y-79519500D01*
X143668587Y-79559868D01*
X143668579Y-79559870D01*
X143477403Y-79639058D01*
X143305342Y-79754024D01*
X143159024Y-79900342D01*
X143044058Y-80072403D01*
X142964870Y-80263579D01*
X142964868Y-80263587D01*
X142924500Y-80466530D01*
X141270485Y-80466530D01*
X141270485Y-77966530D01*
X142924500Y-77966530D01*
X142924500Y-78173469D01*
X142964868Y-78376412D01*
X142964870Y-78376420D01*
X143044058Y-78567596D01*
X143159024Y-78739657D01*
X143305342Y-78885975D01*
X143305345Y-78885977D01*
X143477402Y-79000941D01*
X143668580Y-79080130D01*
X143871530Y-79120499D01*
X143871534Y-79120500D01*
X143871535Y-79120500D01*
X144328466Y-79120500D01*
X144328467Y-79120499D01*
X144531420Y-79080130D01*
X144722598Y-79000941D01*
X144894655Y-78885977D01*
X145040977Y-78739655D01*
X145155941Y-78567598D01*
X145235130Y-78376420D01*
X145275500Y-78173465D01*
X145275500Y-77966535D01*
X145235130Y-77763580D01*
X145155941Y-77572402D01*
X145040977Y-77400345D01*
X145040975Y-77400342D01*
X144894657Y-77254024D01*
X144808626Y-77196541D01*
X144722598Y-77139059D01*
X144531420Y-77059870D01*
X144531412Y-77059868D01*
X144328469Y-77019500D01*
X144328465Y-77019500D01*
X143871535Y-77019500D01*
X143871530Y-77019500D01*
X143668587Y-77059868D01*
X143668579Y-77059870D01*
X143477403Y-77139058D01*
X143305342Y-77254024D01*
X143159024Y-77400342D01*
X143044058Y-77572403D01*
X142964870Y-77763579D01*
X142964868Y-77763587D01*
X142924500Y-77966530D01*
X141270485Y-77966530D01*
X141270485Y-75466530D01*
X142924500Y-75466530D01*
X142924500Y-75673469D01*
X142964868Y-75876412D01*
X142964870Y-75876420D01*
X143044058Y-76067596D01*
X143159024Y-76239657D01*
X143305342Y-76385975D01*
X143305345Y-76385977D01*
X143477402Y-76500941D01*
X143668580Y-76580130D01*
X143871530Y-76620499D01*
X143871534Y-76620500D01*
X143871535Y-76620500D01*
X144328466Y-76620500D01*
X144328467Y-76620499D01*
X144531420Y-76580130D01*
X144722598Y-76500941D01*
X144894655Y-76385977D01*
X145040977Y-76239655D01*
X145155941Y-76067598D01*
X145235130Y-75876420D01*
X145275500Y-75673465D01*
X145275500Y-75466535D01*
X145235130Y-75263580D01*
X145155941Y-75072402D01*
X145040977Y-74900345D01*
X145040975Y-74900342D01*
X144894657Y-74754024D01*
X144803429Y-74693068D01*
X144722598Y-74639059D01*
X144531420Y-74559870D01*
X144531412Y-74559868D01*
X144328469Y-74519500D01*
X144328465Y-74519500D01*
X143871535Y-74519500D01*
X143871530Y-74519500D01*
X143668587Y-74559868D01*
X143668579Y-74559870D01*
X143477403Y-74639058D01*
X143305342Y-74754024D01*
X143159024Y-74900342D01*
X143044058Y-75072403D01*
X142964870Y-75263579D01*
X142964868Y-75263587D01*
X142924500Y-75466530D01*
X141270485Y-75466530D01*
X141270485Y-72415793D01*
X142925000Y-72415793D01*
X142925000Y-72820000D01*
X143695854Y-72820000D01*
X143657370Y-72886657D01*
X143625000Y-73007465D01*
X143625000Y-73132535D01*
X143657370Y-73253343D01*
X143695854Y-73320000D01*
X142925001Y-73320000D01*
X142925001Y-73724196D01*
X142927851Y-73754606D01*
X142972653Y-73882645D01*
X143053207Y-73991792D01*
X143162354Y-74072346D01*
X143290397Y-74117149D01*
X143320792Y-74119999D01*
X143849999Y-74119999D01*
X143850000Y-74119998D01*
X143850000Y-73474145D01*
X143916657Y-73512630D01*
X144037465Y-73545000D01*
X144162535Y-73545000D01*
X144283343Y-73512630D01*
X144350000Y-73474145D01*
X144350000Y-74119999D01*
X144879196Y-74119999D01*
X144909606Y-74117148D01*
X145037645Y-74072346D01*
X145146792Y-73991792D01*
X145227346Y-73882645D01*
X145272149Y-73754604D01*
X145272149Y-73754600D01*
X145275000Y-73724206D01*
X145275000Y-73320000D01*
X144504146Y-73320000D01*
X144542630Y-73253343D01*
X144575000Y-73132535D01*
X144575000Y-73007465D01*
X144542630Y-72886657D01*
X144504146Y-72820000D01*
X145274999Y-72820000D01*
X145274999Y-72415803D01*
X145272148Y-72385393D01*
X145227346Y-72257354D01*
X145146792Y-72148207D01*
X145037645Y-72067653D01*
X144909602Y-72022850D01*
X144879207Y-72020000D01*
X144350000Y-72020000D01*
X144350000Y-72665854D01*
X144283343Y-72627370D01*
X144162535Y-72595000D01*
X144037465Y-72595000D01*
X143916657Y-72627370D01*
X143850000Y-72665854D01*
X143850000Y-72020000D01*
X143320803Y-72020000D01*
X143290393Y-72022851D01*
X143162354Y-72067653D01*
X143053207Y-72148207D01*
X142972653Y-72257354D01*
X142927850Y-72385395D01*
X142927850Y-72385399D01*
X142925000Y-72415793D01*
X141270485Y-72415793D01*
X141270485Y-68031010D01*
X141290170Y-67963971D01*
X141342974Y-67918216D01*
X141367026Y-67911001D01*
X141366839Y-67910211D01*
X141371576Y-67909084D01*
X141371583Y-67909083D01*
X141567208Y-67845964D01*
X141750487Y-67752896D01*
X141916870Y-67632192D01*
X142062225Y-67486848D01*
X142182943Y-67320475D01*
X142276025Y-67137203D01*
X142339160Y-66941583D01*
X142339161Y-66941570D01*
X142340288Y-66936838D01*
X142342359Y-66937330D01*
X142368327Y-66882175D01*
X142427540Y-66845086D01*
X142461090Y-66840461D01*
X159678915Y-66840461D01*
X159745954Y-66860146D01*
G37*
G04 #@! TD.AperFunction*
G04 #@! TA.AperFunction,Conductor*
G36*
X154112719Y-83195459D02*
G01*
X154115852Y-83197697D01*
X154282302Y-83364147D01*
X154285729Y-83372420D01*
X154285095Y-83376218D01*
X153742299Y-84957881D01*
X153736373Y-84964594D01*
X153727435Y-84965149D01*
X153726766Y-84964897D01*
X152873784Y-84612562D01*
X152867446Y-84606236D01*
X152515102Y-83753232D01*
X152515111Y-83744278D01*
X152521449Y-83737952D01*
X152522093Y-83737709D01*
X154103782Y-83194904D01*
X154112719Y-83195459D01*
G37*
G04 #@! TD.AperFunction*
G04 #@! TA.AperFunction,Conductor*
G36*
X164694044Y-74933478D02*
G01*
X164700030Y-74939640D01*
X164847873Y-75294248D01*
X164847894Y-75303202D01*
X164847873Y-75303252D01*
X164700030Y-75657859D01*
X164693683Y-75664177D01*
X164685094Y-75664301D01*
X164056313Y-75426608D01*
X164049786Y-75420477D01*
X164048750Y-75415664D01*
X164048750Y-75181835D01*
X164052177Y-75173562D01*
X164056313Y-75170891D01*
X164685095Y-74933198D01*
X164694044Y-74933478D01*
G37*
G04 #@! TD.AperFunction*
G04 #@! TA.AperFunction,Conductor*
G36*
X146000696Y-82090890D02*
G01*
X146612437Y-82322141D01*
X146618964Y-82328272D01*
X146620000Y-82333085D01*
X146620000Y-82566914D01*
X146616573Y-82575187D01*
X146612437Y-82577858D01*
X145983655Y-82815551D01*
X145974705Y-82815271D01*
X145968719Y-82809109D01*
X145872306Y-82577858D01*
X145820875Y-82454499D01*
X145820855Y-82445550D01*
X145968719Y-82090889D01*
X145975066Y-82084572D01*
X145983654Y-82084448D01*
X146000696Y-82090890D01*
G37*
G04 #@! TD.AperFunction*
M02*
