G04 #@! TF.GenerationSoftware,KiCad,Pcbnew,8.0.3*
G04 #@! TF.CreationDate,2024-07-19T17:25:19+03:00*
G04 #@! TF.ProjectId,B-GP-02-Brk-01Mbr-R01,422d4750-2d30-4322-9d42-726b2d30314d,rev?*
G04 #@! TF.SameCoordinates,Original*
G04 #@! TF.FileFunction,Paste,Top*
G04 #@! TF.FilePolarity,Positive*
%FSLAX46Y46*%
G04 Gerber Fmt 4.6, Leading zero omitted, Abs format (unit mm)*
G04 Created by KiCad (PCBNEW 8.0.3) date 2024-07-19 17:25:19*
%MOMM*%
%LPD*%
G01*
G04 APERTURE LIST*
G04 Aperture macros list*
%AMRoundRect*
0 Rectangle with rounded corners*
0 $1 Rounding radius*
0 $2 $3 $4 $5 $6 $7 $8 $9 X,Y pos of 4 corners*
0 Add a 4 corners polygon primitive as box body*
4,1,4,$2,$3,$4,$5,$6,$7,$8,$9,$2,$3,0*
0 Add four circle primitives for the rounded corners*
1,1,$1+$1,$2,$3*
1,1,$1+$1,$4,$5*
1,1,$1+$1,$6,$7*
1,1,$1+$1,$8,$9*
0 Add four rect primitives between the rounded corners*
20,1,$1+$1,$2,$3,$4,$5,0*
20,1,$1+$1,$4,$5,$6,$7,0*
20,1,$1+$1,$6,$7,$8,$9,0*
20,1,$1+$1,$8,$9,$2,$3,0*%
G04 Aperture macros list end*
%ADD10R,1.300000X0.600000*%
%ADD11RoundRect,0.225000X-0.225000X-0.250000X0.225000X-0.250000X0.225000X0.250000X-0.225000X0.250000X0*%
%ADD12R,1.590000X0.770000*%
%ADD13RoundRect,0.200000X-0.200000X-0.275000X0.200000X-0.275000X0.200000X0.275000X-0.200000X0.275000X0*%
%ADD14RoundRect,0.218750X0.256250X-0.218750X0.256250X0.218750X-0.256250X0.218750X-0.256250X-0.218750X0*%
%ADD15RoundRect,0.200000X-0.275000X0.200000X-0.275000X-0.200000X0.275000X-0.200000X0.275000X0.200000X0*%
%ADD16RoundRect,0.225000X0.225000X0.250000X-0.225000X0.250000X-0.225000X-0.250000X0.225000X-0.250000X0*%
%ADD17RoundRect,0.200000X0.275000X-0.200000X0.275000X0.200000X-0.275000X0.200000X-0.275000X-0.200000X0*%
%ADD18RoundRect,0.225000X0.250000X-0.225000X0.250000X0.225000X-0.250000X0.225000X-0.250000X-0.225000X0*%
%ADD19RoundRect,0.200000X0.200000X0.275000X-0.200000X0.275000X-0.200000X-0.275000X0.200000X-0.275000X0*%
%ADD20RoundRect,0.225000X-0.250000X0.225000X-0.250000X-0.225000X0.250000X-0.225000X0.250000X0.225000X0*%
%ADD21RoundRect,0.150000X-0.512500X-0.150000X0.512500X-0.150000X0.512500X0.150000X-0.512500X0.150000X0*%
%ADD22R,1.050000X1.000000*%
%ADD23R,2.200000X1.050000*%
%ADD24RoundRect,0.062500X0.062500X-0.117500X0.062500X0.117500X-0.062500X0.117500X-0.062500X-0.117500X0*%
G04 APERTURE END LIST*
D10*
X154750000Y-77510000D03*
X154750000Y-79410000D03*
X156850000Y-78460000D03*
D11*
X159800000Y-77628750D03*
X161350000Y-77628750D03*
D12*
X163210000Y-71950000D03*
X163210000Y-73066250D03*
X163210000Y-74182500D03*
X163210000Y-75298750D03*
X163210000Y-76415000D03*
X163210000Y-77531250D03*
X163210000Y-78647500D03*
X163210000Y-79763750D03*
X163210000Y-80880000D03*
X172530000Y-80880000D03*
X172530000Y-79763750D03*
X172530000Y-78647500D03*
X172530000Y-77531250D03*
X172530000Y-76415000D03*
X172530000Y-75298750D03*
X172530000Y-74182500D03*
X172530000Y-73066250D03*
X172530000Y-71950000D03*
D13*
X145815000Y-84620000D03*
X147465000Y-84620000D03*
D14*
X150220000Y-84967500D03*
X150220000Y-83392500D03*
D11*
X159800000Y-80708750D03*
X161350000Y-80708750D03*
D15*
X152938000Y-73785000D03*
X152938000Y-75435000D03*
D10*
X156850000Y-75440000D03*
X156850000Y-73540000D03*
X154750000Y-74490000D03*
D16*
X161350000Y-76088750D03*
X159800000Y-76088750D03*
D17*
X152958000Y-79285000D03*
X152958000Y-77635000D03*
D18*
X144355000Y-69125000D03*
X144355000Y-67575000D03*
D19*
X168205000Y-68780000D03*
X166555000Y-68780000D03*
D11*
X159800000Y-79168750D03*
X161350000Y-79168750D03*
D20*
X150827500Y-67595000D03*
X150827500Y-69145000D03*
D21*
X146842500Y-67470000D03*
X146842500Y-68420000D03*
X146842500Y-69370000D03*
X149117500Y-69370000D03*
X149117500Y-67470000D03*
D22*
X175995000Y-79760000D03*
D23*
X177520000Y-81235000D03*
X177520000Y-78285000D03*
D19*
X161400000Y-72728750D03*
X159750000Y-72728750D03*
D24*
X174270000Y-78680000D03*
X174270000Y-79520000D03*
D13*
X159750000Y-74268750D03*
X161400000Y-74268750D03*
M02*
